<svg xmlns="http://www.w3.org/2000/svg" xmlns:xlink="http://www.w3.org/1999/xlink" width="180.432" height="53.954" viewBox="0 0 180.432 53.954"><defs><linearGradient id="a" x1="0.048" y1="1.104" x2="0.925" gradientUnits="objectBoundingBox"><stop offset="0" stop-color="#0f6de8"/><stop offset="1" stop-color="#ae6ec9"/></linearGradient></defs><path d="M14.084-10.58C25.226-10.58,31.1-16.32,31.1-28V-58.659H3.617v8.778H20.229v22.486c0,5.2-2.3,7.833-6.685,7.833-3.376,0-6.212-1.756-8.779-5.2l-6.077,7.293C2.132-13.011,7.737-10.58,14.084-10.58Zm54.764,0c14.856,0,25.863-10.332,25.863-24.445S83.7-59.469,68.848-59.469c-14.923,0-25.863,10.4-25.863,24.445S53.925-10.58,68.848-10.58Zm0-9.319c-8.441,0-14.788-6.145-14.788-15.126s6.348-15.126,14.788-15.126,14.788,6.145,14.788,15.126S77.289-19.9,68.848-19.9Zm61.044,9.319c14.856,0,25.863-10.332,25.863-24.445s-11.007-24.445-25.863-24.445c-14.923,0-25.863,10.4-25.863,24.445S114.969-10.58,129.893-10.58Zm0-9.319c-8.441,0-14.788-6.145-14.788-15.126s6.348-15.126,14.788-15.126,14.788,6.145,14.788,15.126S138.334-19.9,129.893-19.9ZM172.57-52.784c3.917,0,6.55-2.566,6.55-6.077,0-3.241-2.634-5.672-6.55-5.672s-6.55,2.566-6.55,5.875S168.653-52.784,172.57-52.784ZM167.3-11.39h10.534V-47.72H167.3Z" transform="translate(1.312 64.534)" fill="url(#a)"/></svg>