<svg xmlns="http://www.w3.org/2000/svg" width="120.689" height="108.18" viewBox="0 0 120.689 108.18"><g transform="translate(-70.156 -65)"><path d="M2.239-10.178A10.8,10.8,0,0,1,.156-6.318,8.577,8.577,0,0,1,.728-5a10.477,10.477,0,0,0,.684-.878V-.65H2.566V-7.89a19.414,19.414,0,0,0,.8-1.94ZM7.049-3.7H6.007V-4.776H7.049ZM8.213-6.491v-.878H6.977V-8.411H6.038v1.042H4.863v.878H6.038v.878H5.129v2.737H7.958V-5.613h-.98v-.878Zm-3.6,4.176V-8.625H8.448v6.311Zm-1.1-7.362V-.671h1.1v-.592H8.448v.5H9.6V-9.677Zm12.009-.286c-.071,1.348.071,5.984-4,8.241a4.256,4.256,0,0,1,1.021.97A8.72,8.72,0,0,0,16.31-5.879,8.1,8.1,0,0,0,20.334-.752a3.991,3.991,0,0,1,.939-1.031c-3.809-1.787-4.319-6.188-4.4-7.6.01-.214.02-.419.031-.582Zm11.621.419L25.613-9.7A10.392,10.392,0,0,1,25.4-7.543c-.521.051-1,.082-1.317.092a9.75,9.75,0,0,1-1.093,0l.123,1.389c.317-.051.848-.123,1.144-.174.184-.02.511-.061.878-.1a15.626,15.626,0,0,1-2.073,4.8l1.327.531a21.521,21.521,0,0,0,2.083-5.473c.3-.02.551-.041.715-.041.633,0,.991.112.991.929a8.1,8.1,0,0,1-.419,2.829.749.749,0,0,1-.766.439,5.9,5.9,0,0,1-1.246-.214l.214,1.348a6.711,6.711,0,0,0,1.225.143,1.623,1.623,0,0,0,1.675-.939,10,10,0,0,0,.582-3.748c0-1.47-.766-1.95-1.848-1.95-.214,0-.511.02-.858.041.071-.368.153-.745.214-1.052C27-8.952,27.073-9.279,27.135-9.544Zm4.544-.848-.817.327a11.549,11.549,0,0,1,.827,1.409L32.5-9A13.585,13.585,0,0,0,31.679-10.392Zm-1.215.46-.807.337a11.29,11.29,0,0,1,.694,1.2l-.919.4a11.484,11.484,0,0,1,1.716,3.829l1.3-.592A18.53,18.53,0,0,0,30.78-8.319l.5-.214C31.086-8.911,30.719-9.555,30.463-9.932ZM35.61-2.856c0-.439.48-.715,1.276-.715a5.554,5.554,0,0,1,.837.071c.01.143.01.265.01.357,0,.684-.235.97-.888.97C36.131-2.172,35.61-2.356,35.61-2.856Zm3.421-6.882H37.489A7.389,7.389,0,0,1,37.6-8.544c.01.439.01,1.042.01,1.664,0,.541.041,1.409.071,2.206a5.8,5.8,0,0,0-.6-.031c-1.879,0-2.788.848-2.788,1.91,0,1.389,1.195,1.869,2.655,1.869,1.716,0,2.175-.858,2.175-1.767,0-.1,0-.225-.01-.357a7.965,7.965,0,0,1,2.257,1.6l.786-1.215a8.018,8.018,0,0,0-3.1-1.746c-.051-.756-.092-1.573-.112-2.185.827-.02,2.032-.071,2.89-.143l-.041-1.215c-.848.1-2.042.143-2.859.153,0-.265,0-.511.01-.745A9.828,9.828,0,0,1,39.031-9.738Zm8.894-.01-1.4-.061a9.044,9.044,0,0,1-.082,1.072,26.868,26.868,0,0,0-.286,3.268,11.55,11.55,0,0,0,.133,1.705l1.256-.082A5.34,5.34,0,0,1,47.5-4.929c.051-1.348,1.1-3.155,2.308-3.155.858,0,1.389.878,1.389,2.451,0,2.471-1.6,3.217-3.87,3.564L48.1-.885c2.706-.49,4.473-1.869,4.473-4.759,0-2.247-1.1-3.635-2.522-3.635a3.152,3.152,0,0,0-2.532,1.654A16.651,16.651,0,0,1,47.925-9.749ZM59.9-8.268h1v-.8h3.268v.8h1.052V-9.973H59.9v.643l-.97-.225a16.151,16.151,0,0,1-.582,2.4l.766.214c.255-.592.541-1.542.786-2.359ZM57.166-7.135a9.216,9.216,0,0,0-.46-2.369L55.9-9.31a10.115,10.115,0,0,1,.408,2.379Zm3.993,2.88v-.49h.827v.49Zm0-1.664h.827v.48h-.827Zm2.778,0v.48h-.848v-.48Zm0,1.664h-.848v-.49h.848ZM65.3-3.04H63.089v-.47h1.848V-6.665H63.089v-.48h1.889v-.95H63.089v-.694h-1.1v.694H60.1v.95h1.889v.48H60.209V-3.51h1.777v.47H59.8l-.092-.449-.684.235V-5.6h.807V-6.726H58.31v-3.38H57.289v3.38h-1.43V-5.6h.694c-.031,1.807-.143,3.186-.807,4.064a2.846,2.846,0,0,1,.745.858c.858-1.082,1.031-2.788,1.072-4.922H58v2.675l-.378.112.3,1.123c.562-.245,1.185-.511,1.818-.776v.449h2.247V-.671h1.1V-2.019H65.3Zm9.343-6.627H73.168a4.865,4.865,0,0,1,.112.7c.02.276.031.807.041,1.379-.388.01-.786.02-1.154.02a10.739,10.739,0,0,1-1.542-.112v1.3c.5.02,1.133.051,1.573.051.378,0,.756-.01,1.144-.02v.368c0,1.726-.163,2.635-.95,3.451a3.962,3.962,0,0,1-1.185.817l1.174.929c2.042-1.3,2.226-2.778,2.226-5.187V-6.4c.572-.031,1.1-.071,1.511-.123l.01-1.327a13.433,13.433,0,0,1-1.532.184V-8.973C74.607-9.2,74.618-9.442,74.648-9.667Zm-5.075.174-1.511-.153a6.924,6.924,0,0,1-.071.888,28.674,28.674,0,0,0-.327,4.074,11.106,11.106,0,0,0,.582,3.308l1.133-.112c-.01-.143-.02-.317-.02-.419a2.3,2.3,0,0,1,.061-.5A25.2,25.2,0,0,1,70.114-4.9l-.633-.408c-.174.378-.357.868-.49,1.185a12.929,12.929,0,0,1,.337-4.544A8.137,8.137,0,0,1,69.573-9.493Zm12.346,6.74c0-.255.245-.49.633-.49.551,0,.929.429.991,1.093a5.331,5.331,0,0,1-.592.031C82.337-2.121,81.919-2.376,81.919-2.754ZM80.183-9.33,80.224-8c.235-.031.562-.061.837-.082.541-.031,1.95-.092,2.471-.1-.5.439-1.562,1.3-2.134,1.767-.6.5-1.838,1.542-2.563,2.124l.929.96c1.093-1.246,2.114-2.073,3.676-2.073,1.2,0,2.124.623,2.124,1.542a1.48,1.48,0,0,1-.848,1.389,2.044,2.044,0,0,0-2.175-1.746,1.711,1.711,0,0,0-1.828,1.593c0,1.021,1.072,1.675,2.492,1.675,2.471,0,3.7-1.276,3.7-2.89A2.769,2.769,0,0,0,83.849-6.42a3.989,3.989,0,0,0-.97.112c.643-.511,1.716-1.409,2.267-1.8.235-.174.48-.317.715-.47L85.2-9.483a4.462,4.462,0,0,1-.776.112c-.582.051-2.767.092-3.309.092A7.086,7.086,0,0,1,80.183-9.33ZM94.9-4.97v-1.6h1.368v1.6Zm2.594,1.542V-6.573H99V-7.747H97.491v-2.267H96.266v2.267H94.9v-2.369H93.672v2.369H92.283V-9.892H91.027v2.144h-1.45v1.174h1.45V-.661h1.256V-1.3h6.372V-2.478H92.283V-6.573h1.389v3.155H94.9v-.419h1.368v.408Zm5.616-3.8h1.787v.735h-1.787Zm0-1.644h1.787v.735h-1.787Zm4.8.735H106.12v-.735h1.787Zm0,1.644H106.12v-.735h1.787Zm1.266.98v-4.34h-7.281v4.34h1.624a7.649,7.649,0,0,1-2.757,1.45,5.619,5.619,0,0,1,.8,1,8.189,8.189,0,0,0,1.858-.95v.368c0,.654-.2,1.511-1.91,2.063a4.792,4.792,0,0,1,.837.991,2.991,2.991,0,0,0,2.328-3v-.7H103.8a6.906,6.906,0,0,0,1.225-1.215h1.052a6.162,6.162,0,0,0,1.195,1.225h-.766V-.691h1.266V-3.918a7.464,7.464,0,0,0,1.726.827,5.45,5.45,0,0,1,.807-1.042,7.263,7.263,0,0,1-2.8-1.379ZM116.6-9.738l-1.348-.112a5.677,5.677,0,0,1-.2,1.174h-.49a13.287,13.287,0,0,1-1.8-.123V-7.6c.562.041,1.307.061,1.726.061h.133a10.021,10.021,0,0,1-2.257,2.818l1.093.817a11.759,11.759,0,0,1,.95-1.123,2.487,2.487,0,0,1,1.593-.7.786.786,0,0,1,.715.347c-1.164.6-2.389,1.419-2.389,2.726S115.5-.957,117.107-.957A25.545,25.545,0,0,0,120-1.13l.041-1.317a16.7,16.7,0,0,1-2.9.286c-1,0-1.481-.153-1.481-.715,0-.511.408-.909,1.174-1.348-.01.449-.02.939-.051,1.246h1.225c-.01-.47-.031-1.225-.041-1.8.623-.286,1.2-.511,1.664-.694.347-.133.888-.337,1.215-.429l-.511-1.185c-.378.194-.735.357-1.133.531-.419.184-.848.357-1.379.6a1.383,1.383,0,0,0-1.358-.786,3.46,3.46,0,0,0-1.154.2,7.131,7.131,0,0,0,.582-1.042,30.419,30.419,0,0,0,3.329-.255l.01-1.185a25.852,25.852,0,0,1-2.89.3A9.768,9.768,0,0,0,116.6-9.738Z" transform="translate(70 173.769)" fill="#fff"/><path d="M18.012-8.349v4.333H3.04V-26.425H8.084V-8.349Zm5.174-18.076H28.23V-4.016H23.185Zm19.628,22.7q-1.843,0-3.67-.113a25.94,25.94,0,0,1-3.8-.534V-26.1a32.265,32.265,0,0,1,3.4-.437q1.843-.146,3.428-.146a23.343,23.343,0,0,1,3.929.307,9.305,9.305,0,0,1,3.088,1.051A5.506,5.506,0,0,1,51.2-23.369a5.72,5.72,0,0,1,.728,2.991,4.747,4.747,0,0,1-2.587,4.236,5.3,5.3,0,0,1,2.91,2.2,6.325,6.325,0,0,1,.776,3.137,6.025,6.025,0,0,1-2.571,5.3Q47.89-3.725,42.813-3.725ZM40.259-13.781v5.788q.55.065,1.2.1t1.423.032a8.738,8.738,0,0,0,3.654-.647,2.4,2.4,0,0,0,1.39-2.393,2.344,2.344,0,0,0-1.164-2.215,6.819,6.819,0,0,0-3.331-.663Zm0-3.848h2.458a6.846,6.846,0,0,0,3.331-.6,2.071,2.071,0,0,0,1-1.924,1.977,1.977,0,0,0-1.035-1.908,6.65,6.65,0,0,0-3.04-.55q-.647,0-1.39.016t-1.326.081ZM73.724-4.016q-.374-1.168-.8-2.4l-.857-2.451H63.31L62.46-6.408q-.426,1.232-.794,2.392H56.427q1.265-3.622,2.4-6.694T61.049-16.5q1.087-2.716,2.141-5.158t2.19-4.77h4.782q1.1,2.328,2.177,4.77T74.5-16.5q1.088,2.716,2.225,5.788t2.4,6.694Zm-6.06-17.332q-.169.488-.494,1.328t-.74,1.941q-.415,1.1-.928,2.425t-1.043,2.777h6.408q-.514-1.458-1-2.786t-.916-2.43q-.434-1.1-.761-1.941T67.664-21.348ZM90.671-7.864a7.276,7.276,0,0,0,1.762-.178,3.249,3.249,0,0,0,1.116-.485,1.623,1.623,0,0,0,.582-.728,2.594,2.594,0,0,0,.162-.938,2.166,2.166,0,0,0-1.035-1.827A14.785,14.785,0,0,0,89.7-13.587q-1.1-.388-2.2-.889a8.1,8.1,0,0,1-1.973-1.261,6.033,6.033,0,0,1-1.423-1.843,5.773,5.773,0,0,1-.55-2.635,6.526,6.526,0,0,1,.582-2.8,5.972,5.972,0,0,1,1.649-2.118,7.547,7.547,0,0,1,2.587-1.342,11.612,11.612,0,0,1,3.428-.469,13.957,13.957,0,0,1,3.913.485,13.981,13.981,0,0,1,2.716,1.067l-1.455,3.977a13.783,13.783,0,0,0-2.086-.857,9.032,9.032,0,0,0-2.765-.372,5.072,5.072,0,0,0-2.6.5,1.691,1.691,0,0,0-.792,1.536,1.774,1.774,0,0,0,.291,1.035,2.829,2.829,0,0,0,.825.76,7.254,7.254,0,0,0,1.229.614q.7.275,1.536.566,1.746.647,3.04,1.277a8.118,8.118,0,0,1,2.15,1.471,5.329,5.329,0,0,1,1.277,1.973,7.925,7.925,0,0,1,.42,2.749,5.837,5.837,0,0,1-2.2,4.867q-2.2,1.73-6.629,1.73a18.366,18.366,0,0,1-2.684-.178,17.322,17.322,0,0,1-2.118-.437,12.148,12.148,0,0,1-1.584-.55,12.03,12.03,0,0,1-1.116-.55l1.423-4.01a12.686,12.686,0,0,0,2.474.986A12.83,12.83,0,0,0,90.671-7.864Zm14.648,3.848V-26.425h15.133v4.236H110.364v4.4h8.957v4.139h-8.957v5.4H121.2v4.236Z" transform="translate(69.57 160.918)" fill="#fff"/><g transform="translate(110.656 65)"><path d="M241.794,18.889v-6.5L264.565,0V6.5Z" transform="translate(-232.969 40.104)" fill="#fff"/><path d="M264.564,554.772v-6.548l-22.771,12.392v6.548Z" transform="translate(-232.969 -528.179)" fill="#fff"/><path d="M267.639,216.581l-25.845,14.1v-6.548l31.6-17.228v43.132l-5.751,3.13Z" transform="translate(-232.97 -201.725)" fill="#fff"/><path d="M241.794,561.266v6.547l22.771-12.392v-6.547Z" transform="translate(-232.969 -528.853)" fill="#fff"/><path d="M0,144.7l5.751-3.129v36.585l25.845-14.1V170.6L0,187.829Z" transform="translate(0 -134.003)" fill="#fff"/><path d="M241.794,1110.213l22.771-12.392v6.534l-22.771,12.392Z" transform="translate(-232.969 -1097.821)" fill="#fff"/></g></g></svg>