<svg xmlns="http://www.w3.org/2000/svg" xmlns:xlink="http://www.w3.org/1999/xlink" width="375" height="301.219" viewBox="0 0 375 301.219"><defs><linearGradient id="a" x1="0.288" y1="0.032" x2="0.412" y2="0.935" gradientUnits="objectBoundingBox"><stop offset="0" stop-color="#2f6de2"/><stop offset="1" stop-color="#569bbf"/></linearGradient><clipPath id="b"><rect width="375" height="300" transform="translate(0 1816)" fill="#fff"/></clipPath><linearGradient id="c" y1="0.81" x2="1" y2="0.21" gradientUnits="objectBoundingBox"><stop offset="0" stop-color="#0f6de8"/><stop offset="1" stop-color="#ae6ec9"/></linearGradient><clipPath id="d"><rect width="191.742" height="200.099" fill="none"/></clipPath><clipPath id="e"><rect width="191.743" height="200.1" fill="none"/></clipPath><clipPath id="f"><rect width="122.859" height="4.809" fill="none"/></clipPath><clipPath id="g"><rect width="45.201" height="4.809" fill="none"/></clipPath><clipPath id="h"><path d="M456.492,1048.671l0,1.151,1.387,0,0-1.151a2.06,2.06,0,0,1,2.065-2.05l2.9.011a2.059,2.059,0,0,1,2.049,2.065l0,1.151,1.386,0,0-1.151a3.448,3.448,0,0,0-3.431-3.457l-2.9-.01h-.014a3.446,3.446,0,0,0-3.443,3.431" transform="translate(-456.488 -1045.24)" fill="none"/></clipPath><linearGradient id="i" x1="-6.912" y1="4.021" x2="-6.897" y2="4.021" gradientUnits="objectBoundingBox"><stop offset="0" stop-color="#144980"/><stop offset="1" stop-color="#001c3b"/></linearGradient><clipPath id="j"><path d="M421.9,1079.812l-.045,12.25a1.617,1.617,0,0,0,1.612,1.624l17.8.066a1.618,1.618,0,0,0,1.624-1.612l.045-12.25a1.618,1.618,0,0,0-1.612-1.624l-17.8-.065h-.006a1.618,1.618,0,0,0-1.618,1.612" transform="translate(-421.855 -1078.2)" fill="none"/></clipPath><linearGradient id="k" x1="-2.575" y1="1.101" x2="-2.568" y2="1.101" gradientUnits="objectBoundingBox"><stop offset="0" stop-color="#4b9ad5"/><stop offset="1" stop-color="#195c9f"/></linearGradient><clipPath id="l"><path d="M418.511,1068.992l-.027,7.319a1.387,1.387,0,0,0,1.382,1.392l19.415.071a1.387,1.387,0,0,0,1.392-1.381l.027-7.32a1.388,1.388,0,0,0-1.382-1.392l-19.415-.071H419.9a1.387,1.387,0,0,0-1.387,1.382" transform="translate(-418.484 -1067.611)" fill="none"/></clipPath><linearGradient id="m" x1="-6.243" y1="1.371" x2="-6.229" y2="1.371" xlink:href="#k"/><clipPath id="n"><path d="M480.232,1121.885l0,1.387a.963.963,0,0,0,1.926.007l.005-1.387a.966.966,0,0,0-.959-.967h0a.966.966,0,0,0-.964.96" transform="translate(-480.227 -1120.926)" fill="none"/></clipPath><linearGradient id="o" x1="-20.989" y1="4.447" x2="-20.945" y2="4.447" xlink:href="#i"/><clipPath id="q"><rect width="108.187" height="108.191" fill="none"/></clipPath><clipPath id="r"><path d="M281.668,2.956,279,13.821a40.13,40.13,0,0,0-13.736,2.135l-5.816-9.6c-1.358-2.233-5.808-2.011-9.942.5s-6.391,6.344-5.028,8.576l5.8,9.593a40.132,40.132,0,0,0-8.234,11.195l-10.879-2.66c-2.531-.634-5.526,2.681-6.668,7.37s-.036,9,2.508,9.634l10.867,2.66A40.094,40.094,0,0,0,240,66.96l-9.6,5.828c-2.228,1.346-2,5.791.5,9.931s6.342,6.389,8.58,5.04l9.6-5.822a39.806,39.806,0,0,0,11.182,8.246l-2.67,10.874c-.611,2.538,2.69,5.524,7.389,6.67s9,.046,9.625-2.5l2.664-10.874a39.767,39.767,0,0,0,13.739-2.131l5.814,9.606c1.357,2.224,5.8,2.011,9.944-.5,4.118-2.508,6.388-6.357,5.036-8.587l-5.819-9.6a39.817,39.817,0,0,0,8.242-11.188l10.876,2.668c2.544.62,5.528-2.683,6.676-7.377s.023-9.008-2.5-9.633l-10.88-2.664a39.889,39.889,0,0,0-2.14-13.741l9.605-5.81c2.226-1.348,2.008-5.8-.5-9.932s-6.343-6.4-8.578-5.046l-9.6,5.815a39.854,39.854,0,0,0-11.181-8.245L298.68,7.122C299.3,4.586,295.993,1.6,291.3.457c-4.7-1.168-9-.042-9.629,2.5m15.877,55.893A19.976,19.976,0,1,1,282.9,34.7a20.017,20.017,0,0,1,14.645,24.152" transform="translate(-224.045 0.004)" fill="none"/></clipPath><clipPath id="s"><rect width="58.653" height="58.655" fill="none"/></clipPath><clipPath id="t"><path d="M394.082,207.83a29.319,29.319,0,1,0-17.069-37.787,29.319,29.319,0,0,0,17.069,37.787m20.048-53.086a27.427,27.427,0,1,1-35.349,15.967,27.427,27.427,0,0,1,35.349-15.967" transform="translate(-375.114 -151.074)" fill="none"/></clipPath><linearGradient id="u" x1="-0.632" y1="2.32" x2="-0.63" y2="2.32" gradientUnits="objectBoundingBox"><stop offset="0" stop-color="#89b8e1"/><stop offset="1" stop-color="#4c91ce"/></linearGradient><clipPath id="v"><path d="M27.671,0H52.6A27.671,27.671,0,0,1,80.273,27.671V117.5A27.671,27.671,0,0,1,52.6,145.174H27.672A27.672,27.672,0,0,1,0,117.5V27.671A27.671,27.671,0,0,1,27.671,0Z" fill="none"/></clipPath><clipPath id="w"><path d="M2.277,0h0A2.277,2.277,0,0,1,4.555,2.277v0A2.277,2.277,0,0,1,2.277,4.555h0A2.277,2.277,0,0,1,0,2.277v0A2.277,2.277,0,0,1,2.277,0Z" fill="none"/></clipPath><linearGradient id="x" x1="-35.906" y1="40.75" x2="-35.87" y2="40.75" gradientUnits="objectBoundingBox"><stop offset="0" stop-color="#cce9fa"/><stop offset="1" stop-color="#93c6eb"/></linearGradient><clipPath id="y"><path d="M2.277,0h0A2.277,2.277,0,0,1,4.554,2.277v0A2.277,2.277,0,0,1,2.277,4.555h0A2.277,2.277,0,0,1,0,2.277v0A2.277,2.277,0,0,1,2.277,0Z" fill="none"/></clipPath><linearGradient id="z" x1="-37.572" y1="40.75" x2="-37.536" y2="40.75" xlink:href="#x"/><clipPath id="aa"><path d="M2.277,0h0A2.277,2.277,0,0,1,4.555,2.277v0A2.277,2.277,0,0,1,2.278,4.555h0A2.277,2.277,0,0,1,0,2.277v0A2.277,2.277,0,0,1,2.277,0Z" fill="none"/></clipPath><linearGradient id="ab" x1="-39.232" y1="40.75" x2="-39.196" y2="40.75" xlink:href="#x"/><clipPath id="ad"><path d="M843.173,780.351h23.868l-7.286-14.231-2.644,5.165-4.649-9.08Z" transform="translate(-843.173 -762.205)" fill="#2a488e"/></clipPath><clipPath id="ae"><path d="M978.657,746.307a2.262,2.262,0,1,0,2.262-2.275,2.268,2.268,0,0,0-2.262,2.275" transform="translate(-978.657 -744.032)" fill="#2a488e"/></clipPath><clipPath id="af"><path d="M707.041,149.144a16.2,16.2,0,0,0,6.428,12.935h0l.027.02c.092.069.186.136.279.2s.2.144.3.215.2.132.294.2.206.134.31.2.2.123.3.183.225.131.339.195c.095.053.188.108.284.159q.273.147.553.283c.094.046.19.09.286.134.142.066.284.131.427.193.1.041.192.079.288.119.13.053.261.105.394.155q.148.056.3.108.205.073.413.14c.094.031.188.062.283.091.167.051.335.1.5.143.068.018.135.039.2.056q.352.09.71.164c.073.015.147.028.22.042.172.033.345.065.519.093.092.015.183.027.275.04q.242.034.485.062c.093.01.186.02.28.029.172.016.345.029.519.04.082,0,.164.011.246.015.255.012.512.02.77.02s.514-.008.77-.02c.082,0,.164-.01.246-.015.174-.011.347-.023.52-.04.093-.009.186-.019.279-.029q.245-.027.488-.062c.091-.013.182-.026.272-.04.176-.028.351-.06.526-.094.071-.014.143-.026.214-.04q.359-.075.713-.164c.064-.016.126-.035.19-.052.174-.047.347-.095.518-.147.092-.028.182-.058.273-.087.142-.046.284-.094.425-.144q.144-.051.287-.1c.137-.051.272-.105.407-.16.092-.038.184-.074.276-.114.152-.065.3-.134.451-.2.07-.033.141-.063.211-.1q.309-.15.611-.313c.09-.049.179-.1.268-.15.119-.067.238-.134.355-.2.1-.058.192-.117.287-.176s.215-.136.321-.206.191-.126.286-.191.208-.147.311-.221.182-.13.271-.2l.029-.021h0a16.23,16.23,0,1,0-26.034-12.934" transform="translate(-707.041 -132.913)" fill="none"/></clipPath><linearGradient id="ag" x1="-3.571" y1="5.493" x2="-3.566" y2="5.493" xlink:href="#k"/><clipPath id="ai"><path d="M774.005,168.789a5.252,5.252,0,1,0,5.252-5.252,5.252,5.252,0,0,0-5.252,5.252" transform="translate(-774.005 -163.537)" fill="none"/></clipPath><linearGradient id="aj" x1="-12.08" y1="16.497" x2="-12.065" y2="16.497" xlink:href="#k"/><clipPath id="ak"><path d="M754.733,234.155l-1.762,6.438a14.4,14.4,0,0,0,17.4,0l-1.761-6.438c-.83-3.005-3.949-4.508-7.036-4.508s-6.142,1.5-6.842,4.508" transform="translate(-752.971 -229.647)" fill="none"/></clipPath><linearGradient id="al" x1="-7.094" y1="11.711" x2="-7.085" y2="11.711" xlink:href="#k"/><clipPath id="an"><path d="M19.116,0H55A19.115,19.115,0,0,1,74.117,19.115v10.8A19.115,19.115,0,0,1,55,49.027H19.115A19.115,19.115,0,0,1,0,29.912v-10.8A19.116,19.116,0,0,1,19.116,0Z" fill="none"/></clipPath><clipPath id="ap"><path d="M772.048,437.108l8.219-4.745-8.219-4.745Z" transform="translate(-772.048 -427.618)" fill="none"/></clipPath><linearGradient id="aq" x1="-15.401" y1="13.698" x2="-15.381" y2="13.698" xlink:href="#k"/><clipPath id="ar"><path d="M7.659,0h4.663a7.659,7.659,0,0,1,7.659,7.659v0a7.659,7.659,0,0,1-7.659,7.659H7.659A7.659,7.659,0,0,1,0,7.66v0A7.659,7.659,0,0,1,7.659,0Z" fill="none"/></clipPath><clipPath id="as"><path d="M7.659,0h4.662a7.659,7.659,0,0,1,7.659,7.659v0a7.659,7.659,0,0,1-7.659,7.659H7.659A7.659,7.659,0,0,1,0,7.66v0A7.659,7.659,0,0,1,7.659,0Z" fill="none"/></clipPath><clipPath id="at"><path d="M7.66,0h4.662a7.66,7.66,0,0,1,7.66,7.66v0a7.659,7.659,0,0,1-7.659,7.659H7.659A7.659,7.659,0,0,1,0,7.66v0A7.66,7.66,0,0,1,7.66,0Z" fill="none"/></clipPath><clipPath id="av"><rect width="0.629" height="34.894" transform="translate(0 0.095) rotate(-8.678)" fill="none"/></clipPath><linearGradient id="aw" x1="-15.361" y1="3.159" x2="-15.333" y2="3.159" xlink:href="#i"/><clipPath id="ax"><path d="M101.914,478.824l-6.28,45.234H168.9l6.28-45.234Z" transform="translate(-95.634 -478.824)" fill="none"/></clipPath><linearGradient id="ay" x1="-0.197" y1="2.688" x2="-0.195" y2="2.688" xlink:href="#i"/><clipPath id="az"><path d="M90.6,478.824l-6.28,45.234h73.271l6.28-45.234Z" transform="translate(-84.322 -478.824)" fill="#c6d4ef"/></clipPath><clipPath id="bb"><rect width="25.043" height="35.083" fill="none"/></clipPath><clipPath id="bc"><rect width="34.847" height="20.704" fill="none"/></clipPath><clipPath id="bd"><path d="M56.805,779.286,51.229,843.7H52.3l7.459-64.413Z" transform="translate(-51.229 -779.286)" fill="none"/></clipPath><linearGradient id="be" x1="-0.984" y1="1.123" x2="-0.965" y2="1.123" gradientUnits="objectBoundingBox"><stop offset="0" stop-color="#8ab9e4"/><stop offset="1" stop-color="#4a93d0"/></linearGradient><clipPath id="bf"><path d="M123.092,779.286l7.459,64.413h1.072l-5.576-64.413Z" transform="translate(-123.092 -779.286)" fill="none"/></clipPath><linearGradient id="bg" x1="-2.365" y1="1.123" x2="-2.346" y2="1.123" xlink:href="#be"/><clipPath id="bh"><path d="M526.379,779.286,520.8,843.7h1.072l7.459-64.413Z" transform="translate(-520.803 -779.286)" fill="none"/></clipPath><linearGradient id="bi" x1="-10.008" y1="1.123" x2="-9.989" y2="1.123" xlink:href="#be"/><clipPath id="bj"><path d="M592.666,779.286l7.459,64.413H601.2l-5.576-64.413Z" transform="translate(-592.666 -779.286)" fill="none"/></clipPath><linearGradient id="bk" x1="-11.389" y1="1.123" x2="-11.37" y2="1.123" xlink:href="#be"/><clipPath id="bl"><rect width="95.51" height="5.462" fill="#2761cc"/></clipPath><clipPath id="bm"><rect width="95.51" height="0.846" fill="none"/></clipPath><linearGradient id="bn" x1="-0.097" y1="84.051" x2="-0.096" y2="84.051" xlink:href="#i"/><clipPath id="bo"><path d="M688.35,950.741l.133-.013.2-.018c.046-.006.09-.014.134-.023l.069-.012.137-.026c.087-.016.174-.031.259-.053l.387-.1c.084-.023.168-.052.251-.08l.132-.046.19-.064.188-.076.13-.051c.082-.033.164-.066.244-.1l.363-.166.36-.182c.084-.042.167-.087.25-.133l.1-.057c.118-.065.234-.131.349-.2.223-.131.453-.276.681-.428.125-.083.242-.163.352-.242,0,.024-.009.047-.015.072l-.01.046-.039.126c-.011.036-.023.072-.033.108-.017.055-.033.108-.051.161a3.827,3.827,0,0,1-.519.946,4.109,4.109,0,0,1-.782.749,5.188,5.188,0,0,1-.946.534,7.1,7.1,0,0,1-1.033.349,9.6,9.6,0,0,1-1.076.206,8.213,8.213,0,0,1-.856.086c0-.116.005-.235.01-.355l.029-.939.134,0h.055a2.121,2.121,0,0,0,.217-.016m-.976,1.31a4.43,4.43,0,0,1-.772-.1,3.26,3.26,0,0,1-.99-.4,2.506,2.506,0,0,1-.771-.731,2.729,2.729,0,0,1-.409-1,4.28,4.28,0,0,1-.057-1.105,5.551,5.551,0,0,1,.2-1.1c.035-.126.075-.252.116-.374a1.621,1.621,0,0,0,.113.525,3.142,3.142,0,0,0,.276.539,6.279,6.279,0,0,0,.732.934,10.038,10.038,0,0,0,.847.815c.16.134.309.254.459.367.079.059.158.117.241.171.042.029.084.056.128.082.022.013.046.027.071.04l.046.021.03.009.011,0-.015.941c0,.125,0,.247,0,.367-.084,0-.167,0-.248,0m.713-1.573-.134-.006.07-2.3.09-1.6.008,0c.061-.019.119-.04.176-.062l.1-.034a1.807,1.807,0,0,0,.174-.072c.029-.013.059-.027.089-.039.078-.032.161-.072.26-.124L689,946.2c.057-.027.113-.055.168-.088l.336-.188c.131-.078.266-.158.4-.242.3-.192.61-.4.935-.637.286-.208.538-.4.77-.587.019.058.037.116.059.174a3.166,3.166,0,0,0,.262.547,4.34,4.34,0,0,0,.344.491l.195.223.193.2a5.883,5.883,0,0,1,.471.97,3.027,3.027,0,0,1,.195,1.056,2.809,2.809,0,0,1-.026.344c-.145.1-.3.2-.47.309-.23.146-.46.283-.683.407-.115.066-.231.13-.348.188l-.108.057c-.081.042-.161.085-.244.122l-.36.172-.362.157c-.078.034-.156.064-.234.093l-.133.051-.184.07-.185.059c-.044.013-.089.028-.134.043-.08.025-.158.052-.239.071l-.382.1c-.08.018-.162.031-.244.044-.046.007-.093.015-.138.024l-.068.01c-.041.007-.081.014-.122.019l-.193.014c-.043,0-.089.005-.134.01s-.115.01-.17.01a.691.691,0,0,1-.074,0m-3.129-3.916a5.046,5.046,0,0,0,.188-1.251c-.016-.188-.028-.37-.04-.555-.021-.321-.042-.653-.085-.979a5.013,5.013,0,0,0-.114-.619c.056.1.112.192.165.282.217.356.477.775.757,1.181s.558.77.85,1.116c.126.148.3.341.481.519a2.787,2.787,0,0,0,.277.236l.022.016a.691.691,0,0,0,.318.136l-.086,1.521c-.015.37-.021.734-.026,1.086l-.018,1.184-.019-.011c-.037-.023-.074-.048-.112-.076-.077-.053-.152-.111-.227-.17-.139-.107-.284-.226-.441-.362-.276-.234-.559-.5-.841-.778a7.4,7.4,0,0,1-.742-.868,3.382,3.382,0,0,1-.29-.485,1.35,1.35,0,0,1-.147-.531.079.079,0,0,0-.067-.069.064.064,0,0,0-.021,0q.1-.272.218-.527m3.251-1.7.276-3.127.008-.056.18-.036c.095-.019.187-.045.279-.072.05-.014.1-.029.148-.041.107-.027.211-.063.313-.1l.108-.037c.149-.05.283-.1.416-.152l.142-.057c.089-.035.177-.07.264-.107l.4-.178c.088-.039.174-.079.259-.121.047-.023.092-.046.138-.067.133-.064.265-.128.4-.2.262-.133.523-.276.774-.415.284-.162.52-.3.761-.442.42-.253.8-.49,1.144-.719-.005.01-.009.021-.014.031a1.9,1.9,0,0,1-.318.439l-.411.409a11.525,11.525,0,0,0-.782.884c-.124.157-.243.317-.352.479-.134.2-.231.356-.315.51a4.872,4.872,0,0,0-.262.544,4.246,4.246,0,0,0-.19.576,3.577,3.577,0,0,0-.092.61,2.883,2.883,0,0,0,.029.616,2.6,2.6,0,0,0,.051.266c-.247.188-.516.385-.824.6-.328.226-.635.424-.942.606-.12.073-.242.142-.364.211l-.119.069-.245.128c-.053.029-.107.055-.161.08l-.088.042c-.1.047-.175.083-.249.112l-.092.038a1.7,1.7,0,0,1-.161.063l-.1.033c-.031.012-.062.022-.094.031Zm-.623,1.417a2.454,2.454,0,0,1-.244-.219c-.172-.175-.33-.364-.448-.51-.279-.347-.545-.719-.8-1.078l-.021-.03c-.232-.329-.521-.739-.786-1.141s-.518-.783-.756-1.169a.053.053,0,0,0-.02-.018l-.138-.377c-.127-.344-.254-.688-.376-1.035a6.83,6.83,0,0,1-.374-1.653,2.969,2.969,0,0,1,.321-1.627,2.4,2.4,0,0,1,.155-.266l.064-.1.081-.105c.058-.075.116-.151.177-.224l.335-.415.014.265a1.834,1.834,0,0,0,.038.319c.006.035.013.07.018.106l.011.062a2.464,2.464,0,0,0,.083.359l.041.137c.026.089.052.178.082.265l.16.395a2.218,2.218,0,0,0,.12.251c.023.042.046.086.067.13l.1.188.11.183c.027.042.052.083.077.125.047.077.1.158.149.233l.242.339.262.329c.059.076.125.149.189.219l.087.1c.07.081.145.157.22.234l.068.069c.169.174.362.354.607.57.2.171.414.35.654.52a.124.124,0,0,0,.036.018l-.3,3.115-.089,1.552a.617.617,0,0,1-.206-.113m1.122-6.285c.019-.136.036-.274.053-.411.039-.319.081-.649.141-.966l.232-1.357q.02-.117.04-.237c.014-.085.03-.171.046-.256a3.285,3.285,0,0,0,.7-.208c.087-.034.173-.074.255-.113.044-.021.088-.042.133-.062l.369-.193c.246-.138.472-.273.675-.4.187-.121.378-.249.582-.391.476-.336.835-.617,1.018-.764l.043.127.046.106c.028.067.057.132.087.2l.15.291.16.282.488.825.147.279.129.283.1.292.073.3.038.368a1.728,1.728,0,0,1,0,.211,1.982,1.982,0,0,1-.035.268,1.911,1.911,0,0,1-.064.23c-.4.259-.836.525-1.336.811-.245.143-.491.277-.764.424-.246.13-.508.266-.776.4-.13.066-.261.128-.392.188l-.141.065c-.085.04-.168.079-.255.116l-.4.17c-.085.036-.173.068-.26.1l-.144.054c-.128.051-.255.094-.406.142l-.108.036c-.1.032-.2.067-.3.089l-.151.039c-.088.023-.176.047-.266.065l-.1.017Zm-1.032.976c-.214-.194-.4-.379-.583-.566l-.067-.07c-.071-.074-.141-.148-.208-.226-.036-.042-.072-.082-.109-.123-.054-.06-.108-.121-.158-.184l-.258-.318-.239-.328c-.053-.069-.1-.142-.146-.214-.026-.041-.053-.084-.081-.124l-.11-.172-.1-.176c-.021-.042-.046-.084-.07-.128a1.869,1.869,0,0,1-.117-.228l-.172-.377c-.03-.078-.059-.162-.087-.244l-.048-.141a1.875,1.875,0,0,1-.086-.3l-.022-.1c-.008-.035-.017-.069-.026-.1a1.713,1.713,0,0,1-.055-.292l-.05-.414.073-.089a16.89,16.89,0,0,0,1.017-1.4,8.636,8.636,0,0,0,.8-1.547c.016-.039.03-.078.044-.117.01.052.022.111.039.178.031.133.073.285.126.448s.116.36.2.568.179.443.274.656.206.434.356.708a5.71,5.71,0,0,0,.47.715,2.489,2.489,0,0,0,.309.331,1.12,1.12,0,0,0,.2.137.556.556,0,0,0,.15.05c-.012.065-.024.13-.036.195s-.027.154-.041.232l-.241,1.356c-.064.324-.108.659-.151.983-.017.134-.035.27-.055.4l-.2,1.473c-.2-.156-.4-.325-.545-.458m1.989-6.29c.063-.255.131-.507.2-.757.039-.148.079-.295.117-.44l.153-.576c.033-.12.071-.237.109-.354.021-.065.043-.13.063-.2l.182-.562.208,0a1.821,1.821,0,0,0,.185-.014c.031,0,.063-.007.095-.01a2.617,2.617,0,0,0,.281-.039l.088-.015c.063-.01.126-.021.189-.036l.268-.061.269-.074c.074-.018.146-.041.219-.065l.12-.039c.065-.02.13-.04.193-.065.3-.1.62-.227,1.03-.407.253-.113.481-.22.695-.327a9.341,9.341,0,0,1-.516.939c-.076.124-.154.248-.232.372-.225.358-.458.729-.654,1.118a.067.067,0,0,0-.008.017l-.081.332c-.012.08-.017.155-.022.23l-.009.112c0,.083.007.158.012.233,0,.036.006.073.007.11.02.1.04.2.06.3l.008.034.016.046c-.172.13-.554.413-1.071.755-.209.136-.4.258-.586.369-.242.145-.461.269-.67.38l-.364.18c-.042.017-.088.037-.133.058-.079.035-.161.072-.243.1a3.234,3.234,0,0,1-.567.166Zm-.689,1.838a.2.2,0,0,1-.04-.015l-.028-.013a.871.871,0,0,1-.142-.1,2.138,2.138,0,0,1-.263-.3,5.927,5.927,0,0,1-.433-.688c-.119-.209-.224-.416-.326-.617l-.034-.067c-.1-.2-.2-.414-.293-.629L687.38,934c-.07-.164-.136-.315-.19-.454-.063-.163-.115-.307-.157-.425a2.68,2.68,0,0,1-.106-.374.059.059,0,0,0-.012-.025c.044-.138.086-.284.127-.44.029-.121.054-.24.079-.358.034-.161.069-.326.111-.486a5.851,5.851,0,0,1,.266-.8,6.984,6.984,0,0,1,.383-.757,6.262,6.262,0,0,1,1.034-1.327c.136-.131.28-.252.427-.368-.014.067-.024.136-.031.2,0,.035-.006.06-.009.086a1.289,1.289,0,0,0-.014.183l0,.252c0,.064.006.128.012.193l0,.066a2.454,2.454,0,0,0,.034.258c.006.029.01.058.015.088.01.055.018.11.032.165l.058.245c.052.187.1.344.159.488a4.969,4.969,0,0,0,.2.465c.072.149.151.3.238.446s.158.261.24.379l-.2.592-.063.192c-.041.119-.081.239-.115.363l-.159.577c-.035.131-.071.26-.108.392-.072.266-.148.536-.217.813l-.426,1.9-.016-.005m1.716-4.992h-.119l.069-.213.126-.333c.2-.521.384-1.013.587-1.436l.171-.381.175-.337c.035-.066.069-.132.1-.2.074-.142.143-.276.218-.392.04-.064.076-.125.111-.184.061-.1.118-.2.174-.278l.1-.136c.049-.073.095-.136.136-.191l.212-.251a3.107,3.107,0,0,1,.691.2,1.981,1.981,0,0,1,1.138,1.062c.009.035.023.079.037.121a.989.989,0,0,1,.06.26l.027.209,0,.207a3.178,3.178,0,0,1-.148.812c-.038.121-.082.239-.131.357-.259.125-.541.249-.859.378-.169.068-.34.132-.512.194s-.327.115-.517.175c-.063.021-.125.039-.187.057l-.119.034c-.071.021-.142.042-.214.058l-.266.066-.265.053a1.692,1.692,0,0,1-.176.029l-.089.013a2.419,2.419,0,0,1-.264.031c-.032,0-.065,0-.1.007-.048,0-.1.009-.145.009h-.021m-.627-.792c-.027-.056-.051-.112-.075-.169l-.022-.052c-.032-.074-.063-.148-.092-.223l-.019-.051c-.022-.058-.045-.116-.063-.175l-.078-.234-.066-.233c-.014-.049-.025-.1-.035-.148-.006-.029-.012-.058-.02-.087a2.094,2.094,0,0,1-.04-.234c0-.034-.01-.068-.015-.1a1.241,1.241,0,0,1-.018-.14l-.017-.246a1.047,1.047,0,0,1,0-.143.925.925,0,0,0,0-.1,1.613,1.613,0,0,1,.013-.236l.015-.133a5.443,5.443,0,0,1,.737-.446,4.428,4.428,0,0,1,.769-.3,4.243,4.243,0,0,1,.8-.126,3.636,3.636,0,0,1,.682.014l-.134.163c-.044.058-.091.123-.142.2l-.1.136c-.061.086-.122.183-.184.288-.035.057-.072.117-.111.179-.08.122-.153.26-.23.406-.033.063-.067.127-.1.193l-.232.45-.126.274c-.21.427-.4.923-.607,1.449l-.13.335-.041.124a7.022,7.022,0,0,1-.325-.626m1.769-3.814a4.408,4.408,0,0,0-.851.138,4.558,4.558,0,0,0-.806.322,5.637,5.637,0,0,0-1.408,1.007,6.424,6.424,0,0,0-1.068,1.378,7.135,7.135,0,0,0-.394.784,6.106,6.106,0,0,0-.271.837c-.043.165-.077.334-.111.5-.024.118-.048.234-.074.35a6.669,6.669,0,0,1-.254.81,8.478,8.478,0,0,1-.773,1.517,16.6,16.6,0,0,1-1,1.391l-.536.671c-.062.074-.122.153-.183.232l-.082.11-.065.1a2.524,2.524,0,0,0-.164.282,3.157,3.157,0,0,0-.334,1.716,6.973,6.973,0,0,0,.386,1.694c.123.348.251.692.379,1.037q.107.286.213.575a3.839,3.839,0,0,1,.438,1.431c.042.321.064.651.086.97.012.184.025.367.04.551a4.982,4.982,0,0,1-.186,1.183,6.769,6.769,0,0,0-.4,1.068,5.691,5.691,0,0,0-.212,1.134,4.457,4.457,0,0,0,.049,1.156,2.905,2.905,0,0,0,.429,1.076,2.7,2.7,0,0,0,.825.8,3.425,3.425,0,0,0,1.047.433,4.719,4.719,0,0,0,.863.116c.068,0,.138,0,.208,0,0,.148,0,.29.007.418l.014.912c0,.352.01.672.016.965l-.032,1.591.3-.045-.026-1.552c0-.293,0-.613,0-.963V952.7c0-.131,0-.271,0-.417a8.614,8.614,0,0,0,.889-.08,8.165,8.165,0,0,0,2.176-.551,5.465,5.465,0,0,0,1-.553,4.418,4.418,0,0,0,.846-.8,4.144,4.144,0,0,0,.577-1.03c.022-.065.042-.128.061-.193l.079-.274c.009-.033.016-.067.023-.1a3.022,3.022,0,0,0,.06-.593,3.3,3.3,0,0,0-.213-1.161,6.116,6.116,0,0,0-.5-1.034.188.188,0,0,0-.022-.028l-.2-.2-.184-.211a4.131,4.131,0,0,1-.317-.454,3.068,3.068,0,0,1-.24-.5,2.614,2.614,0,0,1-.137-.533,2.583,2.583,0,0,1-.026-.555,3.217,3.217,0,0,1,.083-.553,3.909,3.909,0,0,1,.176-.533,4.53,4.53,0,0,1,.247-.513,8.735,8.735,0,0,1,1.394-1.815l.41-.41a2.226,2.226,0,0,0,.365-.507,2.167,2.167,0,0,0,.21-.589,2.31,2.31,0,0,0,.038-.315,2.135,2.135,0,0,0-.01-.282l0-.025h0v-.008a.031.031,0,0,1,0-.006l-.037-.32-.081-.329-.114-.316-.138-.3-.154-.289-.162-.281-.489-.823-.145-.278-.125-.286-.1-.292-.062-.3c0-.029,0-.067-.007-.105-.005-.065-.011-.13-.012-.2,0-.031.006-.069.009-.109,0-.064.009-.129.018-.192l.069-.288c.187-.372.414-.735.632-1.086q.117-.188.232-.376a7.151,7.151,0,0,0,.768-1.575,3.423,3.423,0,0,0,.157-.884v-.218l-.029-.232a1.225,1.225,0,0,0-.073-.313c-.013-.041-.026-.082-.039-.124a2.2,2.2,0,0,0-1.272-1.2,3.694,3.694,0,0,0-.832-.224c-.166-.018-.3-.029-.423-.034q-.095,0-.183,0c-.09,0-.175,0-.258.011" transform="translate(-683.453 -926.909)" fill="none"/></clipPath><linearGradient id="bp" x1="-6.27" y1="1.58" x2="-6.26" y2="1.58" xlink:href="#i"/><clipPath id="bq"><path d="M715.412,941.217q-.575.6-1.112,1.2a7.306,7.306,0,0,0-1.633-3.438c.316.729.292,2.181,1.322,3.788q-.762.867-1.444,1.719a7.44,7.44,0,0,0-2.411-3.922c.5.8.707,2.524,2.186,4.205q-.808,1.022-1.509,2.024a9.5,9.5,0,0,0-3.03-4.823c.627.983.921,3.1,2.783,5.182q-.806,1.176-1.474,2.314a11.13,11.13,0,0,0-3.522-5.536c.731,1.139,1.089,3.578,3.253,6-.509.892-.957,1.763-1.352,2.612a.229.229,0,0,1,.071-.2,11.558,11.558,0,0,0-4.694-5.247c.967,1.06,1.766,3.585,4.5,5.706a32.383,32.383,0,0,0-1.235,3.12,15.451,15.451,0,0,0-5.385-5.551c1.113,1.135,2.182,3.659,5.229,6.027a28.326,28.326,0,0,0-.874,3.487,15.138,15.138,0,0,0-5.24-4.514c1.086.93,2.27,3.021,5.165,4.947a24.556,24.556,0,0,0-.321,3.139,15.582,15.582,0,0,0-4.543-3.3,32.519,32.519,0,0,0,4.524,3.638.242.242,0,0,0-.014.068h.022a18.818,18.818,0,0,0,.139,2.737l.077-.012a23.308,23.308,0,0,1,.031-2.726c2.123-.029,3.574-1.288,4.475-1.482a5.841,5.841,0,0,0-4.434.968,26.3,26.3,0,0,1,.434-2.939c3.167.15,5.24-1.047,6.558-1.186a11.171,11.171,0,0,0-6.459.717,31.135,31.135,0,0,1,.94-3.333c3.147.394,5.316-.628,6.647-.659a11.24,11.24,0,0,0-6.473.16c.368-1.025.779-2.021,1.22-2.982a13.421,13.421,0,0,0,4.868.153,10.95,10.95,0,0,1,1.885-.144,11.277,11.277,0,0,0-6.545-.453c.413-.87.848-1.709,1.3-2.513a13.149,13.149,0,0,0,4.591.289,9.807,9.807,0,0,1,1.726-.056,10.731,10.731,0,0,0-6.037-.729c.458-.8.925-1.56,1.391-2.28a11.206,11.206,0,0,0,4.043.279,8.442,8.442,0,0,1,1.474-.047,9.224,9.224,0,0,0-5.271-.607c.446-.676.889-1.313,1.319-1.908a10.4,10.4,0,0,0,3.649.236,7.759,7.759,0,0,1,1.36-.043,8.444,8.444,0,0,0-4.726-.58c.474-.644.931-1.232,1.354-1.76a8.816,8.816,0,0,0,3.23-.088,8.264,8.264,0,0,1,1.356-.2,8.513,8.513,0,0,0-4.185-.205c.431-.524.817-.974,1.144-1.346,1.682-.645,2.071-2.057,2.621-2.494a4.046,4.046,0,0,0-2.962,2.584" transform="translate(-699.845 -938.633)" fill="none"/></clipPath><linearGradient id="br" x1="-3.231" y1="1.475" x2="-3.226" y2="1.475" xlink:href="#be"/><clipPath id="bs"><path d="M640.99,1000.876a5.028,5.028,0,0,1-1.252-.445,6.339,6.339,0,0,1-1.119-.724q-.243-.195-.466-.4a1.357,1.357,0,0,0,.107-.124c.025-.032.049-.064.078-.1.078-.1.152-.18.227-.258a3.771,3.771,0,0,1,.51-.455,3.561,3.561,0,0,1,.583-.351c.1-.049.211-.092.313-.129a3.234,3.234,0,0,1,.324-.1,3.859,3.859,0,0,1,1.348-.09c.1.007.2.023.3.038l.042.007c.073.009.147.026.218.04l.114.025c.071.016.141.036.21.055l.119.032.277.089c.007.022.014.043.02.064l.186.631c.164.566.307,1.143.433,1.723l-.022.017a3.162,3.162,0,0,1-1.226.486,3.344,3.344,0,0,1-.561.047,3.815,3.815,0,0,1-.759-.079m2.491-2.3-.194-.633c0-.013-.009-.027-.013-.041.084-.043.169-.088.258-.142.132-.078.269-.169.435-.289.147-.113.277-.223.4-.333.048-.041.092-.087.135-.13l.051-.053c.061-.061.117-.125.174-.192.089-.1.169-.205.246-.308l.078-.1.05-.077a3.562,3.562,0,0,0,.217-.365,3.838,3.838,0,0,0,.221-.466c.033-.077.061-.157.086-.236,0,.048.008.093.011.141a8.181,8.181,0,0,1-.073,1.43,7.261,7.261,0,0,1-.35,1.386,5,5,0,0,1-1.319,1.979c-.123-.548-.256-1.068-.408-1.565m-5.833.214a8.564,8.564,0,0,1-.819-1.054,9.327,9.327,0,0,1-.667-1.157c-.056-.109-.107-.222-.157-.335a5.248,5.248,0,0,1,.512-.355c.074-.048.152-.091.228-.133.044-.023.088-.048.129-.071.078-.042.157-.08.237-.119l.131-.064.381-.158c.083-.032.168-.059.251-.086l.141-.047a2.32,2.32,0,0,1,.25-.068c.049-.012.1-.023.148-.036a2.994,2.994,0,0,1,.4-.078l.1-.015a2.328,2.328,0,0,1,.31-.035l.407-.023.415.018a1.969,1.969,0,0,1,.31.034l.089.015q.073.013.146.023a1.73,1.73,0,0,1,.254.05l.4.111a1.831,1.831,0,0,1,.293.1l.086.036.353.144c.105.239.2.469.294.7l.247.615.219.626c.025.075.052.149.078.224l.009.027-.1-.03-.12-.028c-.074-.018-.149-.036-.227-.052l-.126-.024c-.073-.014-.149-.029-.223-.037l-.039,0c-.1-.014-.209-.028-.315-.034a4.145,4.145,0,0,0-1.418.128c-.1.03-.211.064-.341.114a3.489,3.489,0,0,0-.325.147,3.709,3.709,0,0,0-.6.386,3.947,3.947,0,0,0-.514.489c-.074.083-.147.172-.224.271q-.04.049-.077.1a1.479,1.479,0,0,1-.095.118c-.148-.142-.29-.287-.421-.436m-1.99-3.445a10.565,10.565,0,0,1-.33-1.294c-.035-.155-.055-.315-.075-.47-.008-.063-.017-.125-.025-.188-.025-.238-.043-.455-.053-.662,0-.051,0-.1,0-.15a4.52,4.52,0,0,1,.547-.259c.1-.039.223-.084.344-.123l.128-.038c.074-.023.15-.046.224-.062l.13-.029c.075-.018.152-.036.228-.048.045-.006.089-.012.132-.02l.19-.028.405-.031c.077,0,.156,0,.233,0,.044,0,.088,0,.134,0a2.461,2.461,0,0,1,.3.018l.056.005.117.012a1.583,1.583,0,0,1,.244.034l.36.068c.075.016.151.039.223.061l.126.037.07.02a1.886,1.886,0,0,1,.273.095l.342.139a1.365,1.365,0,0,1,.209.1c.038.021.076.043.113.061l.207.11c.225.376.436.748.626,1.092.26.5.479.934.669,1.346l-.1-.038-.088-.033a1.98,1.98,0,0,0-.317-.1l-.408-.1a1.758,1.758,0,0,0-.277-.046l-.147-.021-.091-.012a2.091,2.091,0,0,0-.334-.03l-.426-.011-.419.032a2.32,2.32,0,0,0-.327.043l-.1.017a3.121,3.121,0,0,0-.414.09l-.139.037a2.479,2.479,0,0,0-.267.08l-.139.051c-.085.03-.171.061-.257.1l-.386.172-.132.07c-.08.04-.161.083-.241.127l-.127.077c-.077.045-.157.091-.231.142a5.86,5.86,0,0,0-.486.355c-.111-.263-.209-.528-.3-.783m7.488,2.187c-.028-.074-.055-.149-.081-.225l-.229-.633-.255-.62c-.088-.217-.185-.439-.289-.669l.019-.013.039-.028.091-.067c.063-.048.126-.1.184-.148a5.916,5.916,0,0,0,.452-.415,6.031,6.031,0,0,0,.411-.453l.011-.015c.061-.072.124-.148.179-.228.02-.029.04-.058.061-.086.039-.054.078-.108.115-.165l.162-.258c.035-.057.066-.117.1-.176l.049-.093a2.19,2.19,0,0,0,.134-.282c.012-.032.026-.065.041-.1a1.908,1.908,0,0,0,.073-.187l.093-.289a1.821,1.821,0,0,0,.051-.212c.006-.029.012-.059.018-.088a1.879,1.879,0,0,0,.049-.305l.008-.077c.035.067.07.134.1.2l.154.321.137.335c.066.148.118.306.168.458.023.072.047.144.071.214l.026.093c.056.2.113.4.155.6a8.235,8.235,0,0,1,.153.98l0,0c-.031.062-.059.125-.086.188-.042.094-.08.181-.129.268l-.119.221c-.025.046-.054.091-.082.134l-.048.077-.012.02a2.161,2.161,0,0,1-.126.184l-.144.2-.08.1c-.077.093-.156.191-.25.285-.053.056-.107.116-.166.168l-.077.074c-.035.033-.068.065-.1.1-.118.105-.242.208-.381.313-.119.088-.26.19-.406.279-.07.044-.137.084-.2.119l-.038-.1m-1.723-3.893c-.175-.309-.367-.642-.57-.98l.118-.142c.06-.07.119-.143.176-.217.117-.151.228-.3.329-.455a5.587,5.587,0,0,0,.52-1,4.381,4.381,0,0,0,.291-1.087,3.587,3.587,0,0,0,.037-.562c0-.092-.006-.187-.014-.279a1.43,1.43,0,0,0-.018-.151c.107.094.215.186.318.283a11.073,11.073,0,0,1,.971,1.051c.1.126.2.259.293.387.046.063.091.125.135.184s.093.145.14.215c.083.126.169.257.244.39.031.057.063.113.094.169.014.023.027.047.041.072l-.05.245a1.772,1.772,0,0,1-.071.281c-.013.038-.024.078-.035.115-.017.058-.032.112-.053.165l-.109.276a1.538,1.538,0,0,1-.078.167c-.017.033-.033.064-.049.1a2.733,2.733,0,0,1-.137.257l-.052.091c-.031.055-.063.11-.1.162l-.166.244c-.035.051-.074.1-.113.149l-.065.085c-.041.056-.085.108-.13.159l-.056.068c-.136.165-.284.317-.4.432-.158.16-.295.288-.429.4-.056.05-.115.1-.173.145l-.093.071c-.213-.455-.459-.942-.75-1.489m-6.247-2.241.035-1.366c.01-.479.013-.934-.013-1.376a4.725,4.725,0,0,1,.629.032,5.434,5.434,0,0,1,.816.155c.063.015.126.034.2.055.024.009.048.015.072.022.042.012.084.026.126.041l.2.071c.04.014.081.031.12.05l.068.028a.725.725,0,0,0,.069.029c.04.018.08.033.119.055l.186.093c.082.041.163.089.24.135l.121.071a.178.178,0,0,0,.032.012.123.123,0,0,0,.047,0h0c.048.059.1.115.145.175.176.211.343.428.52.659l.2.26c.074.1.15.209.227.315.161.22.327.449.481.687.15.218.3.444.439.671a1.134,1.134,0,0,0-.173-.075l-.35-.134a2.209,2.209,0,0,0-.3-.095l-.07-.018c-.042-.011-.085-.022-.127-.035-.077-.022-.158-.045-.24-.06l-.369-.062a1.746,1.746,0,0,0-.263-.031l-.116-.008-.057,0a2.452,2.452,0,0,0-.321-.011l-.132,0c-.081,0-.164,0-.247.007l-.374.039c-.081.011-.16.027-.241.042l-.129.024c-.081.014-.161.036-.238.056-.043.011-.085.023-.128.032-.079.021-.157.047-.233.072-.041.015-.082.028-.127.042-.125.045-.247.095-.35.137a4.928,4.928,0,0,0-.5.248c0-.345,0-.688.006-1.046m4.886.038c-.158-.241-.329-.472-.493-.693-.077-.1-.154-.208-.231-.315l-.195-.248c-.185-.236-.359-.461-.544-.676-.073-.088-.146-.173-.219-.259a7.544,7.544,0,0,0,.214-1.451c.005-.15,0-.3,0-.413,0-.046,0-.092-.009-.137,0-.024,0-.047-.005-.07a1.448,1.448,0,0,0-.026-.212c0-.022-.008-.043-.011-.064a.972.972,0,0,0-.028-.142c-.006-.022-.012-.045-.018-.068-.011-.045-.022-.09-.038-.136l-.06-.146c.182.076.363.153.54.23l.749.36c.136.072.269.147.4.222l.225.126a13.38,13.38,0,0,1,1.2.788c.223.165.439.34.649.519v0a4.434,4.434,0,0,1-.085,1.074,5.244,5.244,0,0,1-.138.518,4.7,4.7,0,0,1-.191.5,6.748,6.748,0,0,1-.518.941c-.092.145-.2.293-.306.443l-.221.282c-.2-.328-.416-.657-.638-.973m-5.077-4.132a5.329,5.329,0,0,0-.548-1.269c-.089-.158-.187-.309-.287-.455.126.094.27.2.431.331.331.26.691.562,1.07.9.364.321.778.723,1.306,1.258.29.308.593.636.9.984l-.148-.068c-.042-.02-.087-.037-.131-.055-.023-.008-.046-.016-.07-.027l-.068-.025c-.044-.019-.088-.036-.133-.05l-.2-.065c-.044-.016-.09-.027-.135-.04l-.08-.02c-.067-.018-.133-.037-.2-.049a5.5,5.5,0,0,0-.846-.121,5.164,5.164,0,0,0-.652,0,6.331,6.331,0,0,0-.2-1.228m2.157.588c-.541-.539-.965-.939-1.333-1.258-.388-.339-.755-.643-1.091-.9s-.577-.43-.75-.549a22.924,22.924,0,0,1,2.376.517c.489.136.937.278,1.37.434.165.058.329.122.493.189l.032.082.046.192c.008.041.014.081.019.121,0,.025.007.049.01.074a.73.73,0,0,1,.011.127c0,.022,0,.045,0,.065a5.376,5.376,0,0,1-.017.79c-.008.114-.019.24-.037.4l-.014.125c-.011.091-.021.182-.033.272-.02.154-.042.291-.064.423-.347-.393-.691-.759-1.021-1.1m-3.546-3.022-.028,0a.127.127,0,0,0-.118.2l.019.024-.008.012.019,0a8.683,8.683,0,0,1,.73,1.056,5.134,5.134,0,0,1,.515,1.211,6.271,6.271,0,0,1,.194,1.308c.022.387.016.785.01,1.168l-.038,1.527c-.009.444-.02.9,0,1.36a9.666,9.666,0,0,0,.158,1.365,9.835,9.835,0,0,0,.343,1.329,9.478,9.478,0,0,0,3.109,4.425,5.94,5.94,0,0,0,2.463,1.157,3.788,3.788,0,0,0,1.217.042c.051-.006.1-.015.152-.023a3.263,3.263,0,0,0,1.253-.51c.045.216.09.433.129.649.061.273.1.551.136.82.018.13.036.259.056.386.05.3.08.607.108.9l.083.822c.01.117.015.235.02.35,0,.066.005.13.009.193,0,.108.01.213.016.319q.178.02.355.042c0-.125-.009-.25-.012-.377l-.007-.191c0-.12-.007-.241-.015-.364l-.055-.649c-.03-.358-.06-.727-.122-1.1-.021-.127-.039-.255-.056-.384-.039-.275-.078-.559-.14-.839s-.11-.56-.169-.83a4.3,4.3,0,0,0,.719-.78,5.783,5.783,0,0,0,.688-1.285,7.319,7.319,0,0,0,.362-1.41,8.276,8.276,0,0,0,.081-1.455,8.933,8.933,0,0,0-.178-1.444c-.041-.207-.1-.413-.152-.612l-.026-.1c-.024-.071-.047-.143-.069-.215a4.982,4.982,0,0,0-.168-.473l-.134-.341-.155-.326a5.242,5.242,0,0,0-.246-.479l-.093-.168c-.076-.139-.163-.273-.247-.4-.046-.071-.093-.143-.14-.219l-.112-.156c-.1-.142-.209-.289-.321-.43a11.39,11.39,0,0,0-.982-1.075,11.944,11.944,0,0,0-1.112-.942,13.481,13.481,0,0,0-1.213-.807l-.222-.126c-.136-.077-.274-.155-.413-.23l-.652-.322-.1-.045c-.4-.177-.82-.361-1.241-.513s-.889-.306-1.384-.446a23.571,23.571,0,0,0-2.789-.6l-.014-.017Z" transform="translate(-633.424 -984.857)" fill="none"/></clipPath><linearGradient id="bt" x1="-6.881" y1="1.822" x2="-6.87" y2="1.822" gradientUnits="objectBoundingBox"><stop offset="0" stop-color="#d7edfb"/><stop offset="1" stop-color="#a5cced"/></linearGradient><clipPath id="bu"><path d="M673.965,1098.322l1.674,10.95a.86.86,0,0,0,.877.685h7.705a.859.859,0,0,0,.88-.7l1.436-10.656a.826.826,0,0,0-.853-.887l-10.816-.295h-.028a.829.829,0,0,0-.877.9" transform="translate(-673.957 -1097.421)" fill="none"/></clipPath><linearGradient id="bv" x1="-8.689" y1="1.61" x2="-8.676" y2="1.61" xlink:href="#be"/><clipPath id="bw"><path d="M672.733,1096.114a.434.434,0,0,0-.428.437v.848a.434.434,0,0,0,.428.437h12.319a.434.434,0,0,0,.428-.437v-.848a.434.434,0,0,0-.428-.437Z" transform="translate(-672.305 -1096.114)" fill="none"/></clipPath><linearGradient id="bx" x1="-8.366" y1="11.843" x2="-8.354" y2="11.843" xlink:href="#x"/><clipPath id="by"><path d="M666.84,1090.387a.4.4,0,0,0-.392.4v.277a.4.4,0,0,0,.392.4h14.243a.4.4,0,0,0,.392-.4v-.276a.4.4,0,0,0-.392-.4Z" transform="translate(-666.448 -1090.387)" fill="none"/></clipPath><linearGradient id="bz" x1="-7.271" y1="19.773" x2="-7.26" y2="19.773" xlink:href="#i"/><clipPath id="ca"><path d="M412.6,504.94l.241.082,11.849,4.023,2.277.048-1.862-1.348-12.064-4.1Z" transform="translate(-412.605 -503.649)" fill="none"/></clipPath><linearGradient id="cb" x1="-4.693" y1="8.979" x2="-4.681" y2="8.979" gradientUnits="objectBoundingBox"><stop offset="0" stop-color="#d4adb5"/><stop offset="1" stop-color="#ce8f9b"/></linearGradient><clipPath id="cc"><path d="M412.654,509.637l12.09,4.113a.226.226,0,0,1,.112-.358l-12.081-4.111Z" transform="translate(-412.654 -509.281)" fill="none"/></clipPath><linearGradient id="cd" x1="-5.577" y1="10.548" x2="-5.563" y2="10.548" xlink:href="#k"/><clipPath id="ce"><path d="M413.6,506.836l12.081,4.11a.264.264,0,0,1-.038-.211.251.251,0,0,1,.152-.147l-12.075-4.108Z" transform="translate(-413.601 -506.48)" fill="none"/></clipPath><linearGradient id="cf" x1="-5.593" y1="10.594" x2="-5.579" y2="10.594" xlink:href="#k"/><clipPath id="cg"><path d="M414.55,504.034l12.073,4.107a.263.263,0,0,1-.038-.211.253.253,0,0,1,.152-.146l-12.067-4.106Z" transform="translate(-414.55 -503.678)" fill="none"/></clipPath><linearGradient id="ch" x1="-5.609" y1="10.641" x2="-5.596" y2="10.641" xlink:href="#k"/><clipPath id="cj"><path d="M410.606,503.537l-.232.678a.307.307,0,0,0,.191.39l.165.056.43-1.259-.165-.056a.307.307,0,0,0-.39.191" transform="translate(-410.358 -503.329)" fill="none"/></clipPath><linearGradient id="ck" x1="-44.355" y1="75.611" x2="-44.246" y2="75.611" xlink:href="#cb"/><clipPath id="cm"><path d="M223.163,389.495l-.213,2.109a1.6,1.6,0,0,0,1.864-1.373c.157-.9-.14-1.154-.523-1.154a2.623,2.623,0,0,0-1.127.418" transform="translate(-222.95 -389.077)" fill="none"/></clipPath><linearGradient id="cn" x1="-10.881" y1="48.156" x2="-10.832" y2="48.156" gradientUnits="objectBoundingBox"><stop offset="0" stop-color="#f8c9d2"/><stop offset="1" stop-color="#e59fab"/></linearGradient><clipPath id="co"><path d="M163.761,353.671a8.207,8.207,0,0,0-3.1,4.849c-.543-.255-1.27-.371-1.115.958a1.516,1.516,0,0,0,1.019,1.383,10.084,10.084,0,0,0,.472,2.152c-1,3.915-4.234,14.926-2.189,15,2.3.08,9.228,2.816,9.228,2.816l-.357-14.213a5.459,5.459,0,0,0,1.856-3.054c1.156-4.4-.821-10.707-3.872-10.706a3.042,3.042,0,0,0-1.938.818" transform="translate(-158.178 -352.853)" fill="none"/></clipPath><linearGradient id="cp" x1="-1.496" y1="4.945" x2="-1.485" y2="4.945" xlink:href="#cn"/><clipPath id="cr"><path d="M291.163,500.607c-1.1,3.814.26,12.686,2.635,13.807,7.718.715,19.463-14.29,19.59-14.476a8.818,8.818,0,0,1,2.263-1.977,5.618,5.618,0,0,0,2.656-1.59c2.906-2.662-1.918-3.262-1.926-3.266-1.552.027-4.007,1.727-3.682,2.815a5.605,5.605,0,0,1-1.238,1.486c-2.877,2.14-12.73,8.9-13.116,8.033-.78-1.749-7.3-7.184-7.092-9.455.275-3.045-4.639-7.831-4.639-7.831s5.644,8.64,4.548,12.453" transform="translate(-286.615 -488.154)" fill="none"/></clipPath><linearGradient id="cs" x1="-1.086" y1="2.956" x2="-1.082" y2="2.956" xlink:href="#cn"/><clipPath id="ct"><path d="M284.615,499.5c.113.74,4.337,8.3,5.036,8.595s5.794-9.484,5.415-10.112-4.614-10.941-10.3-16.151a2.874,2.874,0,0,0-1.235-.735c-.555,1.286.968,17.663,1.081,18.4" transform="translate(-283.412 -481.099)" fill="#2f6de2"/></clipPath><clipPath id="cu"><path d="M318.1,581.853c-.558.336-7.09,7.6-7.145,8.059a1.9,1.9,0,0,0,.765,1.74c.77.724,1.354.86,1.863.654,1.185-.48,4.888-7.793,5.206-8.841,0,0-.111-1.65-.564-1.651a.24.24,0,0,0-.125.039" transform="translate(-310.94 -581.814)" fill="#2f6de2"/></clipPath><clipPath id="cv"><path d="M15.993,500.927C14.936,502.063,3.387,518.088,2.947,519.7s8.141,11.5,14.628,15.568c2.048,1.285,2.147,1.849,3.1,2.179,1.062.37,3.01.677,3.825.012a6.555,6.555,0,0,0,1.677-4.053c-.044-1.22-1.456-.776-2.433-1.672-.618-.566-1.721-.186-2.45.171-.457.224-1.051-.262-1.463-.561-3.991-2.893-8.676-9.266-8.381-11.66.092-.745,9.171-7.245,9.171-7.245l-1.865-13.379a.294.294,0,0,0-.154-.031c-.293,0-1.048.225-2.6,1.9" transform="translate(-2.931 -499.028)" fill="none"/></clipPath><linearGradient id="cw" x1="-0.002" y1="3.026" x2="0.005" y2="3.026" xlink:href="#cn"/><clipPath id="cx"><path d="M17.066,494.937c-1.41,1.29-7.053,6.581-10.211,11.392-3.627,5.527-6.161,9.731-5.412,11s7.584-.173,8.1-.4,10.131-6.026,10.131-6.314-.611-11.565-2.114-15.555a.307.307,0,0,0-.5-.117" transform="translate(-1.312 -494.855)" fill="#2f6de2"/></clipPath><clipPath id="cy"><path d="M0,624.844a3.626,3.626,0,0,0,.755,1.543c.412.514-.069,1.286.618,1.543s8.242-1.286,8.792-1.607.069-.9-.206-.9.481-.9-.343-.9c0,0-2.16-.057-4.432-.057-2.557,0-5.257.072-5.184.378" transform="translate(0 -624.466)" fill="#2f6de2"/></clipPath><clipPath id="da"><path d="M199.392,1141.951l-.344,7.189a1.56,1.56,0,0,0,.063,2.456c1.444,1.185,4.991.018,5.74-.26,1.563-.577-3.266-1.682-3.266-1.682l.387-8.895Z" transform="translate(-198.452 -1140.76)" fill="none"/></clipPath><linearGradient id="db" x1="-2.292" y1="1.201" x2="-2.279" y2="1.201" xlink:href="#cn"/><clipPath id="dd"><path d="M92.75,1136.927l-.662,7.936a1.56,1.56,0,0,0,.476,2.411c1.623.924,4.922-.825,5.614-1.225,1.443-.833-3.5-1.106-3.5-1.106l1.859-8.833Z" transform="translate(-91.695 -1136.11)" fill="none"/></clipPath><linearGradient id="de" x1="-1.494" y1="1.12" x2="-1.477" y2="1.12" xlink:href="#cn"/><clipPath id="dg"><path d="M85.74,778.555a28.959,28.959,0,0,0,5.289.507s11.126-49.58,12.082-54.021c-.752,7.584.956,54.112.956,54.112s5.09.455,5.09.182c4.7-20.406,8.745-77.615,8.745-77.615s-23.777-.746-23.742-.865c-5.807,9.617-8.764,77.52-8.421,77.7m8.421-77.7h0" transform="translate(-85.713 -700.854)" fill="none"/></clipPath><linearGradient id="dh" x1="-0.423" y1="1.082" x2="-0.418" y2="1.082" xlink:href="#i"/><clipPath id="di"><path d="M108.244,467.488c-1.306-.061-2.251-.122-2.34-.12-.589.014-8.188,1.847-9.706,4.506-.723,1.266,2.6,23.609,3.2,31.021.413,5.093,1.594,6.1,2.687,6.286,7.6,3.627,23.2,1.378,23.913.592,3.963-4.373,1.259-40.22,1.259-40.22-2.18-1.308-8.026-2.194-10.253-2.481-.512.706-5.659.561-8.765.415" transform="translate(-96.095 -467.073)" fill="url(#a)"/></clipPath><clipPath id="dk"><path d="M160.652,461.435h0m-12.706-1.5-2.232,1.5a14.869,14.869,0,0,0,14.938,0c-.083-.007-2.472-1.678-2.472-1.678s-3.906,1.8-10.234.173" transform="translate(-145.714 -459.757)" fill="#2f6de2"/></clipPath><clipPath id="dm"><path d="M104.853,148.325a1.669,1.669,0,0,0-1.659,1.669V162.67a1.669,1.669,0,0,0,1.659,1.669h16.276l4.893,3.591-.538-3.591h2.508a1.669,1.669,0,0,0,1.659-1.669V149.994a1.669,1.669,0,0,0-1.659-1.669Z" transform="translate(-103.194 -148.325)" fill="none"/></clipPath><clipPath id="do"><path d="M158.766,177.256l-1.861,1.863-.8-.8a.186.186,0,0,0-.262.263l.931.931a.191.191,0,0,0,.267,0l1.99-1.992a.186.186,0,1,0-.263-.262" transform="translate(-155.786 -177.201)" fill="none"/></clipPath><linearGradient id="dp" x1="-7.654" y1="72.315" x2="-7.605" y2="72.315" gradientUnits="objectBoundingBox"><stop offset="0" stop-color="#1e4b7f"/><stop offset="1" stop-color="#001f37"/></linearGradient><linearGradient id="dr" x1="0.771" y1="0.059" x2="0.171" y2="0.792" gradientUnits="objectBoundingBox"><stop offset="0"/><stop offset="1" stop-opacity="0.141"/></linearGradient></defs><g transform="translate(0 -1792)"><g transform="translate(0 -24)" clip-path="url(#b)"><path d="M101.555,302.8,657.546.317V159.8L101.555,462.287Z" transform="translate(-282.363 1829.917)" fill="url(#c)"/><path d="M101.055,463.128V302.5l.261-.142L658.046-.524V160.1l-.261.142Zm1-160.03V461.446L657.046,159.505V1.158Z" transform="translate(-282.363 1829.917)" fill="rgba(0,0,0,0)"/></g><g transform="translate(-939.563 -83.556)"><g transform="translate(1032.82 1899.556)"><g clip-path="url(#d)"><g transform="translate(0 -0.001)"><g clip-path="url(#e)"><g transform="translate(4.522 189.576)" opacity="0.03"><g clip-path="url(#f)"><path d="M150.439,1158.7c0,1.328-27.5,2.4-61.429,2.4s-61.43-1.077-61.43-2.4,27.5-2.4,61.43-2.4,61.429,1.077,61.429,2.4" transform="translate(-27.58 -1156.299)" fill="#0f2653"/></g></g><g transform="translate(8.399 195.29)" opacity="0.03"><g clip-path="url(#g)"><path d="M96.43,1193.561c0,1.328-10.119,2.4-22.6,2.4s-22.6-1.076-22.6-2.4,10.119-2.4,22.6-2.4,22.6,1.077,22.6,2.4" transform="translate(-51.229 -1191.156)" fill="#0f2653"/></g></g></g></g><g transform="translate(74.841 171.367)"><g clip-path="url(#h)"><rect width="10.758" height="7.508" transform="translate(-1.399 0.472) rotate(-18.647)" fill="url(#i)"/></g></g><g transform="translate(69.163 176.771)"><g clip-path="url(#j)"><rect width="25.922" height="25.893" transform="translate(-7.78 7.72) rotate(-44.788)" fill="url(#k)"/></g></g><g transform="translate(68.61 175.034)"><g clip-path="url(#l)"><rect width="11.822" height="22.927" transform="translate(-0.771 10.109) rotate(-85.653)" fill="url(#m)"/></g></g><g transform="translate(78.733 183.775)"><g clip-path="url(#n)"><rect width="3.709" height="3.716" transform="matrix(0.71, -0.704, 0.704, 0.71, -1.66, 1.645)" fill="url(#o)"/></g></g><g transform="translate(0 -0.001)"><g clip-path="url(#e)"><g transform="translate(36.732 0.001)" opacity="0.4"><g clip-path="url(#q)"><g transform="translate(0 -0.001)"><g clip-path="url(#r)"><rect width="118.094" height="118.11" transform="translate(-9.542 0.012) rotate(-4.644)" fill="#c6d4ef"/></g></g><g transform="translate(24.768 24.768)" opacity="0.58"><g clip-path="url(#s)"><g transform="translate(0 0.001)"><g clip-path="url(#t)"><rect width="80.222" height="80.222" transform="matrix(0.971, -0.239, 0.239, 0.971, -19.209, -0.035)" fill="url(#u)"/></g></g></g></g></g></g></g></g><g transform="translate(111.47 10.756)"><g clip-path="url(#v)"><rect width="80.273" height="145.174" fill="#456dcc"/></g></g><g transform="translate(163.535 14.497)"><g clip-path="url(#w)"><rect width="4.555" height="4.555" fill="url(#x)"/></g></g><g transform="translate(171.114 14.497)"><g clip-path="url(#y)"><rect width="4.554" height="4.555" fill="url(#z)"/></g></g><g transform="translate(178.693 14.497)"><g clip-path="url(#aa)"><rect width="4.555" height="4.555" transform="translate(0)" fill="url(#ab)"/></g></g><g transform="translate(0 -0.001)"><g clip-path="url(#e)"><path d="M773.56,717.945H711.9a4.873,4.873,0,0,0-4.858,4.858v19.963a4.873,4.873,0,0,0,4.858,4.858H773.56a4.873,4.873,0,0,0,4.858-4.858V722.8a4.873,4.873,0,0,0-4.858-4.858" transform="translate(-591.126 -600.237)" fill="#fff"/></g></g><g transform="translate(138.238 124.963)"><g clip-path="url(#ad)"><rect width="23.868" height="18.146" transform="translate(0 0)" fill="#2a488e"/></g></g><g transform="translate(160.451 121.984)"><g clip-path="url(#ae)"><rect width="4.524" height="4.55" transform="translate(0)" fill="#2a488e"/></g></g><g transform="translate(115.919 21.791)"><g clip-path="url(#af)"><rect width="32.462" height="32.462" transform="translate(0 0)" fill="url(#ag)"/></g></g><g transform="translate(0 -0.001)"><g clip-path="url(#e)"><path d="M743.344,153.921a15.294,15.294,0,1,1-15.294-15.294,15.294,15.294,0,0,1,15.294,15.294" transform="translate(-595.9 -115.898)" fill="#fff"/></g></g><g transform="translate(126.898 26.812)"><g clip-path="url(#ai)"><rect width="10.504" height="10.504" transform="translate(0 0)" fill="url(#aj)"/></g></g><g transform="translate(123.449 37.651)"><g clip-path="url(#ak)"><rect width="17.401" height="13.871" transform="translate(0 0)" fill="url(#al)"/></g></g><g transform="translate(0 -0.001)"><g clip-path="url(#e)"><path d="M963.026,218.24h-19.9a2.069,2.069,0,0,0-2.063,2.063v.358a2.069,2.069,0,0,0,2.063,2.063h19.9a2.069,2.069,0,0,0,2.063-2.063V220.3a2.069,2.069,0,0,0-2.063-2.063" transform="translate(-786.775 -182.459)" fill="#fff"/><path d="M1053.868,160.356h-12.827a2.069,2.069,0,0,0-2.063,2.063v.358a2.069,2.069,0,0,0,2.063,2.063h12.827a2.069,2.069,0,0,0,2.063-2.063v-.358a2.069,2.069,0,0,0-2.063-2.063" transform="translate(-868.638 -134.065)" fill="#fff"/><path d="M955.951,276.432H943.124a2.069,2.069,0,0,0-2.063,2.063v.357a2.069,2.069,0,0,0,2.063,2.063h12.827a2.069,2.069,0,0,0,2.063-2.063v-.357a2.069,2.069,0,0,0-2.063-2.063" transform="translate(-786.774 -231.11)" fill="#fff"/><path d="M952.064,160.048h-8.939a2.069,2.069,0,0,0-2.063,2.063v.358a2.069,2.069,0,0,0,2.063,2.063h8.939a2.069,2.069,0,0,0,2.063-2.063v-.358a2.069,2.069,0,0,0-2.063-2.063" transform="translate(-786.775 -133.808)" fill="#fff"/></g></g><g transform="translate(114.547 61.031)"><g clip-path="url(#an)"><rect width="74.117" height="49.027" fill="#456dcc"/></g></g><g transform="translate(0 -0.001)"><g clip-path="url(#e)"><path d="M768.572,420.4H700.717a3.348,3.348,0,0,1-3.345-3.345V374.295a3.348,3.348,0,0,1,3.345-3.345h67.855a3.348,3.348,0,0,1,3.345,3.345v42.764a3.348,3.348,0,0,1-3.345,3.345m-67.855-49.027a2.921,2.921,0,0,0-2.918,2.918v42.764a2.921,2.921,0,0,0,2.918,2.918h67.855a2.921,2.921,0,0,0,2.918-2.918V374.295a2.921,2.921,0,0,0-2.918-2.918Z" transform="translate(-583.038 -310.132)" fill="#fff"/><path d="M935.265,394.388h-31.81a2.242,2.242,0,0,0,0,4.483h31.81a2.242,2.242,0,0,0,0-4.483" transform="translate(-753.459 -329.728)" fill="#fff"/><path d="M914.876,445.825H903.455a2.242,2.242,0,0,0,0,4.483h11.422a2.242,2.242,0,1,0,0-4.483" transform="translate(-753.459 -372.731)" fill="#fff"/><path d="M1039.235,445.825h-11.422a2.242,2.242,0,0,0,0,4.483h11.422a2.242,2.242,0,1,0,0-4.483" transform="translate(-857.43 -372.731)" fill="#fff"/><path d="M740.975,391.35H723.382a3.181,3.181,0,0,0-3.171,3.171v15.039a3.181,3.181,0,0,0,3.171,3.171h17.593a3.181,3.181,0,0,0,3.171-3.171V394.521a3.181,3.181,0,0,0-3.171-3.171" transform="translate(-602.133 -327.188)" fill="#fff"/></g></g><g transform="translate(126.577 70.108)"><g clip-path="url(#ap)"><rect width="8.219" height="9.49" transform="translate(0 0)" fill="url(#aq)"/></g></g><g transform="translate(118.078 91.25)"><g clip-path="url(#ar)"><rect width="19.981" height="15.319" fill="#2a488e"/></g></g><g transform="translate(163.809 91.25)"><g clip-path="url(#as)"><rect width="19.981" height="15.319" fill="#2a488e"/></g></g><g transform="translate(141.076 91.25)"><g clip-path="url(#at)"><rect width="19.981" height="15.319" transform="translate(0)" fill="#2a488e"/></g></g><g transform="translate(0 -0.001)"><g clip-path="url(#e)"><path d="M888.048,570.421H874.184a.971.971,0,0,0,0,1.943h13.863a.971.971,0,1,0,0-1.943" transform="translate(-730.05 -476.9)" fill="#fff"/><path d="M888.048,597.368H874.184a.971.971,0,0,0,0,1.943h13.863a.971.971,0,1,0,0-1.943" transform="translate(-730.05 -499.429)" fill="#fff"/><path d="M888.048,624.315H874.184a.971.971,0,0,0,0,1.943h13.863a.971.971,0,0,0,0-1.943" transform="translate(-730.05 -521.958)" fill="#fff"/><path d="M1028.147,583.382a.821.821,0,0,0,1.245,0l5.331-4.939H1022.8Z" transform="translate(-855.109 -483.607)" fill="#fff"/><path d="M1029.59,607.307l1.041-.913,4.091,3.749H1022.8l4.091-3.749.977.893a1.273,1.273,0,0,0,1.728.02" transform="translate(-855.108 -506.975)" fill="#fff"/><path d="M1019.945,581.1l4.091,3.73-4.091,3.769Z" transform="translate(-852.726 -485.83)" fill="#fff"/><path d="M1077.166,581.1l-4.092,3.73,4.092,3.769Z" transform="translate(-897.144 -485.83)" fill="#fff"/><path d="M774.395,618.669a1.238,1.238,0,1,0,1.329,1.23,1.28,1.28,0,0,0-1.329-1.23" transform="translate(-646.324 -517.238)" fill="#fff"/><path d="M747.942,575.87a9.066,9.066,0,0,0-5.817,2.069l-.7-.65a10.265,10.265,0,0,1,13.024,0l-.693.65a9.075,9.075,0,0,0-5.817-2.069" transform="translate(-619.871 -480.694)" fill="#fff"/><path d="M757.954,591.511a6.24,6.24,0,0,0-3.854,1.315l-.7-.646a7.343,7.343,0,0,1,9.1,0l-.7.646a6.261,6.261,0,0,0-3.856-1.315" transform="translate(-629.883 -493.771)" fill="#fff"/><path d="M767.287,606.121a3.533,3.533,0,0,0-2.017.627l-.7-.65a4.6,4.6,0,0,1,5.436,0l-.7.65a3.494,3.494,0,0,0-2.011-.627" transform="translate(-639.216 -505.985)" fill="#fff"/></g></g><g transform="translate(90.433 89.422)"><g transform="translate(0 0)" clip-path="url(#av)"><path d="M557.471,544.063v34.856l-5.887-.266V543.8Z" transform="translate(-551.585 -544.063)" fill="url(#aw)"/></g></g><g transform="translate(15.679 78.503)"><g clip-path="url(#ax)"><rect width="79.551" height="45.234" transform="translate(0 0)" fill="url(#ay)"/></g></g><g transform="translate(13.825 78.503)"><g clip-path="url(#az)"><rect width="79.551" height="45.234" transform="translate(0 0)" fill="#c6d4ef"/></g></g><g transform="translate(0 -0.001)"><g clip-path="url(#e)"><path d="M164.47,518.547H126.822l3.2-23.066h37.648Z" transform="translate(-106.03 -414.247)" fill="#fff"/><path d="M386.363,534.889H362.444l5.471-39.407h23.919Z" transform="translate(-303.021 -414.247)" fill="#fff"/><g transform="translate(60.913 83.642)" opacity="0.43"><g clip-path="url(#bb)"><path d="M410.307,517.124a2.964,2.964,0,0,1-3-3.481,4.138,4.138,0,0,1,3.964-3.481,2.964,2.964,0,0,1,3,3.481,4.138,4.138,0,0,1-3.964,3.481m.955-6.876a4.036,4.036,0,0,0-3.867,3.4,2.891,2.891,0,0,0,2.924,3.4,4.036,4.036,0,0,0,3.866-3.4,2.89,2.89,0,0,0-2.924-3.4" transform="translate(-401.416 -510.162)" fill="#0f2653"/><path d="M419.977,521.23l-.069.061-4.193-4.869.069-.061Z" transform="translate(-408.472 -515.344)" fill="#0f2653"/><path d="M411.644,521.23l.052.061,5.545-4.869-.052-.061Z" transform="translate(-405.068 -515.344)" fill="#0f2653"/><path d="M475,510.162l-.012.086h-9l.012-.086Z" transform="translate(-450.499 -510.162)" fill="#0f2653"/><path d="M465.053,510.166h.086l-.2,1.416h-.086Z" transform="translate(-449.556 -510.166)" fill="#0f2653"/><path d="M519.455,510.162h.086l-.2,1.416h-.086Z" transform="translate(-495.039 -510.162)" fill="#0f2653"/><path d="M473.874,518.276l-.012.086h-9l.012-.086Z" transform="translate(-449.557 -516.946)" fill="#0f2653"/><path d="M466.565,573.566l-.012.086h-9l.012-.086Z" transform="translate(-443.446 -563.171)" fill="#0f2653"/><path d="M456.618,573.571h.086l-.2,1.416h-.086Z" transform="translate(-442.504 -563.175)" fill="#0f2653"/><path d="M511.02,573.566h.086l-.2,1.416h-.086Z" transform="translate(-487.987 -563.171)" fill="#0f2653"/><path d="M465.439,581.68l-.012.086h-9l.012-.086Z" transform="translate(-442.505 -569.955)" fill="#0f2653"/><path d="M410.121,573.566l-.012.086h-6.885l.012-.086Z" transform="translate(-398.028 -563.171)" fill="#0f2653"/><path d="M400.05,573.566h.086l-.637,4.586h-.086Z" transform="translate(-394.843 -563.171)" fill="#0f2653"/><path d="M441.523,573.566h.086l-.637,4.586h-.086Z" transform="translate(-429.516 -563.171)" fill="#0f2653"/><path d="M403.453,573.879l.057-.072,6.143,4.442-.057.072Z" transform="translate(-398.22 -563.372)" fill="#0f2653"/><path d="M399.752,578.249l.037.072,7.377-4.442-.037-.072Z" transform="translate(-395.126 -563.372)" fill="#0f2653"/><path d="M406.31,601.011l-.012.086h-6.885l.012-.086Z" transform="translate(-394.842 -586.117)" fill="#0f2653"/><path d="M399.348,608.724l-.012.086h-5.8l.012-.086Z" transform="translate(-389.925 -592.565)" fill="#0f2653"/><path d="M390.359,608.724h.086l-.637,4.586h-.086Z" transform="translate(-386.74 -592.565)" fill="#0f2653"/><path d="M425.234,608.724h.086l-.637,4.586H424.6Z" transform="translate(-415.898 -592.565)" fill="#0f2653"/><path d="M393.765,609.111l.062-.068,5.069,4.425-.062.068Z" transform="translate(-390.121 -592.832)" fill="#0f2653"/><path d="M390.075,613.469l.043.068,6.3-4.425-.043-.068Z" transform="translate(-387.036 -592.832)" fill="#0f2653"/><path d="M395.537,636.17l-.012.086h-5.8l.012-.086Z" transform="translate(-386.74 -615.511)" fill="#0f2653"/><path d="M441.083,608.724l-.012.086h-5.8l.012-.086Z" transform="translate(-424.818 -592.565)" fill="#0f2653"/><path d="M432.094,608.724h.086l-.637,4.586h-.086Z" transform="translate(-421.633 -592.565)" fill="#0f2653"/><path d="M466.969,608.724h.086l-.637,4.586h-.086Z" transform="translate(-450.791 -592.565)" fill="#0f2653"/><path d="M435.5,609.111l.062-.068,5.069,4.425-.062.068Z" transform="translate(-425.013 -592.832)" fill="#0f2653"/><path d="M431.81,613.469l.043.068,6.3-4.425-.043-.068Z" transform="translate(-421.928 -592.832)" fill="#0f2653"/><path d="M437.272,636.17l-.012.086h-5.8l.012-.086Z" transform="translate(-421.632 -615.511)" fill="#0f2653"/><path d="M482.818,608.724l-.012.086H477l.012-.086Z" transform="translate(-459.711 -592.565)" fill="#0f2653"/><path d="M473.829,608.724h.086l-.637,4.586h-.086Z" transform="translate(-456.525 -592.565)" fill="#0f2653"/><path d="M508.7,608.724h.086l-.637,4.586h-.086Z" transform="translate(-485.683 -592.565)" fill="#0f2653"/><path d="M477.236,609.111l.062-.068,5.068,4.425-.062.068Z" transform="translate(-459.906 -592.832)" fill="#0f2653"/><path d="M473.545,613.469l.043.068,6.3-4.425-.043-.068Z" transform="translate(-456.821 -592.832)" fill="#0f2653"/><path d="M479.007,636.17l-.012.086h-5.8l.012-.086Z" transform="translate(-456.525 -615.511)" fill="#0f2653"/><path d="M383.085,579.3h.086L384.85,567.2h-.086Z" transform="translate(-381.191 -557.85)" fill="#0f2653"/><path d="M414.724,567.288l.012-.086H393.265l-.012.086Z" transform="translate(-389.693 -557.851)" fill="#0f2653"/><path d="M404.554,640.529l.012-.086H383.1l-.012.086Z" transform="translate(-381.19 -619.084)" fill="#0f2653"/><path d="M513.518,579.3h.086l1.679-12.094H515.2Z" transform="translate(-490.24 -557.85)" fill="#0f2653"/><path d="M371.536,662.479h.086l1.679-12.094h-.086Z" transform="translate(-371.535 -627.396)" fill="#0f2653"/><path d="M403.174,650.472l.012-.086h-21.47l-.012.086Z" transform="translate(-380.037 -627.396)" fill="#0f2653"/><path d="M393,723.713l.012-.086H371.546l-.012.086Z" transform="translate(-371.534 -688.63)" fill="#0f2653"/><path d="M501.969,662.479h.086l1.679-12.094h-.086Z" transform="translate(-480.584 -627.396)" fill="#0f2653"/></g></g><g transform="translate(23.306 82.722)" opacity="0.43"><g clip-path="url(#bc)"><path d="M158.993,511.864a2.964,2.964,0,0,1-3-3.481,4.138,4.138,0,0,1,3.964-3.481,2.964,2.964,0,0,1,3,3.481,4.138,4.138,0,0,1-3.964,3.481m.955-6.876a4.036,4.036,0,0,0-3.867,3.4,2.891,2.891,0,0,0,2.924,3.4,4.036,4.036,0,0,0,3.866-3.4,2.89,2.89,0,0,0-2.924-3.4" transform="translate(-153.698 -504.845)" fill="#0f2653"/><path d="M168.664,515.97l-.069.061-4.193-4.869.069-.061Z" transform="translate(-160.755 -510.028)" fill="#0f2653"/><path d="M160.331,515.97l.052.061,5.545-4.869-.052-.061Z" transform="translate(-157.351 -510.028)" fill="#0f2653"/><path d="M228.5,504.552l-.012.086h-9l.012-.086Z" transform="translate(-206.807 -504.552)" fill="#0f2653"/><path d="M218.556,504.556h.086l-.2,1.416h-.086Z" transform="translate(-205.865 -504.555)" fill="#0f2653"/><path d="M272.957,504.552h.086l-.2,1.416h-.086Z" transform="translate(-251.348 -504.552)" fill="#0f2653"/><path d="M227.376,512.665l-.012.086h-9l.012-.086Z" transform="translate(-205.866 -511.335)" fill="#0f2653"/><path d="M226.106,521.815l-.012.086h-9l.012-.086Z" transform="translate(-204.804 -518.985)" fill="#0f2653"/><path d="M216.159,521.819h.086l-.2,1.416h-.086Z" transform="translate(-203.861 -518.988)" fill="#0f2653"/><path d="M270.56,521.815h.086l-.2,1.416h-.086Z" transform="translate(-249.344 -518.985)" fill="#0f2653"/><path d="M224.979,529.929l-.012.086h-9l.012-.086Z" transform="translate(-203.862 -525.768)" fill="#0f2653"/><path d="M223.709,539.078l-.012.086h-9l.012-.086Z" transform="translate(-202.8 -533.417)" fill="#0f2653"/><path d="M213.762,539.082h.086l-.2,1.416h-.086Z" transform="translate(-201.858 -533.421)" fill="#0f2653"/><path d="M268.163,539.078h.086l-.2,1.416h-.086Z" transform="translate(-247.34 -533.417)" fill="#0f2653"/><path d="M222.582,547.192l-.012.086h-9l.012-.086Z" transform="translate(-201.858 -540.201)" fill="#0f2653"/><path d="M142.156,569.16h.086l1.679-12.094h-.086Z" transform="translate(-142.156 -548.456)" fill="#0f2653"/><path d="M173.8,557.152l.012-.086H152.337l-.012.086Z" transform="translate(-150.657 -548.457)" fill="#0f2653"/><path d="M163.626,630.393l.012-.086H142.168l-.012.086Z" transform="translate(-142.156 -609.69)" fill="#0f2653"/><path d="M272.59,569.16h.086l1.679-12.094h-.086Z" transform="translate(-251.205 -548.456)" fill="#0f2653"/><path d="M319.531,508.347l-.012.086h-6.885l.012-.086Z" transform="translate(-284.684 -507.725)" fill="#0f2653"/><path d="M309.46,508.347h.086l-.637,4.586h-.086Z" transform="translate(-281.499 -507.725)" fill="#0f2653"/><path d="M350.933,508.347h.086l-.637,4.586H350.3Z" transform="translate(-316.172 -507.725)" fill="#0f2653"/><path d="M312.863,508.66l.057-.072,6.143,4.442-.057.072Z" transform="translate(-284.876 -507.926)" fill="#0f2653"/><path d="M309.162,513.029l.037.072,7.377-4.442-.037-.072Z" transform="translate(-281.782 -507.926)" fill="#0f2653"/><path d="M315.721,535.792l-.012.086h-6.885l.012-.086Z" transform="translate(-281.498 -530.67)" fill="#0f2653"/><path d="M313.5,551.841l-.012.086h-6.885l.012-.086Z" transform="translate(-279.645 -544.088)" fill="#0f2653"/><path d="M303.434,551.841h.086l-.637,4.586H302.8Z" transform="translate(-276.46 -544.088)" fill="#0f2653"/><path d="M344.906,551.841h.086l-.637,4.586h-.086Z" transform="translate(-311.133 -544.088)" fill="#0f2653"/><path d="M306.836,552.154l.057-.072,6.143,4.442-.057.072Z" transform="translate(-279.837 -544.289)" fill="#0f2653"/><path d="M303.135,556.523l.037.072,7.377-4.442-.037-.072Z" transform="translate(-276.743 -544.289)" fill="#0f2653"/><path d="M309.694,579.286l-.012.086H302.8l.012-.086Z" transform="translate(-276.459 -567.034)" fill="#0f2653"/><path d="M307.477,595.335l-.012.086H300.58l.012-.086Z" transform="translate(-274.606 -580.451)" fill="#0f2653"/><path d="M297.406,595.335h.086l-.637,4.586h-.086Z" transform="translate(-271.421 -580.451)" fill="#0f2653"/><path d="M338.879,595.335h.086l-.637,4.586h-.086Z" transform="translate(-306.094 -580.451)" fill="#0f2653"/><path d="M300.809,595.648l.057-.072,6.143,4.442-.057.072Z" transform="translate(-274.798 -580.653)" fill="#0f2653"/><path d="M297.108,600.018l.037.072,7.377-4.442-.037-.072Z" transform="translate(-271.704 -580.652)" fill="#0f2653"/><path d="M303.667,622.78l-.012.086H296.77l.012-.086Z" transform="translate(-271.421 -603.397)" fill="#0f2653"/></g></g></g></g><g transform="translate(8.399 127.764)"><g clip-path="url(#bd)"><rect width="8.532" height="64.413" transform="translate(0 0)" fill="url(#be)"/></g></g><g transform="translate(20.181 127.764)"><g clip-path="url(#bf)"><rect width="8.532" height="64.413" transform="translate(0 0)" fill="url(#bg)"/></g></g><g transform="translate(85.385 127.764)"><g clip-path="url(#bh)"><rect width="8.532" height="64.413" transform="translate(0 0)" fill="url(#bi)"/></g></g><g transform="translate(97.167 127.764)"><g clip-path="url(#bj)"><rect width="8.532" height="64.413" transform="translate(0 0)" fill="url(#bk)"/></g></g><g transform="translate(9.293 123.698)"><g clip-path="url(#bl)"><rect width="95.51" height="5.462" transform="translate(0)" fill="#2761cc"/></g></g><g transform="translate(9.293 128.994)"><g clip-path="url(#bm)"><rect width="95.51" height="0.846" transform="translate(0 0)" fill="url(#bn)"/></g></g><g transform="translate(112.052 151.966)"><g clip-path="url(#bo)"><rect width="17.398" height="31.026" transform="matrix(0.978, -0.21, 0.21, 0.978, -6.029, 1.284)" fill="url(#bp)"/></g></g><g transform="translate(114.739 153.889)"><g clip-path="url(#bq)"><rect width="33.291" height="33.056" transform="matrix(0.694, -0.72, 0.72, 0.694, -13.977, 14.501)" fill="url(#br)"/></g></g><g transform="translate(103.85 161.467)"><g clip-path="url(#bs)"><rect width="14.907" height="21.602" transform="translate(-2.636 0.35) rotate(-7.573)" fill="url(#bt)"/></g></g><g transform="translate(110.495 179.922)"><g clip-path="url(#bu)"><rect width="12.709" height="12.536" transform="translate(-0.064)" fill="url(#bv)"/></g></g><g transform="translate(110.224 179.708)"><g clip-path="url(#bw)"><rect width="13.175" height="1.722" transform="translate(0)" fill="url(#bx)"/></g></g><g transform="translate(109.264 178.769)"><g clip-path="url(#by)"><rect width="15.027" height="1.079" fill="url(#bz)"/></g></g><g transform="translate(67.646 82.573)"><g clip-path="url(#ca)"><rect width="14.411" height="13.54" transform="matrix(0.754, -0.657, 0.657, 0.754, -2.696, 2.347)" fill="url(#cb)"/></g></g><g transform="translate(67.654 83.496)"><g clip-path="url(#cc)"><rect width="12.137" height="11.382" transform="translate(-2.213 1.927) rotate(-41.043)" fill="url(#cd)"/></g></g><g transform="translate(67.81 83.037)"><g clip-path="url(#ce)"><rect width="12.131" height="11.376" transform="matrix(0.754, -0.657, 0.657, 0.754, -2.212, 1.926)" fill="url(#cf)"/></g></g><g transform="translate(67.965 82.578)"><g clip-path="url(#cg)"><rect width="12.122" height="11.368" transform="translate(-2.21 1.924) rotate(-41.043)" fill="url(#ch)"/></g></g><g transform="translate(0 -0.001)"><g clip-path="url(#e)"><path d="M494.479,533.385l-.187.549c.357.016.946.022.974.021-.023-.019-.4-.284-.787-.57" transform="translate(-413.253 -445.936)" fill="#0f2653"/></g></g><g transform="translate(67.278 82.521)"><g clip-path="url(#cj)"><rect width="1.508" height="1.556" transform="translate(-0.698 0.574) rotate(-41.042)" fill="url(#ck)"/></g></g><g transform="translate(0 -0.001)"><g clip-path="url(#e)"><path d="M412.194,504.822c-.025-.009-.041-.027-.037-.04l.434-1.271c0-.014.029-.018.054-.01s.041.027.036.04l-.434,1.271c0,.014-.029.018-.054.01" transform="translate(-344.583 -420.947)" fill="#b2a9ab"/><path d="M177.346,403.929a.7.7,0,0,0-.5-.2c-.132,0-.276,0-.363-.005a.693.693,0,0,0-.566.236c-.932,1.045-2.575,2.169-4.01-.561-.674-1.4-1.078-1.282-1.078-1.282s-1.932,7.766,4.026,9.942c3.658,1.336,7.017-2.685,5.348-9.455-.513,1.631-2.165,2.013-2.854,1.33" transform="translate(-142.57 -336.184)" fill="#0f2653"/></g></g><g transform="translate(36.553 63.789)"><g clip-path="url(#cm)"><rect width="3.3" height="2.831" transform="matrix(0.332, -0.943, 0.943, 0.332, -0.872, 2.481)" fill="url(#cn)"/></g></g><g transform="translate(25.933 57.85)"><g clip-path="url(#co)"><rect width="15.793" height="28.854" transform="translate(-3.272 0.128) rotate(-3.888)" fill="url(#cp)"/></g></g><g transform="translate(0 -0.001)"><g clip-path="url(#e)"><path d="M180.47,354.852a37.214,37.214,0,0,1-.21,5.279,8.589,8.589,0,0,1-1.961,4.759c-1.145,1.178-3.819.957-5.156.129-1.67-1.034-1.63-2.779-1.93-4.663-.212-1.326-.713-6.516,1.4-7.989a5.7,5.7,0,0,1,3.773-.928,4.629,4.629,0,0,1,3.372,1.459,4.114,4.114,0,0,1,.709,1.954" transform="translate(-142.969 -293.799)" fill="#0f2653"/><path d="M189.6,332.743c0-.155,1.426-1.939.27-2.521s-2.611-.145-2.582.5a4.354,4.354,0,0,0,1.04,1.978Z" transform="translate(-156.582 -275.853)" fill="#0f2653"/></g></g><g transform="translate(46.99 80.033)"><g clip-path="url(#cr)"><rect width="40.534" height="43.403" transform="translate(-11.577 20.409) rotate(-60.436)" fill="url(#cs)"/></g></g><g transform="translate(46.465 78.876)"><g clip-path="url(#ct)"><rect width="29.485" height="18.659" transform="translate(-6.799 25.713) rotate(-76.096)" fill="#2f6de2"/></g></g><g transform="translate(50.979 95.388)"><g clip-path="url(#cu)"><rect width="12.28" height="10.229" transform="matrix(0.24, -0.971, 0.971, 0.24, -2.534, 10.08)" fill="#2f6de2"/></g></g><g transform="translate(0.481 81.815)"><g clip-path="url(#cv)"><rect width="23.71" height="39.094" transform="translate(-0.424)" fill="url(#cw)"/></g></g><g transform="translate(0.215 81.131)"><g clip-path="url(#cx)"><rect width="18.981" height="23.738" transform="translate(-0.617 0)" fill="#2f6de2"/></g></g><g transform="translate(0 102.381)"><g clip-path="url(#cy)"><rect width="10.788" height="3.721" transform="translate(-0.071 0)" fill="#2f6de2"/></g></g><g transform="translate(0 -0.001)"><g clip-path="url(#e)"><path d="M181.055,344.5c-2.876-.412-4.218.169-4.865.908-.134.087-.892,2.183,1.015,2.767,3.222.987,5.4.685,6.225.359.262-.1,1.79-3.619-2.374-4.034" transform="translate(-147.085 -287.906)" fill="#0f2653"/></g></g><g transform="translate(32.536 187.027)"><g clip-path="url(#da)"><rect width="12.939" height="10.06" transform="matrix(0.114, -0.993, 0.993, 0.114, -2.147, 11.864)" fill="url(#db)"/></g></g><g transform="translate(0 -0.001)"><g clip-path="url(#e)"><path d="M200.455,1188.028s6.157.814,6.636,2.166c.766,2.161-8.738,2.222-10,1.1-1.208-1.074.043-2.807.043-2.807a4.01,4.01,0,0,0,3.318-.461" transform="translate(-164.34 -993.25)" fill="#0f2653"/></g></g><g transform="translate(15.033 186.265)"><g clip-path="url(#dd)"><rect width="9.336" height="12.55" transform="translate(-1.422 0.037) rotate(-3.176)" fill="url(#de)"/></g></g><g transform="translate(0 -0.001)"><g clip-path="url(#e)"><path d="M92.86,1188.058s6.16.784,6.646,2.134c.777,2.158-8.728,2.264-9.992,1.151-1.214-1.069.03-2.807.03-2.807a4.012,4.012,0,0,0,3.316-.478" transform="translate(-74.394 -993.276)" fill="#0f2653"/></g></g><g transform="translate(14.053 114.905)"><g clip-path="url(#dg)"><rect width="32.506" height="78.754" transform="translate(-0.316 0)" fill="url(#dh)"/></g></g><g transform="translate(15.755 76.576)"><g clip-path="url(#di)"><rect width="34.491" height="45.736" transform="translate(-0.621 0)" fill="url(#a)"/></g></g><g transform="translate(23.89 75.377)"><g clip-path="url(#dk)"><rect width="14.94" height="6.186" transform="translate(0 0)" fill="#2f6de2"/></g></g><g transform="translate(0 -0.001)"><g clip-path="url(#e)"><path d="M126.056,720.857l-.069,2.186s13.112,4.082,25.211.376a20.906,20.906,0,0,0,.2-2.084,64.953,64.953,0,0,1-25.348-.478" transform="translate(-105.331 -602.672)" fill="#0f2653"/></g></g><g transform="translate(16.919 24.318)"><g clip-path="url(#dm)"><rect width="26.458" height="19.605" transform="translate(0 0)" fill="#ae6ec9"/></g></g><g transform="translate(0 -0.001)"><g clip-path="url(#e)"><path d="M150.874,171.107a3.061,3.061,0,1,0-4.723,2.57v1.8h3.326v-1.8a3.057,3.057,0,0,0,1.4-2.569" transform="translate(-121.019 -140.495)" fill="#fff"/><path d="M154.666,208.154h-3.571a.283.283,0,0,0,0,.567h3.571a.283.283,0,1,0,0-.567" transform="translate(-126.086 -174.027)" fill="#cfe7f8"/><path d="M154.667,211.612H151.1a.283.283,0,0,0,0,.567h3.571a.283.283,0,1,0,0-.567" transform="translate(-126.086 -176.918)" fill="#cfe7f8"/><path d="M154.668,215.069H151.1a.283.283,0,1,0,0,.567h3.571a.283.283,0,1,0,0-.567" transform="translate(-126.087 -179.808)" fill="#cfe7f8"/><path d="M157.03,218.529h-2.551a.267.267,0,0,0,0,.529h2.552a.267.267,0,0,0,0-.529" transform="translate(-128.959 -182.701)" fill="#cfe7f8"/><path d="M158.408,221.756h-1.8a.265.265,0,1,0,0,.529h1.8a.265.265,0,0,0,0-.529" transform="translate(-130.715 -185.398)" fill="#cfe7f8"/><path d="M160.423,224.984h-.813a.264.264,0,1,0,0,.529h.813a.265.265,0,0,0,0-.529" transform="translate(-133.22 -188.097)" fill="#cfe7f8"/><path d="M156.384,177.962a1.387,1.387,0,1,0,1.411,1.387,1.4,1.4,0,0,0-1.411-1.387" transform="translate(-129.567 -148.785)" fill="#cfe7f8"/></g></g><g transform="translate(25.541 29.052)"><g clip-path="url(#do)"><rect width="3.335" height="2.365" transform="translate(-0.019 -0.001)" fill="url(#dp)"/></g></g><g transform="translate(0 -0.001)"><g clip-path="url(#e)"><path d="M199.948,176.841a.851.851,0,0,1,.857-.9.9.9,0,0,1,0,1.8.851.851,0,0,1-.857-.9m.363-2.077-.2-6.97H201.5l-.2,6.97Z" transform="translate(-167.167 -140.284)" fill="#fff"/></g></g></g></g><path d="M1046.359,2342.956l-42.872,32.061s-12.072,13.313-4.513,14.892,34.749-8.574,34.749-8.574l43.323-38.379-15.344,3.63-21.21,8.123Z" transform="translate(0 -243.301)" opacity="0.35" fill="url(#dr)"/></g></g></svg>