<svg xmlns="http://www.w3.org/2000/svg" xmlns:xlink="http://www.w3.org/1999/xlink" width="1446.259" height="786.5" viewBox="0 0 1446.259 786.5"><defs><linearGradient id="a" x1="0.288" y1="0.032" x2="0.412" y2="0.935" gradientUnits="objectBoundingBox"><stop offset="0" stop-color="#2f6de2"/><stop offset="1" stop-color="#569bbf"/></linearGradient><linearGradient id="b" y1="0.81" x2="1" y2="0.21" gradientUnits="objectBoundingBox"><stop offset="0" stop-color="#0f6de8"/><stop offset="1" stop-color="#ae6ec9"/></linearGradient><clipPath id="c"><rect width="455.555" height="475.409" fill="none"/></clipPath><clipPath id="d"><rect width="455.556" height="475.411" fill="none"/></clipPath><clipPath id="e"><rect width="291.897" height="11.426" fill="none"/></clipPath><clipPath id="f"><rect width="107.392" height="11.426" fill="none"/></clipPath><clipPath id="g"><path d="M456.5,1053.392l-.011,2.736,3.3.012.01-2.735a4.894,4.894,0,0,1,4.906-4.87l6.882.026a4.892,4.892,0,0,1,4.868,4.906l-.009,2.736,3.293.011.011-2.734a8.191,8.191,0,0,0-8.151-8.214l-6.882-.025h-.033a8.188,8.188,0,0,0-8.18,8.152" transform="translate(-456.488 -1045.24)" fill="none"/></clipPath><linearGradient id="h" x1="-6.912" y1="4.021" x2="-6.897" y2="4.021" gradientUnits="objectBoundingBox"><stop offset="0" stop-color="#144980"/><stop offset="1" stop-color="#001c3b"/></linearGradient><clipPath id="i"><path d="M421.962,1082.031l-.107,29.1a3.842,3.842,0,0,0,3.829,3.857l42.284.157a3.845,3.845,0,0,0,3.857-3.83l.107-29.1a3.845,3.845,0,0,0-3.83-3.859l-42.283-.155h-.014a3.844,3.844,0,0,0-3.843,3.831" transform="translate(-421.855 -1078.2)" fill="none"/></clipPath><linearGradient id="j" x1="-2.575" y1="1.101" x2="-2.568" y2="1.101" gradientUnits="objectBoundingBox"><stop offset="0" stop-color="#4b9ad5"/><stop offset="1" stop-color="#195c9f"/></linearGradient><clipPath id="k"><path d="M418.548,1070.893l-.064,17.389a3.3,3.3,0,0,0,3.283,3.307l46.127.169a3.294,3.294,0,0,0,3.307-3.282l.065-17.391a3.3,3.3,0,0,0-3.283-3.307l-46.127-.168h-.012a3.3,3.3,0,0,0-3.295,3.282" transform="translate(-418.484 -1067.611)" fill="none"/></clipPath><linearGradient id="l" x1="-6.243" y1="1.371" x2="-6.229" y2="1.371" xlink:href="#j"/><clipPath id="m"><path d="M480.239,1123.206l-.012,3.3a2.288,2.288,0,0,0,4.575.016l.012-3.295a2.3,2.3,0,0,0-2.278-2.3h-.007a2.3,2.3,0,0,0-2.291,2.28" transform="translate(-480.227 -1120.926)" fill="none"/></clipPath><linearGradient id="n" x1="-20.989" y1="4.447" x2="-20.945" y2="4.447" xlink:href="#h"/><clipPath id="p"><rect width="257.039" height="257.047" fill="none"/></clipPath><clipPath id="q"><path d="M360.95,7.029l-6.334,25.814a95.343,95.343,0,0,0-32.636,5.073L308.162,15.111c-3.228-5.306-13.8-4.779-23.621,1.192-9.825,5.938-15.184,15.073-11.946,20.375L286.372,59.47a95.347,95.347,0,0,0-19.562,26.6l-25.847-6.32c-6.012-1.507-13.128,6.37-15.842,17.509-2.733,11.173-.085,21.391,5.959,22.889l25.819,6.32a95.258,95.258,0,0,0,5.062,32.63l-22.809,13.847c-5.294,3.2-4.757,13.758,1.2,23.6s15.067,15.181,20.385,11.975L283.54,194.68a94.574,94.574,0,0,0,26.567,19.592l-6.344,25.836c-1.453,6.031,6.392,13.123,17.555,15.848,11.138,2.753,21.392.11,22.869-5.95l6.328-25.835a94.481,94.481,0,0,0,32.643-5.063l13.813,22.823c3.225,5.284,13.785,4.777,23.626-1.181,9.783-5.959,15.178-15.1,11.964-20.4l-13.825-22.805a94.6,94.6,0,0,0,19.583-26.582l25.839,6.34c6.045,1.474,13.134-6.375,15.861-17.527,2.719-11.168.054-21.4-5.936-22.886l-25.85-6.33a94.768,94.768,0,0,0-5.084-32.646l22.821-13.8c5.288-3.2,4.77-13.773-1.193-23.6-5.944-9.844-15.069-15.195-20.38-11.988L421.592,62.338a94.688,94.688,0,0,0-26.565-19.59l6.34-25.821c1.477-6.026-6.382-13.119-17.541-15.836-11.178-2.775-21.388-.1-22.876,5.937m37.722,132.794A47.461,47.461,0,1,1,363.877,82.44a47.558,47.558,0,0,1,34.795,57.383" transform="translate(-224.045 0.004)" fill="none"/></clipPath><clipPath id="r"><rect width="139.353" height="139.356" fill="none"/></clipPath><clipPath id="s"><path d="M420.18,285.917a69.658,69.658,0,1,0-40.553-89.777,69.657,69.657,0,0,0,40.553,89.777m47.633-126.126a65.163,65.163,0,1,1-83.984,37.935,65.163,65.163,0,0,1,83.984-37.935" transform="translate(-375.114 -151.074)" fill="none"/></clipPath><linearGradient id="t" x1="-0.632" y1="2.32" x2="-0.63" y2="2.32" gradientUnits="objectBoundingBox"><stop offset="0" stop-color="#89b8e1"/><stop offset="1" stop-color="#4c91ce"/></linearGradient><clipPath id="u"><path d="M27.671,0H163.047a27.671,27.671,0,0,1,27.671,27.671V317.245a27.671,27.671,0,0,1-27.671,27.671H27.672A27.672,27.672,0,0,1,0,317.244V27.671A27.671,27.671,0,0,1,27.671,0Z" fill="none"/></clipPath><clipPath id="v"><path d="M5.41,0h0a5.41,5.41,0,0,1,5.41,5.41v0a5.41,5.41,0,0,1-5.41,5.41h0A5.41,5.41,0,0,1,0,5.411v0A5.41,5.41,0,0,1,5.41,0Z" fill="none"/></clipPath><linearGradient id="w" x1="-35.906" y1="40.75" x2="-35.87" y2="40.75" gradientUnits="objectBoundingBox"><stop offset="0" stop-color="#cce9fa"/><stop offset="1" stop-color="#93c6eb"/></linearGradient><clipPath id="x"><path d="M5.41,0h0a5.411,5.411,0,0,1,5.411,5.411v0a5.41,5.41,0,0,1-5.41,5.41h0A5.41,5.41,0,0,1,0,5.411v0A5.41,5.41,0,0,1,5.41,0Z" fill="none"/></clipPath><linearGradient id="y" x1="-37.572" y1="40.75" x2="-37.536" y2="40.75" xlink:href="#w"/><clipPath id="z"><path d="M5.411,0h0a5.411,5.411,0,0,1,5.411,5.411v0a5.41,5.41,0,0,1-5.41,5.41h0A5.411,5.411,0,0,1,0,5.411v0A5.411,5.411,0,0,1,5.411,0Z" fill="none"/></clipPath><linearGradient id="aa" x1="-39.232" y1="40.75" x2="-39.196" y2="40.75" xlink:href="#w"/><clipPath id="ac"><path d="M843.173,805.318H899.88l-17.31-33.812-6.282,12.272L865.244,762.2Z" transform="translate(-843.173 -762.205)" fill="#2a488e"/></clipPath><clipPath id="ad"><path d="M978.657,749.437a5.374,5.374,0,1,0,5.374-5.405,5.389,5.389,0,0,0-5.374,5.405" transform="translate(-978.657 -744.032)" fill="#2a488e"/></clipPath><clipPath id="ae"><path d="M707.041,171.476a38.5,38.5,0,0,0,15.273,30.731v0l.064.047c.218.165.441.323.663.483.237.172.476.343.717.51s.464.314.7.467.489.317.736.472.469.292.707.434c.266.159.535.311.8.463.225.127.448.256.675.378q.649.349,1.314.673c.224.11.452.213.679.319.337.157.674.312,1.014.458.227.1.456.189.684.282.31.127.621.25.935.369q.351.133.7.257.488.173.982.333c.224.072.447.146.672.215.4.121.8.232,1.2.34.161.043.32.092.482.133q.836.214,1.686.389c.174.036.349.065.523.1.409.079.82.154,1.233.22.217.035.436.065.654.1q.574.081,1.153.146c.222.025.442.049.665.069.409.039.82.069,1.233.094.2.012.389.027.585.036.607.028,1.216.046,1.829.046s1.222-.018,1.828-.046c.2-.009.389-.025.584-.036.413-.026.825-.056,1.235-.094.222-.021.442-.044.662-.069q.583-.065,1.16-.147c.216-.031.432-.061.647-.095.419-.067.835-.143,1.249-.223.169-.033.339-.061.507-.1q.854-.177,1.694-.391c.152-.039.3-.084.451-.125.413-.111.824-.226,1.232-.35.218-.066.433-.137.648-.208.339-.11.676-.223,1.01-.342q.342-.122.682-.249c.325-.122.646-.25.967-.381.219-.089.438-.176.655-.27.361-.155.717-.319,1.072-.485.166-.078.335-.15.5-.23q.735-.356,1.452-.744c.215-.115.425-.238.637-.357.283-.159.565-.319.844-.485.229-.137.456-.277.682-.419q.384-.24.763-.489c.227-.15.455-.3.678-.455.249-.171.494-.348.739-.525.216-.156.432-.309.645-.469l.068-.049v0a38.561,38.561,0,1,0-61.852-30.73" transform="translate(-707.041 -132.913)" fill="none"/></clipPath><linearGradient id="af" x1="-3.571" y1="5.493" x2="-3.566" y2="5.493" xlink:href="#j"/><clipPath id="ah"><path d="M774.005,176.015a12.479,12.479,0,1,0,12.479-12.478,12.479,12.479,0,0,0-12.479,12.478" transform="translate(-774.005 -163.537)" fill="none"/></clipPath><linearGradient id="ai" x1="-12.08" y1="16.497" x2="-12.065" y2="16.497" xlink:href="#j"/><clipPath id="aj"><path d="M757.156,240.357q-2.092,7.649-4.185,15.3a34.224,34.224,0,0,0,41.343,0l-4.184-15.3c-1.972-7.14-9.383-10.71-16.717-10.71s-14.592,3.57-16.257,10.71" transform="translate(-752.971 -229.647)" fill="none"/></clipPath><linearGradient id="ak" x1="-7.094" y1="11.711" x2="-7.085" y2="11.711" xlink:href="#j"/><clipPath id="am"><path d="M19.116,0H156.978a19.115,19.115,0,0,1,19.115,19.115V97.367a19.115,19.115,0,0,1-19.115,19.115H19.115A19.115,19.115,0,0,1,0,97.367V19.116A19.116,19.116,0,0,1,19.116,0Z" fill="none"/></clipPath><clipPath id="ao"><path d="M772.048,450.165l19.527-11.274-19.527-11.274Z" transform="translate(-772.048 -427.618)" fill="none"/></clipPath><linearGradient id="ap" x1="-15.401" y1="13.698" x2="-15.381" y2="13.698" xlink:href="#j"/><clipPath id="aq"><path d="M18.2,0H29.274a18.2,18.2,0,0,1,18.2,18.2v0a18.2,18.2,0,0,1-18.2,18.2H18.2A18.2,18.2,0,0,1,0,18.2v0A18.2,18.2,0,0,1,18.2,0Z" fill="none"/></clipPath><clipPath id="au"><rect width="1.494" height="82.904" transform="translate(0 0.225) rotate(-8.678)" fill="none"/></clipPath><linearGradient id="av" x1="-15.361" y1="3.159" x2="-15.333" y2="3.159" xlink:href="#h"/><clipPath id="aw"><path d="M110.555,478.824,95.634,586.294H269.716l14.921-107.47Z" transform="translate(-95.634 -478.824)" fill="none"/></clipPath><linearGradient id="ax" x1="-0.197" y1="2.688" x2="-0.195" y2="2.688" xlink:href="#h"/><clipPath id="ay"><path d="M99.243,478.824,84.322,586.294H258.4l14.921-107.47Z" transform="translate(-84.322 -478.824)" fill="#c6d4ef"/></clipPath><clipPath id="ba"><rect width="59.499" height="83.354" fill="none"/></clipPath><clipPath id="bb"><rect width="82.793" height="49.189" fill="none"/></clipPath><clipPath id="bc"><path d="M64.477,779.286,51.229,932.323h2.546L71.5,779.286Z" transform="translate(-51.229 -779.286)" fill="none"/></clipPath><linearGradient id="bd" x1="-0.984" y1="1.123" x2="-0.965" y2="1.123" gradientUnits="objectBoundingBox"><stop offset="0" stop-color="#8ab9e4"/><stop offset="1" stop-color="#4a93d0"/></linearGradient><clipPath id="be"><path d="M123.092,779.286l17.721,153.037h2.547L130.112,779.286Z" transform="translate(-123.092 -779.286)" fill="none"/></clipPath><linearGradient id="bf" x1="-2.365" y1="1.123" x2="-2.346" y2="1.123" xlink:href="#bd"/><clipPath id="bg"><path d="M534.051,779.286,520.8,932.323h2.547l17.721-153.037Z" transform="translate(-520.803 -779.286)" fill="none"/></clipPath><linearGradient id="bh" x1="-10.008" y1="1.123" x2="-9.989" y2="1.123" xlink:href="#bd"/><clipPath id="bi"><path d="M592.666,779.286l17.721,153.037h2.547L599.686,779.286Z" transform="translate(-592.666 -779.286)" fill="none"/></clipPath><linearGradient id="bj" x1="-11.389" y1="1.123" x2="-11.37" y2="1.123" xlink:href="#bd"/><clipPath id="bk"><rect width="226.92" height="12.977" fill="#2761cc"/></clipPath><clipPath id="bl"><rect width="226.92" height="2.01" fill="none"/></clipPath><linearGradient id="bm" x1="-0.097" y1="84.051" x2="-0.096" y2="84.051" xlink:href="#h"/><clipPath id="bn"><path d="M695.087,983.53c.106-.012.21-.023.315-.031l.478-.044c.11-.014.213-.034.317-.055l.163-.029c.11-.021.218-.042.326-.061.207-.037.413-.074.616-.126l.919-.245c.2-.054.4-.123.6-.19.1-.037.21-.073.315-.108l.452-.152.448-.182c.1-.042.207-.082.308-.121.195-.078.389-.156.579-.242l.863-.395.855-.431c.2-.1.4-.208.593-.317l.247-.137c.28-.153.556-.311.83-.477.53-.312,1.075-.655,1.618-1.017.3-.2.575-.387.837-.574-.011.056-.022.112-.035.171l-.025.109-.092.3c-.027.086-.055.171-.078.257-.039.131-.078.258-.12.382a9.091,9.091,0,0,1-1.234,2.248,9.77,9.77,0,0,1-1.857,1.779,12.323,12.323,0,0,1-2.249,1.269,16.9,16.9,0,0,1-2.454.83,22.816,22.816,0,0,1-2.556.489,19.534,19.534,0,0,1-2.034.2c.005-.276.012-.558.025-.844l.069-2.232.319.005h.037c.031,0,.063,0,.094,0a5.044,5.044,0,0,0,.515-.037m-2.319,3.113a10.532,10.532,0,0,1-1.835-.239,7.749,7.749,0,0,1-2.353-.944,5.954,5.954,0,0,1-1.832-1.737,6.485,6.485,0,0,1-.973-2.378,10.17,10.17,0,0,1-.135-2.626,13.2,13.2,0,0,1,.467-2.617c.084-.3.178-.6.277-.888a3.862,3.862,0,0,0,.267,1.248,7.464,7.464,0,0,0,.657,1.281,14.9,14.9,0,0,0,1.738,2.219,23.845,23.845,0,0,0,2.013,1.937c.379.319.735.6,1.092.872.187.141.376.278.572.407.1.068.2.132.3.2.053.031.108.064.168.094s.075.036.109.05c.007,0,.044.013.073.022a.09.09,0,0,0,.026,0l-.035,2.237c-.007.3-.01.588-.011.872-.2,0-.4,0-.589-.009m1.693-3.736-.319-.013.167-5.457.213-3.8.019-.006c.145-.045.284-.1.418-.147l.228-.081a4.285,4.285,0,0,0,.414-.172c.068-.032.139-.064.211-.093.186-.076.382-.171.618-.293.067-.035.134-.067.2-.1.135-.065.269-.132.4-.21l.8-.447c.311-.185.633-.375.941-.576.725-.457,1.45-.954,2.222-1.514.679-.5,1.279-.953,1.829-1.4.044.137.088.276.14.413a7.5,7.5,0,0,0,.623,1.3,10.314,10.314,0,0,0,.816,1.166l.463.529.458.467a13.964,13.964,0,0,1,1.119,2.305,7.189,7.189,0,0,1,.463,2.509,6.686,6.686,0,0,1-.063.817c-.344.238-.711.481-1.116.734-.547.347-1.093.672-1.623.966-.274.157-.55.308-.827.447l-.258.136c-.193.1-.383.2-.58.29l-.856.408-.86.372c-.185.081-.37.151-.556.222-.107.039-.211.079-.316.12l-.438.165-.44.141c-.1.03-.212.065-.32.1-.189.06-.376.122-.568.168l-.906.226c-.19.042-.384.074-.579.105-.109.017-.22.036-.328.058l-.16.025c-.1.017-.193.033-.289.044l-.459.034c-.1,0-.211.013-.319.024-.14.012-.272.024-.4.024a1.653,1.653,0,0,1-.177-.009m-7.434-9.3a11.992,11.992,0,0,0,.448-2.973c-.038-.447-.067-.88-.1-1.318-.049-.762-.1-1.552-.2-2.327a11.906,11.906,0,0,0-.271-1.472c.134.233.266.456.392.671.515.846,1.133,1.841,1.8,2.805.647.936,1.326,1.83,2.02,2.651.3.352.7.811,1.142,1.234a6.616,6.616,0,0,0,.657.56l.053.039a1.643,1.643,0,0,0,.756.324l-.205,3.614c-.035.879-.049,1.743-.062,2.581l-.044,2.813-.044-.027c-.088-.054-.177-.115-.266-.179-.183-.127-.362-.264-.54-.4-.329-.255-.674-.537-1.047-.861-.656-.556-1.329-1.178-2-1.849a17.577,17.577,0,0,1-1.762-2.063,8.037,8.037,0,0,1-.69-1.153,3.207,3.207,0,0,1-.35-1.261.187.187,0,0,0-.159-.164.152.152,0,0,0-.051.011q.234-.645.519-1.252m7.724-4.04.656-7.429.018-.132.427-.086c.226-.046.445-.108.664-.172.118-.034.234-.068.352-.1.253-.064.5-.15.744-.232l.257-.089c.355-.119.672-.23.989-.362l.338-.135c.21-.083.421-.167.628-.255l.953-.423c.208-.092.413-.189.616-.288.111-.054.219-.109.329-.159.316-.152.629-.3.94-.47.623-.315,1.243-.656,1.839-.985.675-.384,1.236-.7,1.808-1.05,1-.6,1.9-1.164,2.718-1.708-.012.024-.021.049-.034.073a4.517,4.517,0,0,1-.755,1.044l-.978.971a27.34,27.34,0,0,0-1.859,2.1c-.3.373-.577.754-.836,1.137-.319.473-.549.846-.747,1.212a11.557,11.557,0,0,0-.622,1.293,10.093,10.093,0,0,0-.451,1.369,8.489,8.489,0,0,0-.219,1.448,6.854,6.854,0,0,0,.07,1.462,6.206,6.206,0,0,0,.122.632c-.586.447-1.227.914-1.957,1.415-.779.537-1.509,1.007-2.238,1.441-.285.174-.574.337-.866.5l-.283.163-.583.3c-.126.07-.255.13-.382.19-.07.031-.14.067-.21.1-.229.111-.416.2-.592.265q-.108.043-.218.091a4.009,4.009,0,0,1-.382.149l-.228.078c-.074.027-.148.051-.222.074Zm-1.48,3.366a5.81,5.81,0,0,1-.581-.521c-.41-.415-.784-.866-1.064-1.212-.662-.825-1.3-1.708-1.91-2.561l-.051-.072c-.551-.781-1.239-1.756-1.868-2.712-.625-.927-1.23-1.861-1.8-2.778a.126.126,0,0,0-.048-.043l-.327-.895c-.3-.817-.6-1.635-.894-2.458a16.234,16.234,0,0,1-.888-3.928,7.056,7.056,0,0,1,.762-3.866,5.693,5.693,0,0,1,.369-.631c.051-.077.1-.154.151-.231l.193-.25c.139-.179.276-.359.422-.533l.8-.985.033.63a4.361,4.361,0,0,0,.089.758c.015.084.03.166.043.251l.027.148a5.85,5.85,0,0,0,.2.854l.1.326c.063.212.125.424.194.63l.38.938a5.267,5.267,0,0,0,.285.6c.054.1.108.2.159.308l.232.446.261.434c.064.1.123.2.182.3.111.183.226.376.354.554l.574.807.623.781c.141.182.3.354.449.521q.105.113.206.226c.165.193.345.374.523.557l.161.165c.4.414.861.842,1.443,1.353.471.405.985.832,1.553,1.236a.3.3,0,0,0,.085.042l-.717,7.4-.211,3.687a1.466,1.466,0,0,1-.489-.268M695.938,958c.045-.324.085-.651.126-.976.093-.758.192-1.542.336-2.3l.551-3.223q.047-.278.1-.562c.033-.2.071-.405.108-.608a7.806,7.806,0,0,0,1.667-.494c.206-.08.411-.175.606-.267.1-.051.208-.1.315-.148l.876-.458c.584-.328,1.122-.649,1.6-.958.444-.288.9-.591,1.384-.929,1.131-.8,1.984-1.465,2.42-1.816.035.1.067.2.1.3l.109.251c.067.159.136.314.206.47l.357.69.381.67,1.158,1.961.349.662.306.673.247.694.172.706.091.874a4.1,4.1,0,0,1,.011.5,4.718,4.718,0,0,1-.082.636,4.561,4.561,0,0,1-.153.547c-.948.616-1.986,1.247-3.173,1.927-.582.341-1.166.657-1.815,1.008-.584.309-1.208.633-1.843.942-.308.157-.619.3-.931.447-.113.051-.224.1-.334.155-.2.1-.4.189-.605.275l-.952.4c-.2.085-.411.162-.618.24l-.342.129c-.3.122-.605.223-.966.337l-.257.085c-.233.077-.474.159-.713.212l-.359.094c-.209.056-.419.112-.631.155l-.229.04Zm-2.453,2.32c-.508-.46-.96-.9-1.385-1.345l-.16-.167c-.169-.175-.336-.351-.494-.538-.086-.1-.171-.2-.259-.292-.128-.143-.257-.287-.376-.437l-.613-.756-.568-.78c-.126-.164-.238-.338-.347-.509-.063-.1-.126-.2-.193-.294l-.26-.408-.231-.418c-.051-.1-.11-.2-.167-.3a4.447,4.447,0,0,1-.279-.542l-.408-.9c-.072-.186-.14-.384-.208-.579l-.115-.334a4.437,4.437,0,0,1-.2-.7l-.052-.228c-.019-.082-.039-.164-.061-.247a4.085,4.085,0,0,1-.131-.694l-.119-.985.173-.213a40.14,40.14,0,0,0,2.416-3.325,20.507,20.507,0,0,0,1.9-3.674c.037-.092.071-.185.106-.278.023.124.052.264.091.422.074.316.174.676.3,1.065s.276.855.471,1.349c.2.527.425,1.052.651,1.558s.489,1.032.845,1.682a13.58,13.58,0,0,0,1.117,1.7,5.912,5.912,0,0,0,.734.785,2.664,2.664,0,0,0,.482.325,1.32,1.32,0,0,0,.357.12c-.029.154-.058.308-.085.462-.033.184-.064.367-.1.552l-.572,3.222c-.152.77-.256,1.565-.358,2.335-.041.319-.084.641-.13.96l-.474,3.5c-.481-.37-.943-.771-1.3-1.089m4.724-14.945c.151-.6.311-1.205.47-1.8.093-.351.188-.7.278-1.046l.363-1.37c.079-.284.169-.564.26-.84.051-.155.1-.31.148-.464l.431-1.335.494-.01a4.373,4.373,0,0,0,.44-.034c.074-.008.149-.018.225-.023a6.249,6.249,0,0,0,.667-.093l.208-.036c.15-.025.3-.05.448-.086l.638-.144.638-.176c.175-.043.346-.1.519-.153l.286-.092c.155-.048.308-.1.459-.154.715-.241,1.472-.54,2.447-.966.6-.268,1.144-.524,1.65-.778a22.193,22.193,0,0,1-1.227,2.23c-.181.295-.366.59-.551.885-.534.851-1.087,1.733-1.554,2.657a.159.159,0,0,0-.018.041l-.192.788c-.028.191-.04.368-.053.548-.007.088-.014.179-.021.266,0,.2.016.376.029.553.007.086.014.174.018.262.047.249.1.483.144.714l.018.08.039.109c-.409.309-1.316.98-2.545,1.795-.5.324-.952.612-1.391.878-.574.345-1.1.64-1.592.9l-.864.428c-.1.04-.208.089-.317.138-.188.082-.382.171-.577.237a7.688,7.688,0,0,1-1.348.394Zm-1.636,4.367a.467.467,0,0,1-.095-.037l-.065-.032a2.075,2.075,0,0,1-.339-.247,5.094,5.094,0,0,1-.624-.711,14.084,14.084,0,0,1-1.028-1.634c-.284-.5-.533-.989-.774-1.467l-.08-.159c-.239-.482-.474-.985-.7-1.494l-.091-.21c-.167-.388-.323-.749-.452-1.079-.15-.387-.274-.73-.372-1.01a6.367,6.367,0,0,1-.252-.887.142.142,0,0,0-.028-.059c.106-.328.2-.676.3-1.046.068-.287.129-.571.187-.851.08-.383.163-.774.263-1.155a13.915,13.915,0,0,1,.633-1.912,16.592,16.592,0,0,1,.909-1.8,14.88,14.88,0,0,1,2.457-3.152c.323-.312.665-.6,1.015-.875-.034.158-.057.323-.074.479-.007.084-.015.143-.022.2a3.068,3.068,0,0,0-.033.434l0,.6c0,.153.015.3.029.458l.012.157a5.822,5.822,0,0,0,.08.612c.014.068.025.138.035.208.023.131.044.262.075.392l.138.582c.123.443.247.818.378,1.16a11.869,11.869,0,0,0,.474,1.106c.171.355.36.715.565,1.061.187.325.375.62.57.9l-.467,1.405c-.049.152-.1.3-.15.457-.1.283-.192.569-.274.862l-.379,1.372c-.084.312-.169.619-.257.931-.172.632-.352,1.275-.516,1.931l-1.012,4.518a.369.369,0,0,0-.038-.012m4.077-11.859-.284,0,.165-.506.3-.791c.469-1.238.912-2.406,1.394-3.411l.406-.905.416-.8c.084-.157.164-.314.243-.468.175-.337.34-.657.519-.93.095-.152.181-.3.265-.436.144-.242.279-.468.414-.661l.226-.324c.118-.173.225-.322.322-.453l.5-.6a7.378,7.378,0,0,1,1.642.464,4.706,4.706,0,0,1,2.7,2.524c.021.083.054.187.088.288a2.353,2.353,0,0,1,.143.619l.065.5-.005.492a7.559,7.559,0,0,1-.352,1.928c-.09.286-.194.567-.311.849-.616.3-1.284.591-2.04.9-.4.162-.808.313-1.216.462-.375.136-.778.272-1.229.417-.149.051-.3.093-.445.135l-.283.081c-.168.049-.337.1-.508.139l-.631.156-.629.125a3.992,3.992,0,0,1-.418.07c-.071.011-.144.02-.212.03a5.79,5.79,0,0,1-.626.074c-.076,0-.155.009-.232.016-.115.01-.23.02-.345.02h-.049M699.16,936c-.064-.134-.122-.267-.178-.4l-.052-.125c-.076-.177-.15-.351-.218-.53l-.046-.121c-.053-.137-.107-.275-.15-.416l-.185-.556-.156-.553c-.034-.116-.059-.235-.082-.352-.014-.07-.029-.138-.047-.206a4.981,4.981,0,0,1-.1-.557c-.011-.082-.023-.161-.036-.24a2.962,2.962,0,0,1-.044-.332l-.04-.583a2.516,2.516,0,0,1,0-.339,2.171,2.171,0,0,0,.005-.238,3.825,3.825,0,0,1,.032-.559l.036-.315a12.9,12.9,0,0,1,1.752-1.06,10.512,10.512,0,0,1,1.827-.724,10.085,10.085,0,0,1,1.909-.3,8.646,8.646,0,0,1,1.622.034l-.318.388c-.105.139-.215.293-.338.467l-.23.323c-.145.2-.289.436-.438.684q-.125.205-.264.425c-.19.289-.363.617-.546.964-.078.151-.16.3-.245.459l-.55,1.07-.3.651c-.5,1.016-.957,2.194-1.443,3.443l-.309.795-.1.295A16.712,16.712,0,0,1,699.16,936m4.2-9.063a10.467,10.467,0,0,0-2.022.327,10.841,10.841,0,0,0-1.915.765,13.4,13.4,0,0,0-3.345,2.392,15.27,15.27,0,0,0-2.537,3.273,16.931,16.931,0,0,0-.935,1.862,14.486,14.486,0,0,0-.644,1.988c-.1.391-.183.793-.263,1.18-.058.279-.114.557-.177.831a15.893,15.893,0,0,1-.6,1.925,20.154,20.154,0,0,1-1.837,3.6,39.471,39.471,0,0,1-2.371,3.3l-1.273,1.593c-.147.177-.29.364-.434.551l-.2.261c-.056.089-.106.167-.155.242a5.986,5.986,0,0,0-.39.669,7.5,7.5,0,0,0-.793,4.077,16.561,16.561,0,0,0,.918,4.025c.291.826.6,1.644.9,2.464q.253.68.506,1.366a9.124,9.124,0,0,1,1.04,3.4c.1.763.152,1.547.2,2.3.029.437.059.871.1,1.309a11.842,11.842,0,0,1-.442,2.81,16.071,16.071,0,0,0-.962,2.537,13.51,13.51,0,0,0-.5,2.693,10.586,10.586,0,0,0,.118,2.746,6.9,6.9,0,0,0,1.02,2.556,6.424,6.424,0,0,0,1.96,1.894,8.134,8.134,0,0,0,2.488,1.028,11.193,11.193,0,0,0,2.05.277c.161.009.328.009.493.009,0,.351.01.689.016.992l.034,2.166c.012.835.024,1.6.038,2.293l-.076,3.779.708-.106-.062-3.688c0-.7,0-1.456,0-2.289v-2.168c0-.312,0-.644,0-.99a20.455,20.455,0,0,0,2.112-.19,19.4,19.4,0,0,0,5.17-1.31,12.988,12.988,0,0,0,2.38-1.313,10.492,10.492,0,0,0,2.009-1.89,9.844,9.844,0,0,0,1.371-2.448c.053-.155.1-.3.146-.458l.188-.65c.021-.079.039-.159.053-.239a7.194,7.194,0,0,0,.144-1.409,7.832,7.832,0,0,0-.507-2.759,14.515,14.515,0,0,0-1.2-2.457.448.448,0,0,0-.051-.067l-.476-.483-.437-.5a9.833,9.833,0,0,1-.753-1.078,7.3,7.3,0,0,1-.571-1.184,6.217,6.217,0,0,1-.326-1.266,6.133,6.133,0,0,1-.062-1.318,7.627,7.627,0,0,1,.2-1.313,9.266,9.266,0,0,1,.417-1.266,10.767,10.767,0,0,1,.586-1.218,20.758,20.758,0,0,1,3.313-4.311l.975-.975a5.283,5.283,0,0,0,.867-1.2,5.145,5.145,0,0,0,.5-1.4,5.518,5.518,0,0,0,.09-.749,5.082,5.082,0,0,0-.023-.671l0-.059h0v-.018a.066.066,0,0,1,0-.014l-.088-.76-.193-.782-.271-.75-.328-.716-.366-.686-.386-.667-1.163-1.954-.344-.661-.3-.679-.236-.695-.146-.711c0-.068-.01-.16-.016-.25-.012-.153-.026-.309-.028-.463.008-.074.014-.165.021-.258.01-.152.021-.305.042-.457l.164-.685c.445-.885.983-1.747,1.5-2.581q.278-.446.551-.893a16.988,16.988,0,0,0,1.825-3.742,8.128,8.128,0,0,0,.373-2.1v-.517l-.07-.552a2.906,2.906,0,0,0-.174-.744c-.031-.1-.063-.2-.091-.294a5.234,5.234,0,0,0-3.023-2.841,8.78,8.78,0,0,0-1.976-.531c-.394-.042-.712-.07-1.005-.082q-.225-.012-.434-.012c-.214,0-.417.009-.613.026" transform="translate(-683.453 -926.909)" fill="none"/></clipPath><linearGradient id="bo" x1="-6.27" y1="1.58" x2="-6.26" y2="1.58" xlink:href="#h"/><clipPath id="bp"><path d="M736.831,944.773q-1.365,1.437-2.641,2.858a17.357,17.357,0,0,0-3.88-8.169c.75,1.733.693,5.182,3.14,9q-1.81,2.059-3.432,4.083a17.674,17.674,0,0,0-5.729-9.317c1.18,1.894,1.679,6,5.195,9.992q-1.919,2.429-3.584,4.808a22.575,22.575,0,0,0-7.2-11.459c1.488,2.336,2.189,7.357,6.612,12.312q-1.915,2.795-3.5,5.5a26.442,26.442,0,0,0-8.368-13.152c1.738,2.707,2.587,8.5,7.729,14.25-1.209,2.12-2.273,4.189-3.212,6.206a.543.543,0,0,1,.168-.474,27.461,27.461,0,0,0-11.152-12.467c2.3,2.517,4.2,8.518,10.7,13.557a76.935,76.935,0,0,0-2.933,7.412,36.711,36.711,0,0,0-12.794-13.187c2.644,2.7,5.184,8.693,12.424,14.319a67.326,67.326,0,0,0-2.077,8.286,35.963,35.963,0,0,0-12.45-10.724c2.581,2.208,5.393,7.178,12.271,11.754a58.368,58.368,0,0,0-.762,7.458,37.019,37.019,0,0,0-10.794-7.833c2.253,1.638,4.967,5.175,10.748,8.643a.581.581,0,0,0-.033.161c.019,0,.036,0,.053,0a44.692,44.692,0,0,0,.33,6.5c.062-.01.121-.018.183-.028a55.379,55.379,0,0,1,.073-6.477c5.044-.069,8.492-3.059,10.633-3.521a13.876,13.876,0,0,0-10.535,2.3,62.544,62.544,0,0,1,1.031-6.983c7.525.356,12.449-2.488,15.582-2.818a26.54,26.54,0,0,0-15.347,1.7,73.974,73.974,0,0,1,2.234-7.919c7.478.935,12.63-1.493,15.792-1.566a26.7,26.7,0,0,0-15.378.381c.875-2.436,1.851-4.8,2.9-7.084a31.888,31.888,0,0,0,11.566.363,26.015,26.015,0,0,1,4.477-.341,26.792,26.792,0,0,0-15.549-1.077c.98-2.067,2.014-4.061,3.077-5.972a31.242,31.242,0,0,0,10.908.686,23.3,23.3,0,0,1,4.1-.133,25.5,25.5,0,0,0-14.343-1.732c1.088-1.9,2.2-3.707,3.305-5.417a26.625,26.625,0,0,0,9.605.662,20.068,20.068,0,0,1,3.5-.111,21.913,21.913,0,0,0-12.524-1.442c1.058-1.607,2.112-3.121,3.133-4.532a24.7,24.7,0,0,0,8.669.562,18.436,18.436,0,0,1,3.232-.1,20.062,20.062,0,0,0-11.228-1.378c1.127-1.531,2.212-2.927,3.217-4.183a20.938,20.938,0,0,0,7.674-.21,19.648,19.648,0,0,1,3.221-.477,20.229,20.229,0,0,0-9.943-.488c1.023-1.244,1.94-2.315,2.717-3.2,4-1.532,4.92-4.888,6.227-5.927a9.613,9.613,0,0,0-7.038,6.14" transform="translate(-699.845 -938.633)" fill="none"/></clipPath><linearGradient id="bq" x1="-3.231" y1="1.475" x2="-3.226" y2="1.475" xlink:href="#bd"/><clipPath id="br"><path d="M651.4,1022.918a11.947,11.947,0,0,1-2.975-1.058,15.079,15.079,0,0,1-2.658-1.721q-.577-.463-1.107-.953a3.273,3.273,0,0,0,.254-.3c.058-.077.116-.152.185-.23.187-.227.36-.429.539-.614a8.994,8.994,0,0,1,1.211-1.081,8.464,8.464,0,0,1,1.386-.835c.244-.116.5-.218.743-.307a7.764,7.764,0,0,1,.771-.234,9.175,9.175,0,0,1,3.2-.214c.234.017.472.054.7.091l.1.017c.173.021.349.061.519.1.092.02.184.041.271.058.168.037.335.085.5.13.1.027.193.053.282.075l.658.212c.016.052.034.1.048.152l.442,1.5c.389,1.344.73,2.716,1.028,4.094-.019.014-.036.026-.053.041a7.515,7.515,0,0,1-2.912,1.154,7.945,7.945,0,0,1-1.333.111,9.076,9.076,0,0,1-1.8-.187m5.918-5.464-.46-1.5c-.011-.032-.022-.064-.031-.1.2-.1.4-.209.613-.338.314-.184.639-.4,1.032-.687.35-.268.658-.531.943-.792.115-.1.219-.206.32-.31l.121-.125c.145-.144.277-.3.414-.457.211-.233.4-.487.583-.732.06-.079.12-.159.185-.246l.119-.182a8.443,8.443,0,0,0,.516-.868,9.076,9.076,0,0,0,.525-1.108c.079-.183.144-.373.2-.561.009.114.02.22.026.334a19.457,19.457,0,0,1-.174,3.4,17.248,17.248,0,0,1-.832,3.293,11.883,11.883,0,0,1-3.134,4.7c-.292-1.3-.609-2.538-.97-3.719m-13.859.509a20.367,20.367,0,0,1-1.946-2.5,22.176,22.176,0,0,1-1.585-2.748c-.133-.26-.254-.527-.373-.8a12.47,12.47,0,0,1,1.217-.845c.175-.115.361-.217.541-.316.105-.056.209-.114.307-.17.186-.1.374-.19.564-.282l.311-.153.906-.375c.2-.076.4-.14.6-.205.112-.037.222-.073.334-.113a5.479,5.479,0,0,1,.593-.161c.116-.028.234-.054.351-.085a7.124,7.124,0,0,1,.948-.185c.078-.01.152-.022.229-.035a5.558,5.558,0,0,1,.736-.083l.967-.055.985.044a4.694,4.694,0,0,1,.737.079c.071.011.144.025.212.035q.173.031.348.054a4.113,4.113,0,0,1,.6.119l.947.263a4.353,4.353,0,0,1,.7.243c.067.03.136.056.2.085l.838.342c.25.567.483,1.114.7,1.655l.586,1.461.521,1.488c.058.178.123.355.186.532.008.022.015.044.021.065l-.247-.071c-.1-.024-.19-.047-.286-.068-.177-.042-.354-.087-.538-.122-.1-.017-.2-.037-.3-.056-.174-.033-.353-.068-.531-.088l-.093-.011c-.245-.033-.5-.066-.748-.08a9.851,9.851,0,0,0-3.369.3c-.247.07-.5.152-.811.27a8.317,8.317,0,0,0-.771.35,8.827,8.827,0,0,0-1.424.917,9.392,9.392,0,0,0-1.221,1.161c-.175.2-.35.409-.532.645q-.094.117-.183.245a3.484,3.484,0,0,1-.225.28c-.352-.338-.688-.682-1-1.035m-4.727-8.184a25.1,25.1,0,0,1-.783-3.073c-.082-.369-.131-.749-.179-1.116-.019-.15-.04-.3-.06-.447-.059-.565-.1-1.081-.126-1.573,0-.12,0-.238,0-.356a10.7,10.7,0,0,1,1.3-.617c.243-.092.53-.2.818-.292.1-.03.2-.059.3-.09.175-.054.356-.109.533-.148.1-.021.207-.046.31-.068.178-.043.361-.087.542-.115.106-.015.211-.029.315-.048.151-.023.3-.047.452-.067l.963-.075c.184-.009.37-.008.554-.006.1,0,.21,0,.318,0a5.81,5.81,0,0,1,.72.042l.133.013c.094.01.183.02.278.028a3.756,3.756,0,0,1,.581.08l.854.163c.178.038.358.092.53.146.1.03.2.061.3.089l.167.048a4.489,4.489,0,0,1,.649.225l.812.33a3.231,3.231,0,0,1,.5.24c.09.051.18.1.268.144l.492.261c.536.894,1.035,1.777,1.487,2.595.618,1.178,1.137,2.22,1.59,3.2l-.237-.091c-.07-.026-.14-.051-.208-.079a4.691,4.691,0,0,0-.754-.247l-.97-.248a4.15,4.15,0,0,0-.658-.11c-.115-.018-.23-.031-.35-.051l-.215-.03a4.959,4.959,0,0,0-.794-.071l-1.012-.026-1,.075a5.586,5.586,0,0,0-.777.1c-.075.014-.151.028-.231.041a7.41,7.41,0,0,0-.985.214c-.11.031-.221.059-.33.089a5.88,5.88,0,0,0-.635.191c-.109.041-.221.08-.331.121-.2.071-.407.145-.611.228l-.917.408c-.1.056-.209.111-.314.165-.19.1-.382.2-.573.3-.1.062-.2.121-.3.183-.183.107-.372.217-.549.339a13.952,13.952,0,0,0-1.156.844c-.263-.624-.5-1.255-.708-1.862m17.791,5.2c-.066-.176-.13-.353-.194-.534l-.543-1.5-.606-1.473c-.21-.515-.439-1.042-.686-1.59l.045-.032.092-.067.215-.158c.149-.115.3-.231.438-.351a14.04,14.04,0,0,0,1.075-.985,14.336,14.336,0,0,0,.975-1.077l.026-.036c.145-.171.294-.353.426-.541.048-.07.1-.138.145-.205.093-.128.186-.255.272-.391l.385-.614c.082-.136.157-.277.231-.417.038-.075.078-.15.116-.221a5.2,5.2,0,0,0,.319-.67c.029-.076.063-.155.1-.232a4.531,4.531,0,0,0,.174-.443l.222-.686a4.337,4.337,0,0,0,.122-.5c.015-.069.029-.141.044-.208a4.477,4.477,0,0,0,.117-.726l.018-.184c.083.159.166.319.24.483l.367.764.325.8c.156.352.279.728.4,1.089.054.172.111.343.169.508l.062.22c.133.467.268.948.368,1.428a19.513,19.513,0,0,1,.364,2.329l0,.006c-.073.147-.14.3-.2.448a7.03,7.03,0,0,1-.307.636l-.282.526c-.06.11-.127.215-.2.319-.037.061-.077.122-.114.183l-.028.047a5.188,5.188,0,0,1-.3.438l-.342.474-.189.232c-.182.221-.371.453-.594.676-.125.133-.255.276-.394.4-.062.058-.123.117-.183.176-.083.078-.162.154-.247.229-.28.25-.574.494-.9.744-.283.208-.618.452-.966.664-.166.1-.324.2-.477.284-.029-.082-.059-.166-.089-.248m-4.093-9.25c-.417-.735-.871-1.525-1.355-2.329l.281-.337c.143-.167.284-.34.419-.515.278-.358.541-.722.781-1.081a13.271,13.271,0,0,0,1.235-2.371,10.418,10.418,0,0,0,.691-2.584,8.529,8.529,0,0,0,.088-1.335c0-.219-.014-.445-.034-.663a3.449,3.449,0,0,0-.043-.36c.254.223.512.441.755.672a26.294,26.294,0,0,1,2.306,2.5c.238.3.471.615.7.919.108.149.216.3.322.437.108.172.22.344.333.511.2.3.4.61.581.925.073.134.15.268.224.4.033.055.065.113.1.171l-.118.582a4.21,4.21,0,0,1-.168.667c-.03.092-.057.185-.083.275-.04.137-.077.266-.126.393l-.26.656a3.674,3.674,0,0,1-.185.4c-.04.079-.078.152-.115.227a6.5,6.5,0,0,1-.326.61l-.125.215c-.074.13-.149.261-.231.384l-.394.58c-.084.12-.176.238-.267.355-.053.068-.1.134-.156.2-.1.132-.2.256-.308.378l-.134.161c-.324.393-.674.753-.945,1.025-.375.381-.7.683-1.019.955-.134.12-.272.232-.412.345l-.221.169c-.506-1.08-1.09-2.239-1.782-3.537M637.59,1000.4l.082-3.245c.023-1.138.031-2.219-.031-3.27a11.258,11.258,0,0,1,1.495.077,12.96,12.96,0,0,1,1.939.369c.15.035.3.081.467.13.058.021.115.036.17.053.1.028.2.062.3.1l.467.168c.1.034.192.075.285.119.054.023.109.047.161.067s.109.049.164.069c.094.043.19.079.282.131l.442.221c.195.1.386.21.571.32.094.056.188.112.288.169a.433.433,0,0,0,.076.028.3.3,0,0,0,.111.005h.007c.115.14.231.273.346.415.418.5.814,1.018,1.235,1.567.16.208.321.417.478.619.177.249.356.5.54.748.382.523.778,1.066,1.143,1.633.356.518.7,1.054,1.042,1.593a2.685,2.685,0,0,0-.411-.179l-.831-.318a5.264,5.264,0,0,0-.7-.225l-.165-.044c-.1-.026-.2-.053-.3-.083-.183-.052-.375-.106-.571-.142l-.877-.147a4.135,4.135,0,0,0-.626-.073c-.092-.005-.182-.011-.276-.02l-.137-.01a5.808,5.808,0,0,0-.764-.025c-.106,0-.21,0-.314.006-.193,0-.389,0-.588.017l-.889.093c-.192.027-.38.065-.573.1-.1.02-.2.039-.307.057-.193.034-.384.085-.567.134-.1.026-.2.054-.3.076-.187.049-.374.111-.555.171-.1.035-.2.066-.3.1-.3.107-.586.225-.832.325a11.689,11.689,0,0,0-1.182.59c-.011-.82,0-1.635.014-2.485m11.609.09c-.375-.574-.782-1.121-1.172-1.647-.182-.249-.366-.494-.549-.749l-.463-.59c-.438-.561-.853-1.094-1.292-1.607-.173-.209-.348-.412-.52-.614a17.927,17.927,0,0,0,.509-3.447c.013-.357,0-.715,0-.982,0-.109-.011-.218-.021-.326,0-.057-.008-.112-.013-.167a3.436,3.436,0,0,0-.062-.5c-.011-.051-.019-.1-.027-.152a2.333,2.333,0,0,0-.067-.338c-.015-.053-.029-.107-.043-.161-.026-.108-.052-.214-.09-.324l-.143-.346c.431.18.861.364,1.282.546l1.779.855c.322.171.638.349.956.527.179.1.357.2.534.3a31.831,31.831,0,0,1,2.844,1.871c.53.392,1.042.808,1.542,1.234v0a10.536,10.536,0,0,1-.2,2.551,12.5,12.5,0,0,1-.329,1.23,11.173,11.173,0,0,1-.453,1.188,16.029,16.029,0,0,1-1.232,2.236c-.219.345-.465.7-.728,1.052l-.525.671c-.482-.778-.987-1.562-1.516-2.312m-12.062-9.818a12.667,12.667,0,0,0-1.3-3.015c-.211-.374-.443-.734-.682-1.08.3.224.641.484,1.024.786.786.617,1.641,1.335,2.543,2.145.864.763,1.849,1.717,3.1,2.99.69.732,1.409,1.511,2.132,2.337l-.352-.162c-.1-.047-.207-.089-.312-.13-.055-.018-.108-.038-.167-.064s-.108-.04-.162-.06c-.1-.044-.21-.085-.315-.118l-.481-.154c-.1-.038-.214-.064-.322-.095-.058-.012-.112-.028-.19-.048-.159-.044-.316-.088-.475-.117a13.1,13.1,0,0,0-2.011-.289,12.29,12.29,0,0,0-1.549-.008,15.037,15.037,0,0,0-.482-2.918m5.125,1.4c-1.286-1.281-2.293-2.23-3.168-2.988-.922-.806-1.794-1.527-2.591-2.139-.765-.59-1.371-1.022-1.783-1.3a54.523,54.523,0,0,1,5.645,1.229c1.163.323,2.227.661,3.254,1.032.392.138.782.29,1.171.449l.075.194.11.457c.018.1.032.192.045.288.007.06.017.115.024.176a1.75,1.75,0,0,1,.026.3c0,.053,0,.108.009.155a12.776,12.776,0,0,1-.04,1.877c-.019.271-.046.569-.089.939l-.033.3c-.026.216-.049.431-.079.646-.048.365-.1.691-.151,1.006-.826-.933-1.643-1.8-2.425-2.613m-8.424-7.181a.619.619,0,0,1-.067-.01.3.3,0,0,0-.281.484l.045.057-.018.029.044.007a20.638,20.638,0,0,1,1.733,2.509,12.2,12.2,0,0,1,1.223,2.878,14.885,14.885,0,0,1,.461,3.107c.053.918.037,1.864.024,2.776l-.089,3.628c-.022,1.054-.046,2.147-.007,3.232a22.953,22.953,0,0,0,.375,3.243,23.333,23.333,0,0,0,.815,3.158,22.516,22.516,0,0,0,7.387,10.512,14.111,14.111,0,0,0,5.852,2.748,9,9,0,0,0,2.892.1c.122-.014.241-.036.362-.054a7.755,7.755,0,0,0,2.976-1.212c.108.514.213,1.028.305,1.542.145.648.237,1.309.323,1.948.044.308.087.615.132.917.12.721.189,1.442.256,2.138l.2,1.954c.024.279.035.558.049.831.005.156.013.309.021.458.01.256.024.505.037.758q.423.047.843.1c-.011-.3-.022-.593-.029-.9q-.009-.226-.017-.454c-.007-.285-.016-.574-.036-.864l-.13-1.542c-.071-.85-.143-1.728-.291-2.613-.049-.3-.091-.606-.132-.912-.092-.654-.184-1.329-.333-1.993-.126-.681-.262-1.332-.4-1.972a10.235,10.235,0,0,0,1.708-1.853,13.742,13.742,0,0,0,1.634-3.052,17.388,17.388,0,0,0,.861-3.349,19.657,19.657,0,0,0,.193-3.457,21.238,21.238,0,0,0-.422-3.431c-.1-.492-.23-.981-.36-1.453l-.062-.231c-.058-.168-.111-.339-.164-.51a11.83,11.83,0,0,0-.4-1.123l-.318-.811-.367-.775a12.513,12.513,0,0,0-.584-1.138c-.074-.133-.147-.266-.221-.4-.18-.331-.386-.65-.586-.958-.109-.168-.221-.339-.331-.52l-.267-.37c-.243-.338-.5-.686-.762-1.021a27.066,27.066,0,0,0-2.334-2.555,28.356,28.356,0,0,0-2.642-2.237,31.956,31.956,0,0,0-2.881-1.918l-.528-.3c-.324-.184-.65-.369-.982-.548l-1.55-.765-.241-.106c-.956-.421-1.947-.857-2.948-1.218-1.037-.38-2.112-.727-3.289-1.059a56.074,56.074,0,0,0-6.626-1.43l-.033-.041Z" transform="translate(-633.424 -984.857)" fill="none"/></clipPath><linearGradient id="bs" x1="-6.881" y1="1.822" x2="-6.87" y2="1.822" gradientUnits="objectBoundingBox"><stop offset="0" stop-color="#d7edfb"/><stop offset="1" stop-color="#a5cced"/></linearGradient><clipPath id="bt"><path d="M673.976,1099.561l3.978,26.016a2.044,2.044,0,0,0,2.085,1.629h18.307a2.04,2.04,0,0,0,2.09-1.659l3.413-25.317a1.963,1.963,0,0,0-2.026-2.108l-25.7-.7h-.066a1.969,1.969,0,0,0-2.084,2.14" transform="translate(-673.957 -1097.421)" fill="none"/></clipPath><linearGradient id="bu" x1="-8.689" y1="1.61" x2="-8.676" y2="1.61" xlink:href="#bd"/><clipPath id="bv"><path d="M673.323,1096.114a1.031,1.031,0,0,0-1.018,1.038v2.015a1.031,1.031,0,0,0,1.016,1.038H702.59a1.031,1.031,0,0,0,1.016-1.038v-2.016a1.031,1.031,0,0,0-1.016-1.037Z" transform="translate(-672.305 -1096.114)" fill="none"/></clipPath><linearGradient id="bw" x1="-8.366" y1="11.843" x2="-8.354" y2="11.843" xlink:href="#w"/><clipPath id="bx"><path d="M667.379,1090.387a.944.944,0,0,0-.931.952V1092a.947.947,0,0,0,.931.954h33.839a.946.946,0,0,0,.931-.954v-.657a.945.945,0,0,0-.932-.953Z" transform="translate(-666.448 -1090.387)" fill="none"/></clipPath><linearGradient id="by" x1="-7.271" y1="19.773" x2="-7.26" y2="19.773" xlink:href="#h"/><clipPath id="bz"><path d="M412.6,506.716l.573.2,28.152,9.558,5.409.114-4.424-3.2-28.662-9.734Z" transform="translate(-412.605 -503.649)" fill="none"/></clipPath><linearGradient id="ca" x1="-4.693" y1="8.979" x2="-4.681" y2="8.979" gradientUnits="objectBoundingBox"><stop offset="0" stop-color="#d4adb5"/><stop offset="1" stop-color="#ce8f9b"/></linearGradient><clipPath id="cb"><path d="M412.654,510.128l28.723,9.771a.537.537,0,0,1,.266-.85l-28.7-9.767Z" transform="translate(-412.654 -509.281)" fill="none"/></clipPath><linearGradient id="cc" x1="-5.577" y1="10.548" x2="-5.563" y2="10.548" xlink:href="#j"/><clipPath id="cd"><path d="M413.6,507.326l28.7,9.766a.627.627,0,0,1-.089-.5.6.6,0,0,1,.36-.349l-28.688-9.76Z" transform="translate(-413.601 -506.48)" fill="none"/></clipPath><linearGradient id="ce" x1="-5.593" y1="10.594" x2="-5.579" y2="10.594" xlink:href="#j"/><clipPath id="cf"><path d="M414.55,504.524l28.683,9.758a.626.626,0,0,1-.089-.5.6.6,0,0,1,.36-.348l-28.669-9.754Z" transform="translate(-414.55 -503.678)" fill="none"/></clipPath><linearGradient id="cg" x1="-5.609" y1="10.641" x2="-5.596" y2="10.641" xlink:href="#j"/><clipPath id="ci"><path d="M410.947,503.823l-.55,1.611a.73.73,0,0,0,.455.925l.391.134,1.021-2.991-.391-.134a.736.736,0,0,0-.236-.039.729.729,0,0,0-.69.494" transform="translate(-410.358 -503.329)" fill="none"/></clipPath><linearGradient id="cj" x1="-44.355" y1="75.611" x2="-44.246" y2="75.611" xlink:href="#ca"/><clipPath id="cl"><path d="M223.456,390.07l-.506,5.011a3.807,3.807,0,0,0,4.429-3.261c.372-2.141-.333-2.743-1.244-2.743a6.232,6.232,0,0,0-2.679.993" transform="translate(-222.95 -389.077)" fill="none"/></clipPath><linearGradient id="cm" x1="-10.881" y1="48.156" x2="-10.832" y2="48.156" gradientUnits="objectBoundingBox"><stop offset="0" stop-color="#f8c9d2"/><stop offset="1" stop-color="#e59fab"/></linearGradient><clipPath id="cn"><path d="M171.443,354.8a19.5,19.5,0,0,0-7.375,11.522c-1.289-.6-3.016-.882-2.65,2.277a3.6,3.6,0,0,0,2.421,3.286,23.955,23.955,0,0,0,1.12,5.112c-2.387,9.3-10.06,35.462-5.2,35.63,5.464.19,21.925,6.69,21.925,6.69l-.849-33.769a12.968,12.968,0,0,0,4.41-7.256c2.745-10.461-1.95-25.438-9.2-25.437a7.228,7.228,0,0,0-4.6,1.944" transform="translate(-158.178 -352.853)" fill="none"/></clipPath><linearGradient id="co" x1="-1.496" y1="4.945" x2="-1.485" y2="4.945" xlink:href="#cm"/><clipPath id="cq"><path d="M297.421,517.742c-2.6,9.062.618,30.14,6.26,32.8,18.336,1.7,46.242-33.95,46.543-34.393.87-1.279,4.462-4.458,5.378-4.7a13.347,13.347,0,0,0,6.311-3.779c6.9-6.324-4.556-7.749-4.575-7.759-3.688.065-9.52,4.1-8.748,6.689a13.317,13.317,0,0,1-2.942,3.531c-6.835,5.085-30.244,21.148-31.161,19.085-1.853-4.156-17.336-17.069-16.849-22.463.652-7.235-11.022-18.6-11.022-18.6s13.41,20.527,10.806,29.588" transform="translate(-286.615 -488.154)" fill="none"/></clipPath><linearGradient id="cr" x1="-1.086" y1="2.956" x2="-1.082" y2="2.956" xlink:href="#cm"/><clipPath id="cs"><path d="M286.27,524.823c.27,1.758,10.305,19.726,11.965,20.42S312,522.709,311.1,521.218s-10.963-25.993-24.467-38.373A6.828,6.828,0,0,0,283.7,481.1c-1.32,3.055,2.3,41.966,2.569,43.724" transform="translate(-283.412 -481.099)" fill="#2f6de2"/></clipPath><clipPath id="ct"><path d="M327.954,581.907c-1.326.8-16.846,18.051-16.976,19.146s-.012,2.413,1.817,4.134,3.216,2.044,4.427,1.554c2.816-1.14,11.612-18.516,12.37-21.006,0,0-.264-3.921-1.34-3.922a.571.571,0,0,0-.3.093" transform="translate(-310.94 -581.814)" fill="#2f6de2"/></clipPath><clipPath id="cu"><path d="M33.964,503.54c-2.51,2.7-29.949,40.771-30.994,44.6s19.342,27.32,34.754,36.987c4.866,3.052,5.1,4.394,7.357,5.177,2.523.878,7.151,1.608,9.087.029s4.089-6.731,3.985-9.629-3.46-1.844-5.781-3.973c-1.467-1.345-4.09-.441-5.822.407-1.087.532-2.5-.623-3.476-1.333-9.481-6.874-20.612-22.014-19.912-27.7.219-1.77,21.79-17.213,21.79-17.213L40.518,499.1a.7.7,0,0,0-.365-.073c-.7,0-2.49.536-6.189,4.512" transform="translate(-2.931 -499.028)" fill="none"/></clipPath><linearGradient id="cv" x1="-0.002" y1="3.026" x2="0.005" y2="3.026" xlink:href="#cm"/><clipPath id="cw"><path d="M38.742,495.049c-3.349,3.066-16.758,15.636-24.259,27.066C5.865,535.248-.154,545.234,1.625,548.243s18.018-.412,19.249-.959,24.069-14.316,24.069-15c0-.659-1.453-27.476-5.024-36.957a.728.728,0,0,0-1.177-.278" transform="translate(-1.312 -494.855)" fill="#2f6de2"/></clipPath><clipPath id="cx"><path d="M0,625.365A8.615,8.615,0,0,0,1.8,629.03c.979,1.222-.163,3.055,1.469,3.665s19.583-3.054,20.889-3.818.163-2.138-.49-2.138,1.142-2.138-.816-2.138c0,0-5.132-.135-10.53-.135-6.075,0-12.489.171-12.316.9" transform="translate(0 -624.466)" fill="#2f6de2"/></clipPath><clipPath id="cz"><path d="M200.685,1143.589l-.818,17.079s-3.281,3.022.149,5.836,11.857.042,13.638-.617c3.713-1.372-7.759-4-7.759-4l.92-21.132Z" transform="translate(-198.452 -1140.76)" fill="none"/></clipPath><linearGradient id="da" x1="-2.292" y1="1.201" x2="-2.279" y2="1.201" xlink:href="#cm"/><clipPath id="dc"><path d="M94.2,1138.052l-1.573,18.854s-2.724,3.532,1.132,5.727,11.695-1.96,13.339-2.91c3.428-1.979-8.323-2.629-8.323-2.629l4.417-20.985Z" transform="translate(-91.695 -1136.11)" fill="none"/></clipPath><linearGradient id="dd" x1="-1.494" y1="1.12" x2="-1.477" y2="1.12" xlink:href="#cm"/><clipPath id="df"><path d="M85.777,885.461c.771.406,12.8,1.668,12.566,1.2,0,0,26.434-117.8,28.706-128.347-1.786,18.019,2.272,128.563,2.272,128.563s12.092,1.082,12.092.433c11.175-48.482,20.778-184.4,20.778-184.4s-56.492-1.772-56.408-2.055C91.987,723.7,84.962,885.032,85.777,885.461m20.006-184.606v0" transform="translate(-85.713 -700.854)" fill="none"/></clipPath><linearGradient id="dg" x1="-0.423" y1="1.082" x2="-0.418" y2="1.082" xlink:href="#h"/><clipPath id="dh"><path d="M124.958,468.06c-3.1-.145-5.347-.29-5.559-.285-1.4.034-19.454,4.389-23.061,10.707-1.717,3.008,6.184,56.091,7.613,73.7.982,12.1,3.788,14.5,6.385,14.934,18.057,8.618,55.123,3.274,56.814,1.407,9.416-10.389,2.991-95.557,2.991-95.557-5.179-3.107-19.068-5.212-24.36-5.9-1.217,1.677-13.444,1.332-20.824.987" transform="translate(-96.095 -467.073)" fill="url(#a)"/></clipPath><clipPath id="dj"><path d="M181.2,463.743s.005,0,.005,0l-.005,0m-30.188-3.574-5.3,3.571s16.013,10.713,35.49,0c-.2-.016-5.874-3.986-5.874-3.986s-9.281,4.282-24.314.412" transform="translate(-145.714 -459.757)" fill="#2f6de2"/></clipPath><clipPath id="dl"><path d="M107.136,148.325a3.965,3.965,0,0,0-3.942,3.965v30.117a3.965,3.965,0,0,0,3.942,3.965h38.67l11.626,8.533-1.278-8.533h5.958a3.965,3.965,0,0,0,3.942-3.965V152.29a3.965,3.965,0,0,0-3.942-3.965Z" transform="translate(-103.194 -148.325)" fill="none"/></clipPath><clipPath id="dn"><path d="M162.867,177.331l-4.422,4.426-1.906-1.9a.441.441,0,0,0-.624.624l2.212,2.211a.455.455,0,0,0,.634,0l4.729-4.733a.441.441,0,1,0-.624-.624" transform="translate(-155.786 -177.201)" fill="none"/></clipPath><linearGradient id="do" x1="-7.654" y1="72.315" x2="-7.605" y2="72.315" gradientUnits="objectBoundingBox"><stop offset="0" stop-color="#1e4b7f"/><stop offset="1" stop-color="#001f37"/></linearGradient><linearGradient id="dq" x1="0.771" y1="0.059" x2="0.171" y2="0.792" gradientUnits="objectBoundingBox"><stop offset="0"/><stop offset="1" stop-opacity="0.141"/></linearGradient></defs><g transform="translate(-473.742 -1731)"><path d="M119.569,786,1562.949.5h.414V428.569L906.574,786Z" transform="translate(356.137 1731)" fill="url(#b)"/><path d="M906.7,786.5H117.6l1.726-.939L1562.822,0h1.041V428.866l-.261.142Zm-785.167-1H906.446l656.416-357.228V1.117Z" transform="translate(356.137 1731)" fill="rgba(0,0,0,0)"/><g transform="translate(-36.485)"><g transform="translate(1082.813 1899.556)"><g clip-path="url(#c)"><g transform="translate(0 -0.002)"><g clip-path="url(#d)"><g transform="translate(10.743 450.407)" opacity="0.03"><g clip-path="url(#e)"><path d="M319.478,1162.012c0,3.155-65.343,5.713-145.949,5.713s-145.949-2.558-145.949-5.713,65.344-5.713,145.949-5.713,145.949,2.558,145.949,5.713" transform="translate(-27.58 -1156.299)" fill="#0f2653"/></g></g><g transform="translate(19.955 463.985)" opacity="0.03"><g clip-path="url(#f)"><path d="M158.621,1196.869c0,3.156-24.041,5.713-53.7,5.713s-53.7-2.557-53.7-5.713,24.041-5.713,53.7-5.713,53.7,2.558,53.7,5.713" transform="translate(-51.229 -1191.156)" fill="#0f2653"/></g></g></g></g><g transform="translate(177.813 407.146)"><g clip-path="url(#g)"><rect width="25.559" height="17.838" transform="translate(-3.324 1.121) rotate(-18.647)" fill="url(#h)"/></g></g><g transform="translate(164.322 419.984)"><g clip-path="url(#i)"><rect width="61.586" height="61.518" transform="translate(-18.485 18.341) rotate(-44.788)" fill="url(#j)"/></g></g><g transform="translate(163.009 415.859)"><g clip-path="url(#k)"><rect width="28.087" height="54.473" transform="translate(-1.832 24.017) rotate(-85.653)" fill="url(#l)"/></g></g><g transform="translate(187.06 436.627)"><g clip-path="url(#m)"><rect width="8.812" height="8.829" transform="matrix(0.71, -0.704, 0.704, 0.71, -3.943, 3.909)" fill="url(#n)"/></g></g><g transform="translate(0 -0.002)"><g clip-path="url(#d)"><g transform="translate(87.271 0.002)" opacity="0.4"><g clip-path="url(#p)"><g transform="translate(0 -0.002)"><g clip-path="url(#q)"><rect width="280.576" height="280.615" transform="translate(-22.67 0.029) rotate(-4.644)" fill="#c6d4ef"/></g></g><g transform="translate(58.845 58.845)" opacity="0.58"><g clip-path="url(#r)"><g transform="translate(0 0.002)"><g clip-path="url(#s)"><rect width="190.598" height="190.597" transform="matrix(0.971, -0.239, 0.239, 0.971, -45.638, -0.083)" fill="url(#t)"/></g></g></g></g></g></g></g></g><g transform="translate(264.837 25.555)"><g clip-path="url(#u)"><rect width="190.718" height="344.916" fill="#456dcc"/></g></g><g transform="translate(388.538 34.442)"><g clip-path="url(#v)"><rect width="10.821" height="10.821" fill="url(#w)"/></g></g><g transform="translate(406.544 34.442)"><g clip-path="url(#x)"><rect width="10.821" height="10.821" fill="url(#y)"/></g></g><g transform="translate(424.551 34.442)"><g clip-path="url(#z)"><rect width="10.821" height="10.821" transform="translate(0)" fill="url(#aa)"/></g></g><g transform="translate(0 -0.002)"><g clip-path="url(#d)"><path d="M865.075,717.945H718.588a11.577,11.577,0,0,0-11.542,11.543v47.43a11.576,11.576,0,0,0,11.542,11.543H865.075a11.577,11.577,0,0,0,11.542-11.543v-47.43a11.577,11.577,0,0,0-11.542-11.543" transform="translate(-431.635 -438.287)" fill="#fff"/></g></g><g transform="translate(328.436 296.897)"><g clip-path="url(#ac)"><rect width="56.707" height="43.113" transform="translate(0 0)" fill="#2a488e"/></g></g><g transform="translate(381.21 289.818)"><g clip-path="url(#ad)"><rect width="10.748" height="10.809" transform="translate(0)" fill="#2a488e"/></g></g><g transform="translate(275.409 51.773)"><g clip-path="url(#ae)"><rect width="77.125" height="77.126" transform="translate(0 0)" fill="url(#af)"/></g></g><g transform="translate(0 -0.002)"><g clip-path="url(#d)"><path d="M785.429,174.964a36.337,36.337,0,1,1-36.336-36.337,36.337,36.337,0,0,1,36.336,36.337" transform="translate(-435.121 -84.627)" fill="#fff"/></g></g><g transform="translate(301.493 63.701)"><g clip-path="url(#ah)"><rect width="24.957" height="24.956" transform="translate(0 0)" fill="url(#ai)"/></g></g><g transform="translate(293.3 89.453)"><g clip-path="url(#aj)"><rect width="41.343" height="32.956" transform="translate(0 0)" fill="url(#ak)"/></g></g><g transform="translate(0 -0.002)"><g clip-path="url(#d)"><path d="M993.246,218.24H945.963a4.916,4.916,0,0,0-4.9,4.9v.85a4.916,4.916,0,0,0,4.9,4.9h47.283a4.916,4.916,0,0,0,4.9-4.9v-.85a4.916,4.916,0,0,0-4.9-4.9" transform="translate(-574.496 -133.229)" fill="#fff"/><path d="M1074.354,160.356h-30.475a4.915,4.915,0,0,0-4.9,4.9v.85a4.916,4.916,0,0,0,4.9,4.9h30.475a4.916,4.916,0,0,0,4.9-4.9v-.85a4.915,4.915,0,0,0-4.9-4.9" transform="translate(-634.272 -97.892)" fill="#fff"/><path d="M976.437,276.432H945.962a4.916,4.916,0,0,0-4.9,4.9v.849a4.916,4.916,0,0,0,4.9,4.9h30.475a4.916,4.916,0,0,0,4.9-4.9v-.849a4.916,4.916,0,0,0-4.9-4.9" transform="translate(-574.495 -168.754)" fill="#fff"/><path d="M967.2,160.048H945.963a4.916,4.916,0,0,0-4.9,4.9v.85a4.916,4.916,0,0,0,4.9,4.9H967.2a4.915,4.915,0,0,0,4.9-4.9v-.85a4.915,4.915,0,0,0-4.9-4.9" transform="translate(-574.496 -97.704)" fill="#fff"/></g></g><g transform="translate(272.15 145.001)"><g clip-path="url(#am)"><rect width="176.093" height="116.482" fill="#456dcc"/></g></g><g transform="translate(0 -0.002)"><g clip-path="url(#d)"><path d="M866.533,488.446H705.318a7.955,7.955,0,0,1-7.946-7.947V378.9a7.955,7.955,0,0,1,7.946-7.947H866.533a7.955,7.955,0,0,1,7.946,7.947V480.5a7.955,7.955,0,0,1-7.946,7.947M705.318,371.964a6.94,6.94,0,0,0-6.932,6.932V480.5a6.94,6.94,0,0,0,6.932,6.932H866.533a6.94,6.94,0,0,0,6.932-6.932V378.9a6.94,6.94,0,0,0-6.932-6.932Z" transform="translate(-425.729 -226.455)" fill="#fff"/><path d="M982.116,394.388H906.539a5.326,5.326,0,1,0,0,10.652h75.577a5.326,5.326,0,0,0,0-10.652" transform="translate(-550.169 -240.763)" fill="#fff"/><path d="M933.676,445.825H906.539a5.326,5.326,0,0,0,0,10.652h27.137a5.326,5.326,0,1,0,0-10.652" transform="translate(-550.169 -272.164)" fill="#fff"/><path d="M1058.034,445.825H1030.9a5.326,5.326,0,0,0,0,10.652h27.137a5.326,5.326,0,1,0,0-10.652" transform="translate(-626.088 -272.164)" fill="#fff"/><path d="M769.543,391.35h-41.8a7.557,7.557,0,0,0-7.534,7.535v35.732a7.557,7.557,0,0,0,7.534,7.535h41.8a7.557,7.557,0,0,0,7.535-7.535V398.885a7.557,7.557,0,0,0-7.535-7.535" transform="translate(-439.672 -238.908)" fill="#fff"/></g></g><g transform="translate(300.731 166.567)"><g clip-path="url(#ao)"><rect width="19.527" height="22.547" transform="translate(0 0)" fill="url(#ap)"/></g></g><g transform="translate(280.539 216.799)"><g clip-path="url(#aq)"><rect width="47.472" height="36.396" fill="#2a488e"/></g></g><g transform="translate(389.188 216.799)"><g clip-path="url(#aq)"><rect width="47.472" height="36.396" fill="#2a488e"/></g></g><g transform="translate(335.178 216.799)"><g clip-path="url(#aq)"><rect width="47.472" height="36.396" transform="translate(0)" fill="#2a488e"/></g></g><g transform="translate(0 -0.002)"><g clip-path="url(#d)"><path d="M908.459,570.421H875.521a2.308,2.308,0,0,0,0,4.616h32.938a2.308,2.308,0,1,0,0-4.616" transform="translate(-533.076 -348.227)" fill="#fff"/><path d="M908.459,597.368H875.521a2.308,2.308,0,0,0,0,4.616h32.938a2.308,2.308,0,1,0,0-4.616" transform="translate(-533.076 -364.678)" fill="#fff"/><path d="M908.459,624.315H875.521a2.308,2.308,0,0,0,0,4.616h32.938a2.308,2.308,0,0,0,0-4.616" transform="translate(-533.076 -381.128)" fill="#fff"/><path d="M1035.509,590.178a1.952,1.952,0,0,0,2.957,0l12.666-11.735H1022.8Z" transform="translate(-624.393 -353.124)" fill="#fff"/><path d="M1038.94,608.563l2.473-2.169,9.719,8.906h-28.336l9.719-8.906,2.321,2.121a3.025,3.025,0,0,0,4.1.048" transform="translate(-624.392 -370.188)" fill="#fff"/><path d="M1019.945,581.1l9.719,8.862-9.719,8.955Z" transform="translate(-622.653 -354.747)" fill="#fff"/><path d="M1082.8,581.1l-9.722,8.862,9.722,8.955Z" transform="translate(-655.087 -354.747)" fill="#fff"/><path d="M776.22,618.669a2.94,2.94,0,1,0,3.158,2.923,3.04,3.04,0,0,0-3.158-2.923" transform="translate(-471.94 -377.681)" fill="#fff"/><path d="M756.9,577.124a21.541,21.541,0,0,0-13.821,4.915l-1.655-1.545a24.39,24.39,0,0,1,30.943,0l-1.645,1.545a21.563,21.563,0,0,0-13.821-4.915" transform="translate(-452.624 -350.997)" fill="#fff"/><path d="M764.215,592.765a14.826,14.826,0,0,0-9.156,3.124l-1.656-1.534a17.447,17.447,0,0,1,21.628,0l-1.654,1.534a14.877,14.877,0,0,0-9.162-3.124" transform="translate(-459.935 -360.546)" fill="#fff"/><path d="M771.03,607.374a8.393,8.393,0,0,0-4.792,1.489l-1.671-1.544a10.938,10.938,0,0,1,12.915,0l-1.675,1.544a8.3,8.3,0,0,0-4.777-1.489" transform="translate(-466.75 -369.465)" fill="#fff"/></g></g><g transform="translate(214.856 212.455)"><g transform="translate(0 0)" clip-path="url(#au)"><path d="M565.571,544.43v82.813l-13.986-.633V543.8Z" transform="translate(-551.585 -544.43)" fill="url(#av)"/></g></g><g transform="translate(37.252 186.513)"><g clip-path="url(#aw)"><rect width="189.003" height="107.47" transform="translate(0 0)" fill="url(#ax)"/></g></g><g transform="translate(32.845 186.513)"><g clip-path="url(#ay)"><rect width="189.003" height="107.47" transform="translate(0 0)" fill="#c6d4ef"/></g></g><g transform="translate(0 -0.002)"><g clip-path="url(#d)"><path d="M216.268,550.283H126.822l7.609-54.8h89.446Z" transform="translate(-77.422 -302.478)" fill="#fff"/><path d="M419.273,589.108H362.444l13-93.625h56.829Z" transform="translate(-221.263 -302.479)" fill="#fff"/><g transform="translate(144.722 198.722)" opacity="0.43"><g clip-path="url(#ba)"><path d="M414.478,526.7a7.041,7.041,0,0,1-7.122-8.27,9.831,9.831,0,0,1,9.419-8.271,7.042,7.042,0,0,1,7.122,8.271,9.831,9.831,0,0,1-9.419,8.27m2.268-16.337a9.589,9.589,0,0,0-9.187,8.067,6.868,6.868,0,0,0,6.947,8.066,9.588,9.588,0,0,0,9.186-8.066,6.867,6.867,0,0,0-6.946-8.067" transform="translate(-393.354 -510.162)" fill="#0f2653"/><path d="M425.841,527.928l-.164.145-9.962-11.568.165-.145Z" transform="translate(-398.506 -513.946)" fill="#0f2653"/><path d="M411.644,527.928l.124.145,13.174-11.568-.124-.145Z" transform="translate(-396.021 -513.946)" fill="#0f2653"/><path d="M487.406,510.162l-.028.2H465.983l.028-.2Z" transform="translate(-429.193 -510.162)" fill="#0f2653"/><path d="M465.324,510.166h.2l-.467,3.364h-.2Z" transform="translate(-428.506 -510.165)" fill="#0f2653"/><path d="M519.725,510.162h.2l-.467,3.364h-.2Z" transform="translate(-461.716 -510.162)" fill="#0f2653"/><path d="M486.28,518.276l-.028.2H464.857l.028-.2Z" transform="translate(-428.506 -515.115)" fill="#0f2653"/><path d="M478.971,573.566l-.028.2H457.548l.028-.2Z" transform="translate(-424.044 -548.869)" fill="#0f2653"/><path d="M456.889,573.571h.2l-.467,3.364h-.2Z" transform="translate(-423.356 -548.872)" fill="#0f2653"/><path d="M511.29,573.566h.2l-.467,3.364h-.2Z" transform="translate(-456.567 -548.869)" fill="#0f2653"/><path d="M477.845,581.68l-.029.2H456.422l.028-.2Z" transform="translate(-423.356 -553.822)" fill="#0f2653"/><path d="M419.611,573.566l-.028.2H403.224l.028-.2Z" transform="translate(-390.88 -548.869)" fill="#0f2653"/><path d="M400.926,573.566h.2l-1.513,10.895h-.2Z" transform="translate(-388.554 -548.869)" fill="#0f2653"/><path d="M442.4,573.566h.2l-1.513,10.895h-.2Z" transform="translate(-413.872 -548.869)" fill="#0f2653"/><path d="M403.453,573.978l.136-.171,14.6,10.553-.136.171Z" transform="translate(-391.02 -549.016)" fill="#0f2653"/><path d="M399.752,584.36l.088.171,17.526-10.553-.089-.171Z" transform="translate(-388.761 -549.016)" fill="#0f2653"/><path d="M415.8,601.011l-.028.2H399.413l.028-.2Z" transform="translate(-388.554 -565.623)" fill="#0f2653"/><path d="M407.349,608.725l-.028.2H393.532l.028-.2Z" transform="translate(-384.963 -570.332)" fill="#0f2653"/><path d="M391.235,608.725h.2l-1.513,10.895h-.2Z" transform="translate(-382.638 -570.332)" fill="#0f2653"/><path d="M426.11,608.725h.2L424.8,619.619h-.2Z" transform="translate(-403.928 -570.332)" fill="#0f2653"/><path d="M393.765,609.2l.148-.161,12.043,10.514-.148.161Z" transform="translate(-385.106 -570.527)" fill="#0f2653"/><path d="M390.075,619.558l.1.161L405.14,609.2l-.1-.161Z" transform="translate(-382.853 -570.527)" fill="#0f2653"/><path d="M403.539,636.17l-.028.2H389.721l.028-.2Z" transform="translate(-382.637 -587.087)" fill="#0f2653"/><path d="M449.084,608.725l-.028.2H435.267l.028-.2Z" transform="translate(-410.442 -570.332)" fill="#0f2653"/><path d="M432.97,608.725h.2l-1.513,10.895h-.2Z" transform="translate(-408.116 -570.332)" fill="#0f2653"/><path d="M467.845,608.725h.2l-1.513,10.895h-.2Z" transform="translate(-429.407 -570.332)" fill="#0f2653"/><path d="M435.5,609.2l.148-.161,12.042,10.514-.148.161Z" transform="translate(-410.584 -570.527)" fill="#0f2653"/><path d="M431.81,619.558l.1.161L446.875,609.2l-.1-.161Z" transform="translate(-408.332 -570.527)" fill="#0f2653"/><path d="M445.274,636.17l-.028.2H431.456l.028-.2Z" transform="translate(-408.116 -587.087)" fill="#0f2653"/><path d="M490.82,608.725l-.028.2H477l.028-.2Z" transform="translate(-435.921 -570.332)" fill="#0f2653"/><path d="M474.7,608.725h.2L473.4,619.619h-.2Z" transform="translate(-433.594 -570.332)" fill="#0f2653"/><path d="M509.58,608.725h.2l-1.513,10.895h-.2Z" transform="translate(-454.885 -570.332)" fill="#0f2653"/><path d="M477.236,609.2l.148-.161,12.042,10.514-.148.161Z" transform="translate(-436.063 -570.527)" fill="#0f2653"/><path d="M473.546,619.558l.1.161L488.61,609.2l-.1-.161Z" transform="translate(-433.81 -570.527)" fill="#0f2653"/><path d="M487.009,636.17l-.028.2H473.191l.028-.2Z" transform="translate(-433.594 -587.087)" fill="#0f2653"/><path d="M383.085,595.935h.2l3.99-28.733h-.2Z" transform="translate(-378.586 -544.984)" fill="#0f2653"/><path d="M444.265,567.406l.028-.2H393.282l-.028.2Z" transform="translate(-384.794 -544.984)" fill="#0f2653"/><path d="M434.095,640.648l.028-.2H383.112l-.028.2Z" transform="translate(-378.585 -589.696)" fill="#0f2653"/><path d="M513.518,595.935h.2l3.989-28.733h-.2Z" transform="translate(-458.212 -544.984)" fill="#0f2653"/><path d="M371.536,679.119h.2l3.989-28.733h-.2Z" transform="translate(-371.535 -595.765)" fill="#0f2653"/><path d="M432.715,650.59l.028-.2H381.732l-.028.2Z" transform="translate(-377.743 -595.766)" fill="#0f2653"/><path d="M422.546,723.831l.028-.2H371.563l-.028.2Z" transform="translate(-371.535 -640.477)" fill="#0f2653"/><path d="M501.969,679.119h.2l3.99-28.733h-.2Z" transform="translate(-451.162 -595.765)" fill="#0f2653"/></g></g><g transform="translate(55.373 196.536)" opacity="0.43"><g clip-path="url(#bb)"><path d="M163.164,521.443a7.041,7.041,0,0,1-7.122-8.271,9.831,9.831,0,0,1,9.419-8.271,7.042,7.042,0,0,1,7.122,8.271,9.831,9.831,0,0,1-9.419,8.271m2.268-16.337a9.589,9.589,0,0,0-9.187,8.066,6.868,6.868,0,0,0,6.947,8.066,9.588,9.588,0,0,0,9.186-8.066,6.867,6.867,0,0,0-6.946-8.066" transform="translate(-150.584 -504.766)" fill="#0f2653"/><path d="M174.528,522.669l-.164.145L164.4,511.245l.165-.144Z" transform="translate(-155.736 -508.55)" fill="#0f2653"/><path d="M160.331,522.669l.124.145,13.174-11.568-.124-.144Z" transform="translate(-153.251 -508.55)" fill="#0f2653"/><path d="M240.909,504.552l-.028.2H219.486l.028-.2Z" transform="translate(-189.364 -504.552)" fill="#0f2653"/><path d="M218.826,504.556h.2l-.467,3.364h-.2Z" transform="translate(-188.676 -504.554)" fill="#0f2653"/><path d="M273.228,504.552h.2l-.467,3.364h-.2Z" transform="translate(-221.887 -504.552)" fill="#0f2653"/><path d="M239.782,512.665l-.028.2H218.359l.028-.2Z" transform="translate(-188.676 -509.505)" fill="#0f2653"/><path d="M238.512,521.815l-.028.2H217.089l.028-.2Z" transform="translate(-187.9 -515.091)" fill="#0f2653"/><path d="M216.429,521.819h.2l-.467,3.364h-.2Z" transform="translate(-187.212 -515.093)" fill="#0f2653"/><path d="M270.831,521.815h.2l-.467,3.364h-.2Z" transform="translate(-220.423 -515.091)" fill="#0f2653"/><path d="M237.385,529.929l-.028.2H215.962l.028-.2Z" transform="translate(-187.213 -520.044)" fill="#0f2653"/><path d="M236.115,539.078l-.028.2H214.692l.028-.2Z" transform="translate(-186.437 -525.629)" fill="#0f2653"/><path d="M214.032,539.082h.2l-.467,3.364h-.2Z" transform="translate(-185.749 -525.632)" fill="#0f2653"/><path d="M268.434,539.078h.2l-.467,3.363h-.2Z" transform="translate(-218.96 -525.629)" fill="#0f2653"/><path d="M234.989,547.192l-.028.2H213.566l.028-.2Z" transform="translate(-185.749 -530.583)" fill="#0f2653"/><path d="M142.156,585.8h.2l3.99-28.733h-.2Z" transform="translate(-142.156 -536.611)" fill="#0f2653"/><path d="M203.336,557.271l.028-.2H152.353l-.028.2Z" transform="translate(-148.363 -536.611)" fill="#0f2653"/><path d="M193.167,630.512l.028-.2H142.184l-.028.2Z" transform="translate(-142.156 -581.323)" fill="#0f2653"/><path d="M272.59,585.8h.2l3.99-28.733h-.2Z" transform="translate(-221.782 -536.611)" fill="#0f2653"/><path d="M329.021,508.347l-.028.2H312.634l.028-.2Z" transform="translate(-246.228 -506.869)" fill="#0f2653"/><path d="M310.336,508.347h.2l-1.513,10.895h-.2Z" transform="translate(-243.902 -506.869)" fill="#0f2653"/><path d="M351.809,508.347h.2L350.5,519.242h-.2Z" transform="translate(-269.221 -506.869)" fill="#0f2653"/><path d="M312.863,508.758l.136-.171,14.6,10.553-.136.171Z" transform="translate(-246.368 -507.016)" fill="#0f2653"/><path d="M309.162,519.141l.088.171,17.526-10.553-.089-.171Z" transform="translate(-244.109 -507.016)" fill="#0f2653"/><path d="M325.211,535.792l-.028.2H308.823l.028-.2Z" transform="translate(-243.902 -523.623)" fill="#0f2653"/><path d="M322.994,551.841l-.028.2H306.607l.028-.2Z" transform="translate(-242.549 -533.421)" fill="#0f2653"/><path d="M304.309,551.841h.2L303,562.736h-.2Z" transform="translate(-240.223 -533.421)" fill="#0f2653"/><path d="M345.782,551.841h.2l-1.513,10.895h-.2Z" transform="translate(-265.541 -533.421)" fill="#0f2653"/><path d="M306.836,552.253l.136-.171,14.6,10.553-.136.171Z" transform="translate(-242.689 -533.568)" fill="#0f2653"/><path d="M303.135,562.635l.088.171,17.526-10.553-.088-.171Z" transform="translate(-240.43 -533.568)" fill="#0f2653"/><path d="M319.184,579.286l-.028.2H302.8l.028-.2Z" transform="translate(-240.223 -550.175)" fill="#0f2653"/><path d="M316.967,595.335l-.028.2H300.58l.028-.2Z" transform="translate(-238.87 -559.973)" fill="#0f2653"/><path d="M298.282,595.335h.2l-1.513,10.895h-.2Z" transform="translate(-236.544 -559.973)" fill="#0f2653"/><path d="M339.755,595.335h.2l-1.513,10.895h-.2Z" transform="translate(-261.862 -559.973)" fill="#0f2653"/><path d="M300.809,595.747l.136-.171,14.6,10.553-.136.171Z" transform="translate(-239.01 -560.12)" fill="#0f2653"/><path d="M297.108,606.129l.088.171,17.526-10.553-.089-.171Z" transform="translate(-236.75 -560.12)" fill="#0f2653"/><path d="M313.157,622.78l-.029.2H296.77l.028-.2Z" transform="translate(-236.544 -576.728)" fill="#0f2653"/></g></g></g></g><g transform="translate(19.955 303.55)"><g clip-path="url(#bc)"><rect width="20.27" height="153.037" transform="translate(-0.001 0)" fill="url(#bd)"/></g></g><g transform="translate(47.947 303.55)"><g clip-path="url(#be)"><rect width="20.27" height="153.037" transform="translate(-0.001 0)" fill="url(#bf)"/></g></g><g transform="translate(202.865 303.55)"><g clip-path="url(#bg)"><rect width="20.27" height="153.037" transform="translate(-0.001 0)" fill="url(#bh)"/></g></g><g transform="translate(230.857 303.55)"><g clip-path="url(#bi)"><rect width="20.27" height="153.037" transform="translate(-0.001 0)" fill="url(#bj)"/></g></g><g transform="translate(22.08 293.892)"><g clip-path="url(#bk)"><rect width="226.92" height="12.977" transform="translate(0)" fill="#2761cc"/></g></g><g transform="translate(22.08 306.473)"><g clip-path="url(#bl)"><rect width="226.92" height="2.01" transform="translate(0 0)" fill="url(#bm)"/></g></g><g transform="translate(266.221 361.053)"><g clip-path="url(#bn)"><rect width="41.335" height="73.714" transform="matrix(0.978, -0.21, 0.21, 0.978, -14.323, 3.051)" fill="url(#bo)"/></g></g><g transform="translate(272.606 365.62)"><g clip-path="url(#bp)"><rect width="79.094" height="78.536" transform="matrix(0.694, -0.72, 0.72, 0.694, -33.207, 34.451)" fill="url(#bq)"/></g></g><g transform="translate(246.734 383.625)"><g clip-path="url(#br)"><rect width="35.418" height="51.324" transform="translate(-6.262 0.832) rotate(-7.573)" fill="url(#bs)"/></g></g><g transform="translate(262.522 427.471)"><g clip-path="url(#bt)"><rect width="30.194" height="29.785" transform="translate(-0.153)" fill="url(#bu)"/></g></g><g transform="translate(261.879 426.962)"><g clip-path="url(#bv)"><rect width="31.302" height="4.091" transform="translate(0)" fill="url(#bw)"/></g></g><g transform="translate(259.597 424.731)"><g clip-path="url(#bx)"><rect width="35.701" height="2.563" fill="url(#by)"/></g></g><g transform="translate(160.719 196.183)"><g clip-path="url(#bz)"><rect width="34.238" height="32.169" transform="matrix(0.754, -0.657, 0.657, 0.754, -6.406, 5.577)" fill="url(#ca)"/></g></g><g transform="translate(160.738 198.377)"><g clip-path="url(#cb)"><rect width="28.836" height="27.043" transform="translate(-5.258 4.578) rotate(-41.043)" fill="url(#cc)"/></g></g><g transform="translate(161.107 197.286)"><g clip-path="url(#cd)"><rect width="28.821" height="27.029" transform="matrix(0.754, -0.657, 0.657, 0.754, -5.255, 4.575)" fill="url(#ce)"/></g></g><g transform="translate(161.477 196.194)"><g clip-path="url(#cf)"><rect width="28.8" height="27.009" transform="translate(-5.251 4.572) rotate(-41.043)" fill="url(#cg)"/></g></g><g transform="translate(0 -0.002)"><g clip-path="url(#d)"><path d="M494.737,533.385l-.445,1.3c.849.039,2.247.051,2.314.05-.055-.046-.949-.675-1.869-1.354" transform="translate(-301.754 -325.617)" fill="#0f2653"/></g></g><g transform="translate(159.844 196.058)"><g clip-path="url(#ci)"><rect width="3.584" height="3.698" transform="translate(-1.658 1.364) rotate(-41.042)" fill="url(#cj)"/></g></g><g transform="translate(0 -0.002)"><g clip-path="url(#d)"><path d="M412.245,506.645c-.06-.02-.1-.063-.087-.1l1.031-3.02c.011-.033.068-.043.128-.023s.1.063.086.1l-1.031,3.019c-.011.033-.069.043-.127.023" transform="translate(-251.612 -307.371)" fill="#b2a9ab"/><path d="M186.728,406.431a1.66,1.66,0,0,0-1.192-.487c-.313,0-.655,0-.863-.012a1.646,1.646,0,0,0-1.346.562c-2.214,2.482-6.119,5.154-9.527-1.333-1.6-3.32-2.561-3.045-2.561-3.045s-4.591,18.452,9.564,23.62c8.692,3.173,16.672-6.378,12.707-22.465-1.218,3.875-5.143,4.784-6.782,3.159" transform="translate(-104.103 -245.478)" fill="#0f2653"/></g></g><g transform="translate(86.844 151.555)"><g clip-path="url(#cl)"><rect width="7.841" height="6.726" transform="matrix(0.332, -0.943, 0.943, 0.332, -2.073, 5.895)" fill="url(#cm)"/></g></g><g transform="translate(61.614 137.445)"><g clip-path="url(#cn)"><rect width="37.522" height="68.553" transform="translate(-7.774 0.305) rotate(-3.888)" fill="url(#co)"/></g></g><g transform="translate(0 -0.002)"><g clip-path="url(#d)"><path d="M193.492,359.582a88.406,88.406,0,0,1-.5,12.542c-.6,3.99-1.768,8.333-4.659,11.307-2.72,2.8-9.074,2.275-12.251.307-3.968-2.457-3.872-6.6-4.586-11.079-.5-3.15-1.694-15.48,3.334-18.982a13.545,13.545,0,0,1,8.964-2.2c2.986.261,6.19,1.086,8.012,3.466a9.774,9.774,0,0,1,1.685,4.642" transform="translate(-104.395 -214.529)" fill="#0f2653"/><path d="M192.781,336.586c0-.369,3.387-4.608.641-5.99s-6.2-.346-6.133,1.2c.091,2.027,2.471,4.7,2.471,4.7Z" transform="translate(-114.334 -201.425)" fill="#0f2653"/></g></g><g transform="translate(111.643 190.147)"><g clip-path="url(#cq)"><rect width="96.304" height="103.12" transform="translate(-27.505 48.488) rotate(-60.436)" fill="url(#cr)"/></g></g><g transform="translate(110.396 187.399)"><g clip-path="url(#cs)"><rect width="70.054" height="44.331" transform="translate(-16.155 61.092) rotate(-76.096)" fill="#2f6de2"/></g></g><g transform="translate(121.119 226.63)"><g clip-path="url(#ct)"><rect width="29.177" height="24.302" transform="matrix(0.24, -0.971, 0.971, 0.24, -6.021, 23.949)" fill="#2f6de2"/></g></g><g transform="translate(1.142 194.383)"><g clip-path="url(#cu)"><rect width="56.332" height="92.883" transform="translate(-1.007)" fill="url(#cv)"/></g></g><g transform="translate(0.511 192.758)"><g clip-path="url(#cw)"><rect width="45.097" height="56.398" transform="translate(-1.466 0)" fill="#2f6de2"/></g></g><g transform="translate(0 243.244)"><g clip-path="url(#cx)"><rect width="25.631" height="8.841" transform="translate(-0.17 0)" fill="#2f6de2"/></g></g><g transform="translate(0 -0.002)"><g clip-path="url(#d)"><path d="M188.108,344.69c-6.833-.978-10.021.4-11.56,2.158-.318.206-2.12,5.186,2.411,6.573,7.655,2.345,12.831,1.627,14.789.852.622-.247,4.254-8.6-5.641-9.583" transform="translate(-107.4 -210.225)" fill="#0f2653"/></g></g><g transform="translate(77.302 444.353)"><g clip-path="url(#cz)"><rect width="30.742" height="23.901" transform="matrix(0.114, -0.993, 0.993, 0.114, -5.1, 28.188)" fill="url(#da)"/></g></g><g transform="translate(0 -0.002)"><g clip-path="url(#d)"><path d="M205.8,1188.028s14.627,1.933,15.766,5.146c1.821,5.135-20.761,5.28-23.752,2.62-2.871-2.553.1-6.67.1-6.67s3.081,1.394,7.884-1.1" transform="translate(-120 -725.262)" fill="#0f2653"/></g></g><g transform="translate(35.717 442.541)"><g clip-path="url(#dc)"><rect width="22.182" height="29.817" transform="translate(-3.378 0.088) rotate(-3.176)" fill="url(#dd)"/></g></g><g transform="translate(0 -0.002)"><g clip-path="url(#d)"><path d="M98.195,1188.058s14.636,1.862,15.791,5.07c1.846,5.126-20.736,5.38-23.739,2.734-2.883-2.539.07-6.67.07-6.67s3.088,1.379,7.878-1.134" transform="translate(-54.322 -725.28)" fill="#0f2653"/></g></g><g transform="translate(33.387 272.999)"><g clip-path="url(#df)"><rect width="77.23" height="187.11" transform="translate(-0.752 0)" fill="url(#dg)"/></g></g><g transform="translate(37.431 181.936)"><g clip-path="url(#dh)"><rect width="81.946" height="108.663" transform="translate(-1.474 0)" fill="url(#a)"/></g></g><g transform="translate(56.759 179.086)"><g clip-path="url(#dj)"><rect width="35.495" height="14.697" transform="translate(0 0)" fill="#2f6de2"/></g></g><g transform="translate(0 -0.002)"><g clip-path="url(#d)"><path d="M126.15,720.857l-.163,5.195s31.151,9.7,59.9.892a49.672,49.672,0,0,0,.487-4.95s-26.3,6.006-60.223-1.137" transform="translate(-76.912 -440.065)" fill="#0f2653"/></g></g><g transform="translate(40.196 57.776)"><g clip-path="url(#dl)"><rect width="62.86" height="46.58" transform="translate(0 0)" fill="#ae6ec9"/></g></g><g transform="translate(0 -0.002)"><g clip-path="url(#d)"><path d="M159.3,175.317a7.273,7.273,0,1,0-11.222,6.105l0,4.27,7.9,0,0-4.27a7.262,7.262,0,0,0,3.321-6.1" transform="translate(-88.367 -102.587)" fill="#fff"/><path d="M159.969,208.154l-8.485,0a.673.673,0,0,0,0,1.347l8.485,0a.673.673,0,1,0,0-1.347" transform="translate(-92.067 -127.072)" fill="#cfe7f8"/><path d="M159.97,211.612l-8.485,0a.673.673,0,0,0,0,1.347l8.485,0a.673.673,0,1,0,0-1.347" transform="translate(-92.067 -129.183)" fill="#cfe7f8"/><path d="M159.972,215.069l-8.485,0a.673.673,0,1,0,0,1.347l8.485,0a.673.673,0,1,0,0-1.347" transform="translate(-92.068 -131.293)" fill="#cfe7f8"/><path d="M160.857,218.529l-6.061,0a.634.634,0,0,0,0,1.257l6.062,0a.634.634,0,0,0,0-1.257" transform="translate(-94.165 -133.405)" fill="#cfe7f8"/><path d="M161.242,221.756l-4.265,0a.629.629,0,1,0,0,1.257l4.265,0a.628.628,0,0,0,0-1.257" transform="translate(-95.447 -135.375)" fill="#cfe7f8"/><path d="M161.905,224.984h-1.931a.628.628,0,1,0,0,1.257h1.931a.628.628,0,0,0,0-1.257" transform="translate(-97.276 -137.346)" fill="#cfe7f8"/><path d="M158.324,177.962a3.3,3.3,0,1,0,3.352,3.294,3.323,3.323,0,0,0-3.352-3.294" transform="translate(-94.609 -108.64)" fill="#cfe7f8"/></g></g><g transform="translate(60.682 69.024)"><g clip-path="url(#dn)"><rect width="7.922" height="5.62" transform="translate(-0.044 -0.002)" fill="url(#do)"/></g></g><g transform="translate(0 -0.002)"><g clip-path="url(#d)"><path d="M199.948,189.288a2.023,2.023,0,0,1,2.036-2.139,2.142,2.142,0,0,1,0,4.278,2.022,2.022,0,0,1-2.036-2.139m.862-4.934-.483-16.56h3.312l-.483,16.56Z" transform="translate(-122.064 -102.433)" fill="#fff"/></g></g></g></g><path d="M1114.978,2342.956l-101.858,76.173s-28.681,31.63-10.722,35.382,82.559-20.372,82.559-20.372l102.93-91.183-36.455,8.625-50.393,19.3Z" transform="translate(0 32.01)" opacity="0.35" fill="url(#dq)"/></g></g></svg>